<svg version="1.1" viewBox="0.0 0.0 600.0 371.0" fill="none" stroke="none" stroke-linecap="square" stroke-miterlimit="10" width="600" height="371" xmlns:xlink="http://www.w3.org/1999/xlink" xmlns="http://www.w3.org/2000/svg"><path fill="#ffffff" d="M0 0L600.0 0L600.0 371.0L0 371.0L0 0Z" fill-rule="nonzero"/><path stroke="#333333" stroke-width="1.0" stroke-linecap="butt" d="M99.5 311.5L581.5 311.5" fill-rule="nonzero"/><path stroke="#cccccc" stroke-width="1.0" stroke-linecap="butt" d="M99.5 256.5L581.5 256.5" fill-rule="nonzero"/><path stroke="#cccccc" stroke-width="1.0" stroke-linecap="butt" d="M99.5 200.5L581.5 200.5" fill-rule="nonzero"/><path stroke="#cccccc" stroke-width="1.0" stroke-linecap="butt" d="M99.5 145.5L581.5 145.5" fill-rule="nonzero"/><path stroke="#cccccc" stroke-width="1.0" stroke-linecap="butt" d="M99.5 89.5L581.5 89.5" fill-rule="nonzero"/><clipPath id="id_0"><path d="M99.55 89.78333L581.45 89.78333L581.45 311.95L99.55 311.95L99.55 89.78333Z" clip-rule="nonzero"/></clipPath><path stroke="#4285f4" stroke-width="2.0" stroke-linecap="butt" clip-path="url(#id_0)" d="M104.369 292.77924C104.369 292.77924 110.794334 283.74335 114.007 280.3779C117.219666 277.01245 120.432335 273.88507 123.645 272.58652C126.857666 271.28793 130.07033 272.58652 133.283 272.58652C136.49567 272.58652 139.70833 272.58652 142.921 272.58652C146.13367 272.58652 149.34633 272.58652 152.559 272.58652C155.77167 272.58652 158.98433 272.58652 162.197 272.58652C165.40967 272.58652 168.62233 272.58652 171.835 272.58652C175.04767 272.58652 178.26033 272.58652 181.473 272.58652C184.68567 272.58652 187.89833 272.58652 191.111 272.58652C194.32367 272.58652 197.53633 272.58652 200.749 272.58652C203.96167 272.58652 207.17433 272.58652 210.387 272.58652C213.59967 272.58652 216.81233 272.58652 220.025 272.58652C223.23767 272.58652 226.45033 272.8483 229.663 272.58652C232.87567 272.32474 236.08833 271.42346 239.301 271.01578C242.51367 270.60812 245.72633 270.35928 248.939 270.14044C252.15167 269.92163 255.36433 269.92163 258.577 269.7028C261.78967 269.48395 265.00232 269.04666 268.215 268.82745C271.42767 268.60825 274.64032 268.60675 277.853 268.38757C281.06567 268.16837 284.27832 267.80402 287.491 267.51224C290.70367 267.22046 293.91632 266.88052 297.129 266.6369C300.34167 266.39325 303.55432 266.14813 306.767 266.05035C309.97968 265.9526 313.19232 266.05035 316.405 266.05035C319.61768 266.05035 322.83032 266.05035 326.043 266.05035C329.25568 266.05035 332.46832 266.05035 335.681 266.05035C338.89368 266.05035 342.10632 266.05035 345.319 266.05035C348.53168 266.05035 351.74432 266.05035 354.957 266.05035C358.16968 266.05035 361.38232 266.05035 364.595 266.05035C367.80768 266.05035 371.02032 266.05035 374.233 266.05035C377.44568 266.05035 380.65833 266.05035 383.871 266.05035C387.08368 266.05035 390.29633 266.05035 393.509 266.05035C396.72168 266.05035 399.93433 266.05035 403.147 266.05035C406.35968 266.05035 409.57233 266.05035 412.785 266.05035C415.99768 266.05035 419.21033 266.05035 422.423 266.05035C425.63568 266.05035 428.84833 266.05035 432.061 266.05035C435.27368 266.05035 438.48633 266.05035 441.699 266.05035C444.91165 266.05035 448.12433 266.05035 451.337 266.05035C454.54965 266.05035 457.76233 266.05035 460.975 266.05035C464.18765 266.05035 467.40033 266.05035 470.613 266.05035C473.82565 266.05035 477.03833 266.05035 480.251 266.05035C483.46365 266.05035 486.67633 266.0748 489.889 266.05035C493.10165 266.02594 496.31433 265.92816 499.527 265.90375C502.73965 265.8793 505.95233 265.90375 509.165 265.90375C512.3777 265.90375 515.59033 265.90375 518.803 265.90375C522.0157 265.90375 525.22833 265.90375 528.441 265.90375C531.6537 265.90375 534.86633 265.90375 538.079 265.90375C541.2917 265.90375 544.50433 265.90375 547.717 265.90375C550.9297 265.90375 554.14233 265.90375 557.355 265.90375C560.5677 265.90375 563.78033 265.90375 566.993 265.90375C570.2057 265.90375 576.631 265.90375 576.631 265.90375" fill-rule="nonzero"/><path stroke="#db4437" stroke-width="2.0" stroke-linecap="butt" clip-path="url(#id_0)" d="M104.369 293.4013C104.369 293.4013 110.794334 285.74026 114.007 282.30185C117.219666 278.86346 120.432335 274.41568 123.645 272.7709C126.857666 271.12613 130.07033 272.4895 133.283 272.43323C136.49567 272.37692 139.70833 272.43323 142.921 272.43323C146.13367 272.43323 149.34633 272.43323 152.559 272.43323C155.77167 272.43323 158.98433 272.43323 162.197 272.43323C165.40967 272.43323 168.62233 272.43323 171.835 272.43323C175.04767 272.43323 178.26033 272.43323 181.473 272.43323C184.68567 272.43323 187.89833 272.43323 191.111 272.43323C194.32367 272.43323 197.53633 272.43323 200.749 272.43323C203.96167 272.43323 207.17433 272.43323 210.387 272.43323C213.59967 272.43323 216.81233 272.43323 220.025 272.43323C223.23767 272.43323 226.45033 272.43323 229.663 272.43323C232.87567 272.43323 236.08833 272.43323 239.301 272.43323C242.51367 272.43323 245.72633 272.43323 248.939 272.43323C252.15167 272.43323 255.36433 272.43323 258.577 272.43323C261.78967 272.43323 265.00232 274.18982 268.215 272.43323C271.42767 270.6766 274.64032 266.02 277.853 261.89362C281.06567 257.76724 284.27832 250.87564 287.491 247.67496C290.70367 244.47427 293.91632 246.69669 297.129 242.68954C300.34167 238.68239 303.55432 228.39645 306.767 223.63208C309.97968 218.86772 313.19232 217.27997 316.405 214.10336C319.61768 210.92674 322.83032 208.87282 326.043 204.5724C329.25568 200.272 332.46832 191.47716 335.681 188.30092C338.89368 185.12468 342.10632 189.15552 345.319 185.51495C348.53168 181.87437 351.74432 171.24667 354.957 166.45749C358.16968 161.66832 361.38232 158.39284 364.595 156.7799C367.80768 155.16698 371.02032 156.7799 374.233 156.7799C377.44568 156.7799 380.65833 156.7799 383.871 156.7799C387.08368 156.7799 390.29633 156.7799 393.509 156.7799C396.72168 156.7799 399.93433 156.7799 403.147 156.7799C406.35968 156.7799 409.57233 156.7799 412.785 156.7799C415.99768 156.7799 419.21033 156.7799 422.423 156.7799C425.63568 156.7799 428.84833 156.7799 432.061 156.7799C435.27368 156.7799 438.48633 156.7799 441.699 156.7799C444.91165 156.7799 448.12433 156.7799 451.337 156.7799C454.54965 156.7799 457.76233 156.7799 460.975 156.7799C464.18765 156.7799 467.40033 156.7799 470.613 156.7799C473.82565 156.7799 477.03833 156.7799 480.251 156.7799C483.46365 156.7799 486.67633 156.7799 489.889 156.7799C493.10165 156.7799 496.31433 156.7799 499.527 156.7799C502.73965 156.7799 505.95233 156.7799 509.165 156.7799C512.3777 156.7799 515.59033 156.80435 518.803 156.7799C522.0157 156.75548 525.22833 156.65771 528.441 156.63329C531.6537 156.60884 534.86633 156.63329 538.079 156.63329C541.2917 156.63329 544.50433 156.63329 547.717 156.63329C550.9297 156.63329 554.14233 156.63329 557.355 156.63329C560.5677 156.63329 563.78033 156.63329 566.993 156.63329C570.2057 156.63329 576.631 156.63329 576.631 156.63329" fill-rule="nonzero"/><path fill="#000000" fill-opacity="0.0" clip-path="url(#id_0)" d="M107.369 292.77924C107.369 294.4361 106.025856 295.77924 104.369 295.77924C102.71214 295.77924 101.369 294.4361 101.369 292.77924C101.369 291.12238 102.71214 289.77924 104.369 289.77924C106.025856 289.77924 107.369 291.12238 107.369 292.77924Z" fill-rule="nonzero"/><path fill="#000000" fill-opacity="0.0" clip-path="url(#id_0)" d="M117.007 280.3779C117.007 282.03476 115.66386 283.3779 114.007 283.3779C112.35014 283.3779 111.007 282.03476 111.007 280.3779C111.007 278.72104 112.35014 277.3779 114.007 277.3779C115.66386 277.3779 117.007 278.72104 117.007 280.3779Z" fill-rule="nonzero"/><path fill="#000000" fill-opacity="0.0" clip-path="url(#id_0)" d="M126.645 272.58652C126.645 274.24338 125.30186 275.58652 123.645 275.58652C121.988144 275.58652 120.645 274.24338 120.645 272.58652C120.645 270.92966 121.988144 269.58652 123.645 269.58652C125.30186 269.58652 126.645 270.92966 126.645 272.58652Z" fill-rule="nonzero"/><path fill="#000000" fill-opacity="0.0" clip-path="url(#id_0)" d="M136.283 272.58652C136.283 274.24338 134.93985 275.58652 133.283 275.58652C131.62614 275.58652 130.283 274.24338 130.283 272.58652C130.283 270.92966 131.62614 269.58652 133.283 269.58652C134.93985 269.58652 136.283 270.92966 136.283 272.58652Z" fill-rule="nonzero"/><path fill="#000000" fill-opacity="0.0" clip-path="url(#id_0)" d="M145.921 272.58652C145.921 274.24338 144.57785 275.58652 142.921 275.58652C141.26414 275.58652 139.921 274.24338 139.921 272.58652C139.921 270.92966 141.26414 269.58652 142.921 269.58652C144.57785 269.58652 145.921 270.92966 145.921 272.58652Z" fill-rule="nonzero"/><path fill="#000000" fill-opacity="0.0" clip-path="url(#id_0)" d="M155.559 272.58652C155.559 274.24338 154.21585 275.58652 152.559 275.58652C150.90215 275.58652 149.559 274.24338 149.559 272.58652C149.559 270.92966 150.90215 269.58652 152.559 269.58652C154.21585 269.58652 155.559 270.92966 155.559 272.58652Z" fill-rule="nonzero"/><path fill="#000000" fill-opacity="0.0" clip-path="url(#id_0)" d="M165.197 272.58652C165.197 274.24338 163.85385 275.58652 162.197 275.58652C160.54015 275.58652 159.197 274.24338 159.197 272.58652C159.197 270.92966 160.54015 269.58652 162.197 269.58652C163.85385 269.58652 165.197 270.92966 165.197 272.58652Z" fill-rule="nonzero"/><path fill="#000000" fill-opacity="0.0" clip-path="url(#id_0)" d="M174.835 272.58652C174.835 274.24338 173.49185 275.58652 171.835 275.58652C170.17815 275.58652 168.835 274.24338 168.835 272.58652C168.835 270.92966 170.17815 269.58652 171.835 269.58652C173.49185 269.58652 174.835 270.92966 174.835 272.58652Z" fill-rule="nonzero"/><path fill="#000000" fill-opacity="0.0" clip-path="url(#id_0)" d="M184.473 272.58652C184.473 274.24338 183.12985 275.58652 181.473 275.58652C179.81615 275.58652 178.473 274.24338 178.473 272.58652C178.473 270.92966 179.81615 269.58652 181.473 269.58652C183.12985 269.58652 184.473 270.92966 184.473 272.58652Z" fill-rule="nonzero"/><path fill="#000000" fill-opacity="0.0" clip-path="url(#id_0)" d="M194.111 272.58652C194.111 274.24338 192.76785 275.58652 191.111 275.58652C189.45415 275.58652 188.111 274.24338 188.111 272.58652C188.111 270.92966 189.45415 269.58652 191.111 269.58652C192.76785 269.58652 194.111 270.92966 194.111 272.58652Z" fill-rule="nonzero"/><path fill="#000000" fill-opacity="0.0" clip-path="url(#id_0)" d="M203.749 272.58652C203.749 274.24338 202.40585 275.58652 200.749 275.58652C199.09215 275.58652 197.749 274.24338 197.749 272.58652C197.749 270.92966 199.09215 269.58652 200.749 269.58652C202.40585 269.58652 203.749 270.92966 203.749 272.58652Z" fill-rule="nonzero"/><path fill="#000000" fill-opacity="0.0" clip-path="url(#id_0)" d="M213.387 272.58652C213.387 274.24338 212.04385 275.58652 210.387 275.58652C208.73015 275.58652 207.387 274.24338 207.387 272.58652C207.387 270.92966 208.73015 269.58652 210.387 269.58652C212.04385 269.58652 213.387 270.92966 213.387 272.58652Z" fill-rule="nonzero"/><path fill="#000000" fill-opacity="0.0" clip-path="url(#id_0)" d="M223.025 272.58652C223.025 274.24338 221.68185 275.58652 220.025 275.58652C218.36815 275.58652 217.025 274.24338 217.025 272.58652C217.025 270.92966 218.36815 269.58652 220.025 269.58652C221.68185 269.58652 223.025 270.92966 223.025 272.58652Z" fill-rule="nonzero"/><path fill="#000000" fill-opacity="0.0" clip-path="url(#id_0)" d="M232.663 272.58652C232.663 274.24338 231.31985 275.58652 229.663 275.58652C228.00615 275.58652 226.663 274.24338 226.663 272.58652C226.663 270.92966 228.00615 269.58652 229.663 269.58652C231.31985 269.58652 232.663 270.92966 232.663 272.58652Z" fill-rule="nonzero"/><path fill="#000000" fill-opacity="0.0" clip-path="url(#id_0)" d="M242.301 271.01578C242.301 272.67264 240.95786 274.01578 239.301 274.01578C237.64415 274.01578 236.301 272.67264 236.301 271.01578C236.301 269.35895 237.64415 268.01578 239.301 268.01578C240.95786 268.01578 242.301 269.35895 242.301 271.01578Z" fill-rule="nonzero"/><path fill="#000000" fill-opacity="0.0" clip-path="url(#id_0)" d="M251.939 270.14044C251.939 271.7973 250.59586 273.14044 248.939 273.14044C247.28215 273.14044 245.939 271.7973 245.939 270.14044C245.939 268.4836 247.28215 267.14044 248.939 267.14044C250.59586 267.14044 251.939 268.4836 251.939 270.14044Z" fill-rule="nonzero"/><path fill="#000000" fill-opacity="0.0" clip-path="url(#id_0)" d="M261.577 269.7028C261.577 271.35965 260.23386 272.7028 258.577 272.7028C256.92014 272.7028 255.577 271.35965 255.577 269.7028C255.577 268.04593 256.92014 266.7028 258.577 266.7028C260.23386 266.7028 261.577 268.04593 261.577 269.7028Z" fill-rule="nonzero"/><path fill="#000000" fill-opacity="0.0" clip-path="url(#id_0)" d="M271.215 268.82745C271.215 270.4843 269.87186 271.82745 268.215 271.82745C266.55814 271.82745 265.215 270.4843 265.215 268.82745C265.215 267.1706 266.55814 265.82745 268.215 265.82745C269.87186 265.82745 271.215 267.1706 271.215 268.82745Z" fill-rule="nonzero"/><path fill="#000000" fill-opacity="0.0" clip-path="url(#id_0)" d="M280.853 268.38757C280.853 270.0444 279.50986 271.38757 277.853 271.38757C276.19614 271.38757 274.853 270.0444 274.853 268.38757C274.853 266.7307 276.19614 265.38757 277.853 265.38757C279.50986 265.38757 280.853 266.7307 280.853 268.38757Z" fill-rule="nonzero"/><path fill="#000000" fill-opacity="0.0" clip-path="url(#id_0)" d="M290.491 267.51224C290.491 269.16907 289.14786 270.51224 287.491 270.51224C285.83414 270.51224 284.491 269.16907 284.491 267.51224C284.491 265.85538 285.83414 264.51224 287.491 264.51224C289.14786 264.51224 290.491 265.85538 290.491 267.51224Z" fill-rule="nonzero"/><path fill="#000000" fill-opacity="0.0" clip-path="url(#id_0)" d="M300.129 266.6369C300.129 268.29373 298.78586 269.6369 297.129 269.6369C295.47214 269.6369 294.129 268.29373 294.129 266.6369C294.129 264.98004 295.47214 263.6369 297.129 263.6369C298.78586 263.6369 300.129 264.98004 300.129 266.6369Z" fill-rule="nonzero"/><path fill="#000000" fill-opacity="0.0" clip-path="url(#id_0)" d="M309.767 266.05035C309.767 267.7072 308.42386 269.05035 306.767 269.05035C305.11014 269.05035 303.767 267.7072 303.767 266.05035C303.767 264.39352 305.11014 263.05035 306.767 263.05035C308.42386 263.05035 309.767 264.39352 309.767 266.05035Z" fill-rule="nonzero"/><path fill="#000000" fill-opacity="0.0" clip-path="url(#id_0)" d="M319.405 266.05035C319.405 267.7072 318.06186 269.05035 316.405 269.05035C314.74814 269.05035 313.405 267.7072 313.405 266.05035C313.405 264.39352 314.74814 263.05035 316.405 263.05035C318.06186 263.05035 319.405 264.39352 319.405 266.05035Z" fill-rule="nonzero"/><path fill="#000000" fill-opacity="0.0" clip-path="url(#id_0)" d="M329.043 266.05035C329.043 267.7072 327.69986 269.05035 326.043 269.05035C324.38614 269.05035 323.043 267.7072 323.043 266.05035C323.043 264.39352 324.38614 263.05035 326.043 263.05035C327.69986 263.05035 329.043 264.39352 329.043 266.05035Z" fill-rule="nonzero"/><path fill="#000000" fill-opacity="0.0" clip-path="url(#id_0)" d="M338.681 266.05035C338.681 267.7072 337.33786 269.05035 335.681 269.05035C334.02414 269.05035 332.681 267.7072 332.681 266.05035C332.681 264.39352 334.02414 263.05035 335.681 263.05035C337.33786 263.05035 338.681 264.39352 338.681 266.05035Z" fill-rule="nonzero"/><path fill="#000000" fill-opacity="0.0" clip-path="url(#id_0)" d="M348.319 266.05035C348.319 267.7072 346.97586 269.05035 345.319 269.05035C343.66214 269.05035 342.319 267.7072 342.319 266.05035C342.319 264.39352 343.66214 263.05035 345.319 263.05035C346.97586 263.05035 348.319 264.39352 348.319 266.05035Z" fill-rule="nonzero"/><path fill="#000000" fill-opacity="0.0" clip-path="url(#id_0)" d="M357.957 266.05035C357.957 267.7072 356.61386 269.05035 354.957 269.05035C353.30014 269.05035 351.957 267.7072 351.957 266.05035C351.957 264.39352 353.30014 263.05035 354.957 263.05035C356.61386 263.05035 357.957 264.39352 357.957 266.05035Z" fill-rule="nonzero"/><path fill="#000000" fill-opacity="0.0" clip-path="url(#id_0)" d="M367.595 266.05035C367.595 267.7072 366.25186 269.05035 364.595 269.05035C362.93814 269.05035 361.595 267.7072 361.595 266.05035C361.595 264.39352 362.93814 263.05035 364.595 263.05035C366.25186 263.05035 367.595 264.39352 367.595 266.05035Z" fill-rule="nonzero"/><path fill="#000000" fill-opacity="0.0" clip-path="url(#id_0)" d="M377.233 266.05035C377.233 267.7072 375.88986 269.05035 374.233 269.05035C372.57614 269.05035 371.233 267.7072 371.233 266.05035C371.233 264.39352 372.57614 263.05035 374.233 263.05035C375.88986 263.05035 377.233 264.39352 377.233 266.05035Z" fill-rule="nonzero"/><path fill="#000000" fill-opacity="0.0" clip-path="url(#id_0)" d="M386.871 266.05035C386.871 267.7072 385.52786 269.05035 383.871 269.05035C382.21414 269.05035 380.871 267.7072 380.871 266.05035C380.871 264.39352 382.21414 263.05035 383.871 263.05035C385.52786 263.05035 386.871 264.39352 386.871 266.05035Z" fill-rule="nonzero"/><path fill="#000000" fill-opacity="0.0" clip-path="url(#id_0)" d="M396.509 266.05035C396.509 267.7072 395.16586 269.05035 393.509 269.05035C391.85214 269.05035 390.509 267.7072 390.509 266.05035C390.509 264.39352 391.85214 263.05035 393.509 263.05035C395.16586 263.05035 396.509 264.39352 396.509 266.05035Z" fill-rule="nonzero"/><path fill="#000000" fill-opacity="0.0" clip-path="url(#id_0)" d="M406.147 266.05035C406.147 267.7072 404.80386 269.05035 403.147 269.05035C401.49014 269.05035 400.147 267.7072 400.147 266.05035C400.147 264.39352 401.49014 263.05035 403.147 263.05035C404.80386 263.05035 406.147 264.39352 406.147 266.05035Z" fill-rule="nonzero"/><path fill="#000000" fill-opacity="0.0" clip-path="url(#id_0)" d="M415.785 266.05035C415.785 267.7072 414.44186 269.05035 412.785 269.05035C411.12814 269.05035 409.785 267.7072 409.785 266.05035C409.785 264.39352 411.12814 263.05035 412.785 263.05035C414.44186 263.05035 415.785 264.39352 415.785 266.05035Z" fill-rule="nonzero"/><path fill="#000000" fill-opacity="0.0" clip-path="url(#id_0)" d="M425.423 266.05035C425.423 267.7072 424.07986 269.05035 422.423 269.05035C420.76614 269.05035 419.423 267.7072 419.423 266.05035C419.423 264.39352 420.76614 263.05035 422.423 263.05035C424.07986 263.05035 425.423 264.39352 425.423 266.05035Z" fill-rule="nonzero"/><path fill="#000000" fill-opacity="0.0" clip-path="url(#id_0)" d="M435.061 266.05035C435.061 267.7072 433.71786 269.05035 432.061 269.05035C430.40414 269.05035 429.061 267.7072 429.061 266.05035C429.061 264.39352 430.40414 263.05035 432.061 263.05035C433.71786 263.05035 435.061 264.39352 435.061 266.05035Z" fill-rule="nonzero"/><path fill="#000000" fill-opacity="0.0" clip-path="url(#id_0)" d="M444.699 266.05035C444.699 267.7072 443.35587 269.05035 441.699 269.05035C440.04214 269.05035 438.699 267.7072 438.699 266.05035C438.699 264.39352 440.04214 263.05035 441.699 263.05035C443.35587 263.05035 444.699 264.39352 444.699 266.05035Z" fill-rule="nonzero"/><path fill="#000000" fill-opacity="0.0" clip-path="url(#id_0)" d="M454.337 266.05035C454.337 267.7072 452.99387 269.05035 451.337 269.05035C449.68015 269.05035 448.337 267.7072 448.337 266.05035C448.337 264.39352 449.68015 263.05035 451.337 263.05035C452.99387 263.05035 454.337 264.39352 454.337 266.05035Z" fill-rule="nonzero"/><path fill="#000000" fill-opacity="0.0" clip-path="url(#id_0)" d="M463.975 266.05035C463.975 267.7072 462.63187 269.05035 460.975 269.05035C459.31815 269.05035 457.975 267.7072 457.975 266.05035C457.975 264.39352 459.31815 263.05035 460.975 263.05035C462.63187 263.05035 463.975 264.39352 463.975 266.05035Z" fill-rule="nonzero"/><path fill="#000000" fill-opacity="0.0" clip-path="url(#id_0)" d="M473.613 266.05035C473.613 267.7072 472.26987 269.05035 470.613 269.05035C468.95615 269.05035 467.613 267.7072 467.613 266.05035C467.613 264.39352 468.95615 263.05035 470.613 263.05035C472.26987 263.05035 473.613 264.39352 473.613 266.05035Z" fill-rule="nonzero"/><path fill="#000000" fill-opacity="0.0" clip-path="url(#id_0)" d="M483.251 266.05035C483.251 267.7072 481.90787 269.05035 480.251 269.05035C478.59415 269.05035 477.251 267.7072 477.251 266.05035C477.251 264.39352 478.59415 263.05035 480.251 263.05035C481.90787 263.05035 483.251 264.39352 483.251 266.05035Z" fill-rule="nonzero"/><path fill="#000000" fill-opacity="0.0" clip-path="url(#id_0)" d="M492.889 266.05035C492.889 267.7072 491.54587 269.05035 489.889 269.05035C488.23215 269.05035 486.889 267.7072 486.889 266.05035C486.889 264.39352 488.23215 263.05035 489.889 263.05035C491.54587 263.05035 492.889 264.39352 492.889 266.05035Z" fill-rule="nonzero"/><path fill="#000000" fill-opacity="0.0" clip-path="url(#id_0)" d="M502.527 265.90375C502.527 267.56058 501.18387 268.90375 499.527 268.90375C497.87015 268.90375 496.527 267.56058 496.527 265.90375C496.527 264.2469 497.87015 262.90375 499.527 262.90375C501.18387 262.90375 502.527 264.2469 502.527 265.90375Z" fill-rule="nonzero"/><path fill="#000000" fill-opacity="0.0" clip-path="url(#id_0)" d="M512.165 265.90375C512.165 267.56058 510.82187 268.90375 509.165 268.90375C507.50815 268.90375 506.165 267.56058 506.165 265.90375C506.165 264.2469 507.50815 262.90375 509.165 262.90375C510.82187 262.90375 512.165 264.2469 512.165 265.90375Z" fill-rule="nonzero"/><path fill="#000000" fill-opacity="0.0" clip-path="url(#id_0)" d="M521.803 265.90375C521.803 267.56058 520.45984 268.90375 518.803 268.90375C517.1461 268.90375 515.803 267.56058 515.803 265.90375C515.803 264.2469 517.1461 262.90375 518.803 262.90375C520.45984 262.90375 521.803 264.2469 521.803 265.90375Z" fill-rule="nonzero"/><path fill="#000000" fill-opacity="0.0" clip-path="url(#id_0)" d="M531.441 265.90375C531.441 267.56058 530.09784 268.90375 528.441 268.90375C526.7841 268.90375 525.441 267.56058 525.441 265.90375C525.441 264.2469 526.7841 262.90375 528.441 262.90375C530.09784 262.90375 531.441 264.2469 531.441 265.90375Z" fill-rule="nonzero"/><path fill="#000000" fill-opacity="0.0" clip-path="url(#id_0)" d="M541.079 265.90375C541.079 267.56058 539.73584 268.90375 538.079 268.90375C536.4221 268.90375 535.079 267.56058 535.079 265.90375C535.079 264.2469 536.4221 262.90375 538.079 262.90375C539.73584 262.90375 541.079 264.2469 541.079 265.90375Z" fill-rule="nonzero"/><path fill="#000000" fill-opacity="0.0" clip-path="url(#id_0)" d="M550.717 265.90375C550.717 267.56058 549.37384 268.90375 547.717 268.90375C546.0601 268.90375 544.717 267.56058 544.717 265.90375C544.717 264.2469 546.0601 262.90375 547.717 262.90375C549.37384 262.90375 550.717 264.2469 550.717 265.90375Z" fill-rule="nonzero"/><path fill="#000000" fill-opacity="0.0" clip-path="url(#id_0)" d="M560.355 265.90375C560.355 267.56058 559.01184 268.90375 557.355 268.90375C555.6981 268.90375 554.355 267.56058 554.355 265.90375C554.355 264.2469 555.6981 262.90375 557.355 262.90375C559.01184 262.90375 560.355 264.2469 560.355 265.90375Z" fill-rule="nonzero"/><path fill="#000000" fill-opacity="0.0" clip-path="url(#id_0)" d="M569.993 265.90375C569.993 267.56058 568.64984 268.90375 566.993 268.90375C565.3361 268.90375 563.993 267.56058 563.993 265.90375C563.993 264.2469 565.3361 262.90375 566.993 262.90375C568.64984 262.90375 569.993 264.2469 569.993 265.90375Z" fill-rule="nonzero"/><path fill="#000000" fill-opacity="0.0" clip-path="url(#id_0)" d="M579.631 265.90375C579.631 267.56058 578.28784 268.90375 576.631 268.90375C574.9741 268.90375 573.631 267.56058 573.631 265.90375C573.631 264.2469 574.9741 262.90375 576.631 262.90375C578.28784 262.90375 579.631 264.2469 579.631 265.90375Z" fill-rule="nonzero"/><path fill="#000000" fill-opacity="0.0" clip-path="url(#id_0)" d="M107.369 293.4013C107.369 295.05817 106.025856 296.4013 104.369 296.4013C102.71214 296.4013 101.369 295.05817 101.369 293.4013C101.369 291.74445 102.71214 290.4013 104.369 290.4013C106.025856 290.4013 107.369 291.74445 107.369 293.4013Z" fill-rule="nonzero"/><path fill="#000000" fill-opacity="0.0" clip-path="url(#id_0)" d="M117.007 282.30185C117.007 283.9587 115.66386 285.30185 114.007 285.30185C112.35014 285.30185 111.007 283.9587 111.007 282.30185C111.007 280.645 112.35014 279.30185 114.007 279.30185C115.66386 279.30185 117.007 280.645 117.007 282.30185Z" fill-rule="nonzero"/><path fill="#000000" fill-opacity="0.0" clip-path="url(#id_0)" d="M126.645 272.7709C126.645 274.42776 125.30186 275.7709 123.645 275.7709C121.988144 275.7709 120.645 274.42776 120.645 272.7709C120.645 271.11404 121.988144 269.7709 123.645 269.7709C125.30186 269.7709 126.645 271.11404 126.645 272.7709Z" fill-rule="nonzero"/><path fill="#000000" fill-opacity="0.0" clip-path="url(#id_0)" d="M136.283 272.43323C136.283 274.09006 134.93985 275.43323 133.283 275.43323C131.62614 275.43323 130.283 274.09006 130.283 272.43323C130.283 270.77637 131.62614 269.43323 133.283 269.43323C134.93985 269.43323 136.283 270.77637 136.283 272.43323Z" fill-rule="nonzero"/><path fill="#000000" fill-opacity="0.0" clip-path="url(#id_0)" d="M145.921 272.43323C145.921 274.09006 144.57785 275.43323 142.921 275.43323C141.26414 275.43323 139.921 274.09006 139.921 272.43323C139.921 270.77637 141.26414 269.43323 142.921 269.43323C144.57785 269.43323 145.921 270.77637 145.921 272.43323Z" fill-rule="nonzero"/><path fill="#000000" fill-opacity="0.0" clip-path="url(#id_0)" d="M155.559 272.43323C155.559 274.09006 154.21585 275.43323 152.559 275.43323C150.90215 275.43323 149.559 274.09006 149.559 272.43323C149.559 270.77637 150.90215 269.43323 152.559 269.43323C154.21585 269.43323 155.559 270.77637 155.559 272.43323Z" fill-rule="nonzero"/><path fill="#000000" fill-opacity="0.0" clip-path="url(#id_0)" d="M165.197 272.43323C165.197 274.09006 163.85385 275.43323 162.197 275.43323C160.54015 275.43323 159.197 274.09006 159.197 272.43323C159.197 270.77637 160.54015 269.43323 162.197 269.43323C163.85385 269.43323 165.197 270.77637 165.197 272.43323Z" fill-rule="nonzero"/><path fill="#000000" fill-opacity="0.0" clip-path="url(#id_0)" d="M174.835 272.43323C174.835 274.09006 173.49185 275.43323 171.835 275.43323C170.17815 275.43323 168.835 274.09006 168.835 272.43323C168.835 270.77637 170.17815 269.43323 171.835 269.43323C173.49185 269.43323 174.835 270.77637 174.835 272.43323Z" fill-rule="nonzero"/><path fill="#000000" fill-opacity="0.0" clip-path="url(#id_0)" d="M184.473 272.43323C184.473 274.09006 183.12985 275.43323 181.473 275.43323C179.81615 275.43323 178.473 274.09006 178.473 272.43323C178.473 270.77637 179.81615 269.43323 181.473 269.43323C183.12985 269.43323 184.473 270.77637 184.473 272.43323Z" fill-rule="nonzero"/><path fill="#000000" fill-opacity="0.0" clip-path="url(#id_0)" d="M194.111 272.43323C194.111 274.09006 192.76785 275.43323 191.111 275.43323C189.45415 275.43323 188.111 274.09006 188.111 272.43323C188.111 270.77637 189.45415 269.43323 191.111 269.43323C192.76785 269.43323 194.111 270.77637 194.111 272.43323Z" fill-rule="nonzero"/><path fill="#000000" fill-opacity="0.0" clip-path="url(#id_0)" d="M203.749 272.43323C203.749 274.09006 202.40585 275.43323 200.749 275.43323C199.09215 275.43323 197.749 274.09006 197.749 272.43323C197.749 270.77637 199.09215 269.43323 200.749 269.43323C202.40585 269.43323 203.749 270.77637 203.749 272.43323Z" fill-rule="nonzero"/><path fill="#000000" fill-opacity="0.0" clip-path="url(#id_0)" d="M213.387 272.43323C213.387 274.09006 212.04385 275.43323 210.387 275.43323C208.73015 275.43323 207.387 274.09006 207.387 272.43323C207.387 270.77637 208.73015 269.43323 210.387 269.43323C212.04385 269.43323 213.387 270.77637 213.387 272.43323Z" fill-rule="nonzero"/><path fill="#000000" fill-opacity="0.0" clip-path="url(#id_0)" d="M223.025 272.43323C223.025 274.09006 221.68185 275.43323 220.025 275.43323C218.36815 275.43323 217.025 274.09006 217.025 272.43323C217.025 270.77637 218.36815 269.43323 220.025 269.43323C221.68185 269.43323 223.025 270.77637 223.025 272.43323Z" fill-rule="nonzero"/><path fill="#000000" fill-opacity="0.0" clip-path="url(#id_0)" d="M232.663 272.43323C232.663 274.09006 231.31985 275.43323 229.663 275.43323C228.00615 275.43323 226.663 274.09006 226.663 272.43323C226.663 270.77637 228.00615 269.43323 229.663 269.43323C231.31985 269.43323 232.663 270.77637 232.663 272.43323Z" fill-rule="nonzero"/><path fill="#000000" fill-opacity="0.0" clip-path="url(#id_0)" d="M242.301 272.43323C242.301 274.09006 240.95786 275.43323 239.301 275.43323C237.64415 275.43323 236.301 274.09006 236.301 272.43323C236.301 270.77637 237.64415 269.43323 239.301 269.43323C240.95786 269.43323 242.301 270.77637 242.301 272.43323Z" fill-rule="nonzero"/><path fill="#000000" fill-opacity="0.0" clip-path="url(#id_0)" d="M251.939 272.43323C251.939 274.09006 250.59586 275.43323 248.939 275.43323C247.28215 275.43323 245.939 274.09006 245.939 272.43323C245.939 270.77637 247.28215 269.43323 248.939 269.43323C250.59586 269.43323 251.939 270.77637 251.939 272.43323Z" fill-rule="nonzero"/><path fill="#000000" fill-opacity="0.0" clip-path="url(#id_0)" d="M261.577 272.43323C261.577 274.09006 260.23386 275.43323 258.577 275.43323C256.92014 275.43323 255.577 274.09006 255.577 272.43323C255.577 270.77637 256.92014 269.43323 258.577 269.43323C260.23386 269.43323 261.577 270.77637 261.577 272.43323Z" fill-rule="nonzero"/><path fill="#000000" fill-opacity="0.0" clip-path="url(#id_0)" d="M271.215 272.43323C271.215 274.09006 269.87186 275.43323 268.215 275.43323C266.55814 275.43323 265.215 274.09006 265.215 272.43323C265.215 270.77637 266.55814 269.43323 268.215 269.43323C269.87186 269.43323 271.215 270.77637 271.215 272.43323Z" fill-rule="nonzero"/><path fill="#000000" fill-opacity="0.0" clip-path="url(#id_0)" d="M280.853 261.89362C280.853 263.55048 279.50986 264.89362 277.853 264.89362C276.19614 264.89362 274.853 263.55048 274.853 261.89362C274.853 260.2368 276.19614 258.89362 277.853 258.89362C279.50986 258.89362 280.853 260.2368 280.853 261.89362Z" fill-rule="nonzero"/><path fill="#000000" fill-opacity="0.0" clip-path="url(#id_0)" d="M290.491 247.67496C290.491 249.33182 289.14786 250.67496 287.491 250.67496C285.83414 250.67496 284.491 249.33182 284.491 247.67496C284.491 246.01811 285.83414 244.67496 287.491 244.67496C289.14786 244.67496 290.491 246.01811 290.491 247.67496Z" fill-rule="nonzero"/><path fill="#000000" fill-opacity="0.0" clip-path="url(#id_0)" d="M300.129 242.68954C300.129 244.34639 298.78586 245.68954 297.129 245.68954C295.47214 245.68954 294.129 244.34639 294.129 242.68954C294.129 241.03268 295.47214 239.68954 297.129 239.68954C298.78586 239.68954 300.129 241.03268 300.129 242.68954Z" fill-rule="nonzero"/><path fill="#000000" fill-opacity="0.0" clip-path="url(#id_0)" d="M309.767 223.63208C309.767 225.28894 308.42386 226.63208 306.767 226.63208C305.11014 226.63208 303.767 225.28894 303.767 223.63208C303.767 221.97523 305.11014 220.63208 306.767 220.63208C308.42386 220.63208 309.767 221.97523 309.767 223.63208Z" fill-rule="nonzero"/><path fill="#000000" fill-opacity="0.0" clip-path="url(#id_0)" d="M319.405 214.10336C319.405 215.76021 318.06186 217.10336 316.405 217.10336C314.74814 217.10336 313.405 215.76021 313.405 214.10336C313.405 212.4465 314.74814 211.10336 316.405 211.10336C318.06186 211.10336 319.405 212.4465 319.405 214.10336Z" fill-rule="nonzero"/><path fill="#000000" fill-opacity="0.0" clip-path="url(#id_0)" d="M329.043 204.5724C329.043 206.22926 327.69986 207.5724 326.043 207.5724C324.38614 207.5724 323.043 206.22926 323.043 204.5724C323.043 202.91556 324.38614 201.5724 326.043 201.5724C327.69986 201.5724 329.043 202.91556 329.043 204.5724Z" fill-rule="nonzero"/><path fill="#000000" fill-opacity="0.0" clip-path="url(#id_0)" d="M338.681 188.30092C338.681 189.95778 337.33786 191.30092 335.681 191.30092C334.02414 191.30092 332.681 189.95778 332.681 188.30092C332.681 186.64406 334.02414 185.30092 335.681 185.30092C337.33786 185.30092 338.681 186.64406 338.681 188.30092Z" fill-rule="nonzero"/><path fill="#000000" fill-opacity="0.0" clip-path="url(#id_0)" d="M348.319 185.51495C348.319 187.1718 346.97586 188.51495 345.319 188.51495C343.66214 188.51495 342.319 187.1718 342.319 185.51495C342.319 183.8581 343.66214 182.51495 345.319 182.51495C346.97586 182.51495 348.319 183.8581 348.319 185.51495Z" fill-rule="nonzero"/><path fill="#000000" fill-opacity="0.0" clip-path="url(#id_0)" d="M357.957 166.45749C357.957 168.11435 356.61386 169.45749 354.957 169.45749C353.30014 169.45749 351.957 168.11435 351.957 166.45749C351.957 164.80064 353.30014 163.45749 354.957 163.45749C356.61386 163.45749 357.957 164.80064 357.957 166.45749Z" fill-rule="nonzero"/><path fill="#000000" fill-opacity="0.0" clip-path="url(#id_0)" d="M367.595 156.7799C367.595 158.43677 366.25186 159.7799 364.595 159.7799C362.93814 159.7799 361.595 158.43677 361.595 156.7799C361.595 155.12306 362.93814 153.7799 364.595 153.7799C366.25186 153.7799 367.595 155.12306 367.595 156.7799Z" fill-rule="nonzero"/><path fill="#000000" fill-opacity="0.0" clip-path="url(#id_0)" d="M377.233 156.7799C377.233 158.43677 375.88986 159.7799 374.233 159.7799C372.57614 159.7799 371.233 158.43677 371.233 156.7799C371.233 155.12306 372.57614 153.7799 374.233 153.7799C375.88986 153.7799 377.233 155.12306 377.233 156.7799Z" fill-rule="nonzero"/><path fill="#000000" fill-opacity="0.0" clip-path="url(#id_0)" d="M386.871 156.7799C386.871 158.43677 385.52786 159.7799 383.871 159.7799C382.21414 159.7799 380.871 158.43677 380.871 156.7799C380.871 155.12306 382.21414 153.7799 383.871 153.7799C385.52786 153.7799 386.871 155.12306 386.871 156.7799Z" fill-rule="nonzero"/><path fill="#000000" fill-opacity="0.0" clip-path="url(#id_0)" d="M396.509 156.7799C396.509 158.43677 395.16586 159.7799 393.509 159.7799C391.85214 159.7799 390.509 158.43677 390.509 156.7799C390.509 155.12306 391.85214 153.7799 393.509 153.7799C395.16586 153.7799 396.509 155.12306 396.509 156.7799Z" fill-rule="nonzero"/><path fill="#000000" fill-opacity="0.0" clip-path="url(#id_0)" d="M406.147 156.7799C406.147 158.43677 404.80386 159.7799 403.147 159.7799C401.49014 159.7799 400.147 158.43677 400.147 156.7799C400.147 155.12306 401.49014 153.7799 403.147 153.7799C404.80386 153.7799 406.147 155.12306 406.147 156.7799Z" fill-rule="nonzero"/><path fill="#000000" fill-opacity="0.0" clip-path="url(#id_0)" d="M415.785 156.7799C415.785 158.43677 414.44186 159.7799 412.785 159.7799C411.12814 159.7799 409.785 158.43677 409.785 156.7799C409.785 155.12306 411.12814 153.7799 412.785 153.7799C414.44186 153.7799 415.785 155.12306 415.785 156.7799Z" fill-rule="nonzero"/><path fill="#000000" fill-opacity="0.0" clip-path="url(#id_0)" d="M425.423 156.7799C425.423 158.43677 424.07986 159.7799 422.423 159.7799C420.76614 159.7799 419.423 158.43677 419.423 156.7799C419.423 155.12306 420.76614 153.7799 422.423 153.7799C424.07986 153.7799 425.423 155.12306 425.423 156.7799Z" fill-rule="nonzero"/><path fill="#000000" fill-opacity="0.0" clip-path="url(#id_0)" d="M435.061 156.7799C435.061 158.43677 433.71786 159.7799 432.061 159.7799C430.40414 159.7799 429.061 158.43677 429.061 156.7799C429.061 155.12306 430.40414 153.7799 432.061 153.7799C433.71786 153.7799 435.061 155.12306 435.061 156.7799Z" fill-rule="nonzero"/><path fill="#000000" fill-opacity="0.0" clip-path="url(#id_0)" d="M444.699 156.7799C444.699 158.43677 443.35587 159.7799 441.699 159.7799C440.04214 159.7799 438.699 158.43677 438.699 156.7799C438.699 155.12306 440.04214 153.7799 441.699 153.7799C443.35587 153.7799 444.699 155.12306 444.699 156.7799Z" fill-rule="nonzero"/><path fill="#000000" fill-opacity="0.0" clip-path="url(#id_0)" d="M454.337 156.7799C454.337 158.43677 452.99387 159.7799 451.337 159.7799C449.68015 159.7799 448.337 158.43677 448.337 156.7799C448.337 155.12306 449.68015 153.7799 451.337 153.7799C452.99387 153.7799 454.337 155.12306 454.337 156.7799Z" fill-rule="nonzero"/><path fill="#000000" fill-opacity="0.0" clip-path="url(#id_0)" d="M463.975 156.7799C463.975 158.43677 462.63187 159.7799 460.975 159.7799C459.31815 159.7799 457.975 158.43677 457.975 156.7799C457.975 155.12306 459.31815 153.7799 460.975 153.7799C462.63187 153.7799 463.975 155.12306 463.975 156.7799Z" fill-rule="nonzero"/><path fill="#000000" fill-opacity="0.0" clip-path="url(#id_0)" d="M473.613 156.7799C473.613 158.43677 472.26987 159.7799 470.613 159.7799C468.95615 159.7799 467.613 158.43677 467.613 156.7799C467.613 155.12306 468.95615 153.7799 470.613 153.7799C472.26987 153.7799 473.613 155.12306 473.613 156.7799Z" fill-rule="nonzero"/><path fill="#000000" fill-opacity="0.0" clip-path="url(#id_0)" d="M483.251 156.7799C483.251 158.43677 481.90787 159.7799 480.251 159.7799C478.59415 159.7799 477.251 158.43677 477.251 156.7799C477.251 155.12306 478.59415 153.7799 480.251 153.7799C481.90787 153.7799 483.251 155.12306 483.251 156.7799Z" fill-rule="nonzero"/><path fill="#000000" fill-opacity="0.0" clip-path="url(#id_0)" d="M492.889 156.7799C492.889 158.43677 491.54587 159.7799 489.889 159.7799C488.23215 159.7799 486.889 158.43677 486.889 156.7799C486.889 155.12306 488.23215 153.7799 489.889 153.7799C491.54587 153.7799 492.889 155.12306 492.889 156.7799Z" fill-rule="nonzero"/><path fill="#000000" fill-opacity="0.0" clip-path="url(#id_0)" d="M502.527 156.7799C502.527 158.43677 501.18387 159.7799 499.527 159.7799C497.87015 159.7799 496.527 158.43677 496.527 156.7799C496.527 155.12306 497.87015 153.7799 499.527 153.7799C501.18387 153.7799 502.527 155.12306 502.527 156.7799Z" fill-rule="nonzero"/><path fill="#000000" fill-opacity="0.0" clip-path="url(#id_0)" d="M512.165 156.7799C512.165 158.43677 510.82187 159.7799 509.165 159.7799C507.50815 159.7799 506.165 158.43677 506.165 156.7799C506.165 155.12306 507.50815 153.7799 509.165 153.7799C510.82187 153.7799 512.165 155.12306 512.165 156.7799Z" fill-rule="nonzero"/><path fill="#000000" fill-opacity="0.0" clip-path="url(#id_0)" d="M521.803 156.7799C521.803 158.43677 520.45984 159.7799 518.803 159.7799C517.1461 159.7799 515.803 158.43677 515.803 156.7799C515.803 155.12306 517.1461 153.7799 518.803 153.7799C520.45984 153.7799 521.803 155.12306 521.803 156.7799Z" fill-rule="nonzero"/><path fill="#000000" fill-opacity="0.0" clip-path="url(#id_0)" d="M531.441 156.63329C531.441 158.29013 530.09784 159.63329 528.441 159.63329C526.7841 159.63329 525.441 158.29013 525.441 156.63329C525.441 154.97643 526.7841 153.63329 528.441 153.63329C530.09784 153.63329 531.441 154.97643 531.441 156.63329Z" fill-rule="nonzero"/><path fill="#000000" fill-opacity="0.0" clip-path="url(#id_0)" d="M541.079 156.63329C541.079 158.29013 539.73584 159.63329 538.079 159.63329C536.4221 159.63329 535.079 158.29013 535.079 156.63329C535.079 154.97643 536.4221 153.63329 538.079 153.63329C539.73584 153.63329 541.079 154.97643 541.079 156.63329Z" fill-rule="nonzero"/><path fill="#000000" fill-opacity="0.0" clip-path="url(#id_0)" d="M550.717 156.63329C550.717 158.29013 549.37384 159.63329 547.717 159.63329C546.0601 159.63329 544.717 158.29013 544.717 156.63329C544.717 154.97643 546.0601 153.63329 547.717 153.63329C549.37384 153.63329 550.717 154.97643 550.717 156.63329Z" fill-rule="nonzero"/><path fill="#000000" fill-opacity="0.0" clip-path="url(#id_0)" d="M560.355 156.63329C560.355 158.29013 559.01184 159.63329 557.355 159.63329C555.6981 159.63329 554.355 158.29013 554.355 156.63329C554.355 154.97643 555.6981 153.63329 557.355 153.63329C559.01184 153.63329 560.355 154.97643 560.355 156.63329Z" fill-rule="nonzero"/><path fill="#000000" fill-opacity="0.0" clip-path="url(#id_0)" d="M569.993 156.63329C569.993 158.29013 568.64984 159.63329 566.993 159.63329C565.3361 159.63329 563.993 158.29013 563.993 156.63329C563.993 154.97643 565.3361 153.63329 566.993 153.63329C568.64984 153.63329 569.993 154.97643 569.993 156.63329Z" fill-rule="nonzero"/><path fill="#000000" fill-opacity="0.0" clip-path="url(#id_0)" d="M579.631 156.63329C579.631 158.29013 578.28784 159.63329 576.631 159.63329C574.9741 159.63329 573.631 158.29013 573.631 156.63329C573.631 154.97643 574.9741 153.63329 576.631 153.63329C578.28784 153.63329 579.631 154.97643 579.631 156.63329Z" fill-rule="nonzero"/><path fill="#424242" d="M333.89062 341.84064L331.14062 341.84064L331.14062 349.45L330.03125 349.45L330.03125 341.84064L327.28125 341.84064L327.28125 340.91876L333.89062 340.91876L333.89062 341.84064ZM336.0 349.45L334.92188 349.45L334.92188 343.10626L336.0 343.10626L336.0 349.45ZM334.82812 341.4344Q334.82812 341.16876 334.98438 340.98126Q335.15625 340.79376 335.46875 340.79376Q335.78125 340.79376 335.9375 340.98126Q336.10938 341.16876 336.10938 341.4344Q336.10938 341.6844 335.9375 341.8719Q335.78125 342.04376 335.46875 342.04376Q335.15625 342.04376 334.98438 341.8719Q334.82812 341.6844 334.82812 341.4344ZM338.84375 343.10626L338.875 343.8094Q339.5625 342.9969 340.75 342.9969Q342.07812 342.9969 342.5625 344.0125Q342.875 343.5594 343.375 343.27814Q343.89062 342.9969 344.57812 342.9969Q346.67188 342.9969 346.70312 345.2L346.70312 349.45L345.625 349.45L345.625 345.2625Q345.625 344.59064 345.3125 344.2625Q345.0 343.91876 344.26562 343.91876Q343.65625 343.91876 343.25 344.27814Q342.85938 344.6375 342.79688 345.2469L342.79688 349.45L341.71875 349.45L341.71875 345.29376Q341.71875 343.91876 340.35938 343.91876Q339.29688 343.91876 338.90625 344.825L338.90625 349.45L337.8125 349.45L337.8125 343.10626L338.84375 343.10626ZM351.45312 349.575Q350.15625 349.575 349.34375 348.73126Q348.54688 347.8719 348.54688 346.45L348.54688 346.2625Q348.54688 345.3094 348.90625 344.575Q349.26562 343.825 349.90625 343.41876Q350.5625 342.9969 351.3125 342.9969Q352.54688 342.9969 353.23438 343.8094Q353.92188 344.6219 353.92188 346.1375L353.92188 346.59064L349.625 346.59064Q349.65625 347.52814 350.17188 348.10626Q350.70312 348.6844 351.51562 348.6844Q352.07812 348.6844 352.46875 348.45Q352.875 348.21564 353.1875 347.825L353.84375 348.34064Q353.04688 349.575 351.45312 349.575ZM351.3125 343.8875Q350.65625 343.8875 350.20312 344.3719Q349.76562 344.84064 349.67188 345.7L352.84375 345.7L352.84375 345.6219Q352.79688 344.79376 352.39062 344.34064Q352.0 343.8875 351.3125 343.8875Z" fill-rule="nonzero"/><path fill="#424242" d="M22.018763 251.92917L28.971888 249.1323L22.018763 246.35104L22.018763 244.8823L30.550013 244.8823L30.550013 246.0073L27.221888 246.0073L23.643763 245.89792L30.550013 248.71042L30.550013 249.5698L23.659388 252.36667L27.221888 252.2573L30.550013 252.2573L30.550013 253.3823L22.018763 253.3823L22.018763 251.92917ZM30.675013 240.91354Q30.675013 242.21042 29.831263 243.02292Q28.971888 243.8198 27.550013 243.8198L27.362513 243.8198Q26.409388 243.8198 25.675013 243.46042Q24.925013 243.10104 24.518763 242.46042Q24.096888 241.80417 24.096888 241.05417Q24.096888 239.8198 24.909388 239.1323Q25.721888 238.4448 27.237513 238.4448L27.690638 238.4448L27.690638 242.74167Q28.628138 242.71042 29.206263 242.1948Q29.784388 241.66354 29.784388 240.85104Q29.784388 240.28854 29.550013 239.89792Q29.315638 239.49167 28.925013 239.17917L29.440638 238.52292Q30.675013 239.3198 30.675013 240.91354ZM24.987513 241.05417Q24.987513 241.71042 25.471888 242.16354Q25.940638 242.60104 26.800013 242.6948L26.800013 239.52292L26.721888 239.52292Q25.893763 239.5698 25.440638 239.97604Q24.987513 240.36667 24.987513 241.05417ZM24.206263 236.52292L24.909388 236.49167Q24.096888 235.80417 24.096888 234.61667Q24.096888 233.28854 25.112513 232.80417Q24.659388 232.49167 24.378138 231.99167Q24.096888 231.47604 24.096888 230.78854Q24.096888 228.6948 26.300013 228.66354L30.550013 228.66354L30.550013 229.74167L26.362513 229.74167Q25.690638 229.74167 25.362513 230.05417Q25.018763 230.36667 25.018763 231.10104Q25.018763 231.71042 25.378138 232.11667Q25.737513 232.5073 26.346888 232.5698L30.550013 232.5698L30.550013 233.64792L26.393763 233.64792Q25.018763 233.64792 25.018763 235.0073Q25.018763 236.0698 25.925013 236.46042L30.550013 236.46042L30.550013 237.55417L24.206263 237.55417L24.206263 236.52292ZM27.315638 226.83542Q26.393763 226.83542 25.643763 226.47604Q24.893763 226.10104 24.503138 225.4448Q24.096888 224.78854 24.096888 223.96042Q24.096888 222.66354 24.987513 221.86667Q25.878138 221.05417 27.378138 221.05417L27.456263 221.05417Q28.378138 221.05417 29.112513 221.41354Q29.846888 221.77292 30.268763 222.42917Q30.675013 223.08542 30.675013 223.9448Q30.675013 225.22604 29.784388 226.03854Q28.878138 226.83542 27.393763 226.83542L27.315638 226.83542ZM27.456263 225.74167Q28.503138 225.74167 29.143763 225.2573Q29.784388 224.7573 29.784388 223.9448Q29.784388 223.11667 29.143763 222.6323Q28.487513 222.14792 27.315638 222.14792Q26.284388 222.14792 25.643763 222.64792Q24.987513 223.1323 24.987513 223.96042Q24.987513 224.7573 25.628138 225.2573Q26.253138 225.74167 27.456263 225.74167ZM25.175013 216.47604Q25.143763 216.72604 25.143763 217.0073Q25.143763 218.08542 26.050013 218.46042L30.550013 218.46042L30.550013 219.53854L24.206263 219.53854L24.206263 218.49167L24.940638 218.47604Q24.096888 217.9448 24.096888 216.96042Q24.096888 216.64792 24.175013 216.47604L25.175013 216.47604ZM28.956263 213.47604L24.206263 211.99167L24.206263 210.83542L31.534388 213.3823Q33.11251 213.97604 33.11251 215.2573L33.096886 215.47604L33.01876 215.86667L32.14376 215.86667L32.159386 215.58542Q32.159386 215.02292 31.940638 214.72604Q31.721888 214.41354 31.128138 214.21042L30.471888 213.97604L24.206263 216.24167L24.206263 215.05417L28.956263 213.47604ZM22.018763 200.36667L27.815638 200.36667Q29.018763 200.3823 29.800013 201.1323Q30.565638 201.8823 30.659388 203.16354L30.675013 203.47604Q30.675013 204.86667 29.925013 205.71042Q29.159388 206.53854 27.831263 206.53854L22.018763 206.53854L22.018763 205.42917L27.800013 205.42917Q28.721888 205.42917 29.237513 204.92917Q29.753138 204.41354 29.753138 203.47604Q29.753138 202.5073 29.237513 202.0073Q28.721888 201.5073 27.800013 201.5073L22.018763 201.5073L22.018763 200.36667ZM28.862513 194.85104Q28.425013 194.85104 28.190638 195.1948Q27.940638 195.52292 27.768763 196.35104Q27.596888 197.16354 27.346888 197.64792Q27.096888 198.1323 26.768763 198.36667Q26.425013 198.58542 25.956263 198.58542Q25.175013 198.58542 24.643763 197.92917Q24.096888 197.27292 24.096888 196.24167Q24.096888 195.16354 24.659388 194.5073Q25.206263 193.83542 26.065638 193.83542L26.065638 194.91354Q25.628138 194.91354 25.315638 195.30417Q24.987513 195.67917 24.987513 196.24167Q24.987513 196.83542 25.253138 197.17917Q25.503138 197.5073 25.909388 197.5073Q26.300013 197.5073 26.503138 197.1948Q26.706263 196.8823 26.893763 196.0698Q27.065638 195.2573 27.315638 194.7573Q27.565638 194.2573 27.925013 194.02292Q28.284388 193.77292 28.784388 193.77292Q29.643763 193.77292 30.159388 194.46042Q30.675013 195.1323 30.675013 196.21042Q30.675013 196.97604 30.409388 197.5698Q30.128138 198.14792 29.643763 198.47604Q29.159388 198.80417 28.596888 198.80417L28.596888 197.72604Q29.143763 197.6948 29.471888 197.28854Q29.784388 196.8823 29.784388 196.21042Q29.784388 195.60104 29.534388 195.22604Q29.284388 194.85104 28.862513 194.85104ZM30.550013 188.6323Q30.362513 188.72604 29.878138 188.78854Q30.675013 189.53854 30.675013 190.58542Q30.675013 191.52292 30.143763 192.1323Q29.612513 192.72604 28.784388 192.72604Q27.800013 192.72604 27.253138 191.97604Q26.706263 191.22604 26.706263 189.85104L26.706263 188.80417L26.206263 188.80417Q25.643763 188.80417 25.315638 189.14792Q24.971888 189.47604 24.971888 190.14792Q24.971888 190.72604 25.268763 191.11667Q25.550013 191.5073 25.971888 191.5073L25.971888 192.60104Q25.487513 192.60104 25.050013 192.27292Q24.612513 191.92917 24.362513 191.35104Q24.096888 190.77292 24.096888 190.08542Q24.096888 188.97604 24.643763 188.36667Q25.190638 187.74167 26.143763 187.71042L29.065638 187.71042Q29.940638 187.71042 30.456263 187.49167L30.550013 187.49167L30.550013 188.6323ZM29.721888 190.42917Q29.721888 189.91354 29.456263 189.46042Q29.190638 189.0073 28.768763 188.80417L27.471888 188.80417L27.471888 189.64792Q27.471888 191.64792 28.643763 191.64792Q29.143763 191.64792 29.440638 191.30417Q29.721888 190.96042 29.721888 190.42917ZM27.331263 185.80417Q25.846888 185.80417 24.971888 185.11667Q24.096888 184.42917 24.096888 183.30417Q24.096888 182.14792 24.909388 181.49167L24.206263 181.4448L24.206263 180.4448L30.393763 180.4448Q31.628138 180.4448 32.33126 181.17917Q33.05001 181.91354 33.05001 183.1323Q33.05001 183.8198 32.753136 184.47604Q32.45626 185.1323 31.956263 185.47604L31.300013 184.91354Q32.159386 184.22604 32.159386 183.21042Q32.159386 182.42917 31.706263 181.99167Q31.268763 181.53854 30.456263 181.53854L29.909388 181.53854Q30.675013 182.1948 30.675013 183.3198Q30.675013 184.42917 29.784388 185.11667Q28.878138 185.80417 27.331263 185.80417ZM27.456263 184.71042Q28.518763 184.71042 29.143763 184.27292Q29.753138 183.83542 29.753138 183.03854Q29.753138 182.02292 28.815638 181.53854L25.925013 181.53854Q25.018763 182.03854 25.018763 183.03854Q25.018763 183.8198 25.628138 184.27292Q26.237513 184.71042 27.456263 184.71042ZM30.675013 175.91354Q30.675013 177.21042 29.831263 178.02292Q28.971888 178.8198 27.550013 178.8198L27.362513 178.8198Q26.409388 178.8198 25.675013 178.46042Q24.925013 178.10104 24.518763 177.46042Q24.096888 176.80417 24.096888 176.05417Q24.096888 174.8198 24.909388 174.1323Q25.721888 173.4448 27.237513 173.4448L27.690638 173.4448L27.690638 177.74167Q28.628138 177.71042 29.206263 177.1948Q29.784388 176.66354 29.784388 175.85104Q29.784388 175.28854 29.550013 174.89792Q29.315638 174.49167 28.925013 174.17917L29.440638 173.52292Q30.675013 174.3198 30.675013 175.91354ZM24.987513 176.05417Q24.987513 176.71042 25.471888 177.16354Q25.940638 177.60104 26.800013 177.6948L26.800013 174.52292L26.721888 174.52292Q25.893763 174.5698 25.440638 174.97604Q24.987513 175.36667 24.987513 176.05417ZM27.081263 169.58542Q25.768763 169.58542 24.550013 169.24167Q23.331263 168.8823 22.331263 168.17917Q21.331263 167.47604 20.925013 166.71042L21.643763 166.49167Q22.300013 167.35104 23.643763 167.89792Q24.987513 168.4448 26.659388 168.49167L27.159388 168.5073Q29.425013 168.5073 31.081263 167.67917Q32.08126 167.17917 32.64376 166.49167L33.30001 166.71042Q32.878136 167.49167 31.846888 168.21042Q29.862513 169.58542 27.081263 169.58542ZM26.581263 163.21042L27.659388 164.2573L30.550013 164.2573L30.550013 165.3823L22.018763 165.3823L22.018763 164.2573L26.237513 164.2573L22.018763 160.46042L22.018763 159.10104L25.784388 162.46042L30.550013 158.83542L30.550013 160.17917L26.581263 163.21042ZM30.550013 157.3823L22.018763 157.3823L22.018763 154.58542Q22.018763 153.1948 22.596888 152.5073Q23.159388 151.80417 24.284388 151.80417Q24.893763 151.80417 25.362513 152.14792Q25.815638 152.47604 26.065638 153.0698Q26.253138 152.36667 26.800013 151.97604Q27.331263 151.5698 28.081263 151.5698Q29.237513 151.5698 29.893763 152.3198Q30.550013 153.05417 30.550013 154.41354L30.550013 157.3823ZM26.565638 156.2573L29.628138 156.2573L29.628138 154.39792Q29.628138 153.60104 29.221888 153.14792Q28.815638 152.6948 28.096888 152.6948Q26.565638 152.6948 26.565638 154.3823L26.565638 156.2573ZM25.659388 156.2573L25.659388 154.55417Q25.659388 153.8198 25.300013 153.3823Q24.925013 152.92917 24.284388 152.92917Q23.581263 152.92917 23.268763 153.33542Q22.940638 153.74167 22.940638 154.58542L22.940638 156.2573L25.659388 156.2573ZM27.143763 148.03854Q28.456263 148.03854 29.659388 148.3823Q30.846888 148.72604 31.862513 149.4448Q32.878136 150.14792 33.30001 150.91354L32.64376 151.14792Q31.956263 150.24167 30.503138 149.6948Q29.034388 149.14792 27.268763 149.1323L27.081263 149.1323Q25.846888 149.1323 24.784388 149.39792Q23.721888 149.64792 22.893763 150.11667Q22.050013 150.5698 21.581263 151.14792L20.925013 150.91354Q21.346888 150.14792 22.346888 149.4448Q23.346888 148.74167 24.565638 148.39792Q25.768763 148.03854 27.143763 148.03854Z" fill-rule="nonzero"/><path fill="#757575" d="M92.6125 312.8094Q92.6125 314.71564 91.95625 315.65314Q91.31563 316.575 89.925 316.575Q88.56563 316.575 87.90938 315.66876Q87.25313 314.7625 87.22188 312.95L87.22188 311.5125Q87.22188 309.6219 87.8625 308.71564Q88.51875 307.79376 89.90938 307.79376Q91.28438 307.79376 91.94063 308.6844Q92.59688 309.5594 92.6125 311.40314L92.6125 312.8094ZM91.51875 311.325Q91.51875 309.95 91.12813 309.325Q90.75313 308.6844 89.90938 308.6844Q89.08125 308.6844 88.69063 309.325Q88.31563 309.95 88.31563 311.2469L88.31563 312.98126Q88.31563 314.35626 88.70625 315.02814Q89.1125 315.6844 89.925 315.6844Q90.72188 315.6844 91.1125 315.0594Q91.50313 314.4344 91.51875 313.10626L91.51875 311.325Z" fill-rule="nonzero"/><path fill="#757575" d="M55.815624 260.90833L54.7375 260.90833L54.7375 253.68958L52.55 254.48645L52.55 253.50208L55.659374 252.3302L55.815624 252.3302L55.815624 260.90833ZM64.6125 257.2677Q64.6125 259.17395 63.95625 260.11145Q63.315624 261.03333 61.925 261.03333Q60.565624 261.03333 59.909374 260.12708Q59.253124 259.22083 59.221874 257.40833L59.221874 255.97083Q59.221874 254.0802 59.8625 253.17395Q60.51875 252.25208 61.909374 252.25208Q63.284374 252.25208 63.940624 253.1427Q64.59688 254.0177 64.6125 255.86145L64.6125 257.2677ZM63.51875 255.78333Q63.51875 254.40833 63.128124 253.78333Q62.753124 253.1427 61.909374 253.1427Q61.08125 253.1427 60.690624 253.78333Q60.315624 254.40833 60.315624 255.7052L60.315624 257.43958Q60.315624 258.81458 60.70625 259.48645Q61.1125 260.1427 61.925 260.1427Q62.721874 260.1427 63.1125 259.5177Q63.503124 258.8927 63.51875 257.56458L63.51875 255.78333ZM71.6125 257.2677Q71.6125 259.17395 70.95625 260.11145Q70.31563 261.03333 68.925 261.03333Q67.56563 261.03333 66.90938 260.12708Q66.25313 259.22083 66.22188 257.40833L66.22188 255.97083Q66.22188 254.0802 66.8625 253.17395Q67.51875 252.25208 68.90938 252.25208Q70.28438 252.25208 70.94063 253.1427Q71.59688 254.0177 71.6125 255.86145L71.6125 257.2677ZM70.51875 255.78333Q70.51875 254.40833 70.12813 253.78333Q69.75313 253.1427 68.90938 253.1427Q68.08125 253.1427 67.69063 253.78333Q67.31563 254.40833 67.31563 255.7052L67.31563 257.43958Q67.31563 258.81458 67.70625 259.48645Q68.1125 260.1427 68.925 260.1427Q69.72188 260.1427 70.1125 259.5177Q70.50313 258.8927 70.51875 257.56458L70.51875 255.78333ZM78.6125 257.2677Q78.6125 259.17395 77.95625 260.11145Q77.31563 261.03333 75.925 261.03333Q74.56563 261.03333 73.90938 260.12708Q73.25313 259.22083 73.22188 257.40833L73.22188 255.97083Q73.22188 254.0802 73.8625 253.17395Q74.51875 252.25208 75.90938 252.25208Q77.28438 252.25208 77.94063 253.1427Q78.59688 254.0177 78.6125 255.86145L78.6125 257.2677ZM77.51875 255.78333Q77.51875 254.40833 77.12813 253.78333Q76.75313 253.1427 75.90938 253.1427Q75.08125 253.1427 74.69063 253.78333Q74.31563 254.40833 74.31563 255.7052L74.31563 257.43958Q74.31563 258.81458 74.70625 259.48645Q75.1125 260.1427 75.925 260.1427Q76.72188 260.1427 77.1125 259.5177Q77.50313 258.8927 77.51875 257.56458L77.51875 255.78333ZM85.6125 257.2677Q85.6125 259.17395 84.95625 260.11145Q84.31563 261.03333 82.925 261.03333Q81.56563 261.03333 80.90938 260.12708Q80.25313 259.22083 80.22188 257.40833L80.22188 255.97083Q80.22188 254.0802 80.8625 253.17395Q81.51875 252.25208 82.90938 252.25208Q84.28438 252.25208 84.94063 253.1427Q85.59688 254.0177 85.6125 255.86145L85.6125 257.2677ZM84.51875 255.78333Q84.51875 254.40833 84.12813 253.78333Q83.75313 253.1427 82.90938 253.1427Q82.08125 253.1427 81.69063 253.78333Q81.31563 254.40833 81.31563 255.7052L81.31563 257.43958Q81.31563 258.81458 81.70625 259.48645Q82.1125 260.1427 82.925 260.1427Q83.72188 260.1427 84.1125 259.5177Q84.50313 258.8927 84.51875 257.56458L84.51875 255.78333ZM92.6125 257.2677Q92.6125 259.17395 91.95625 260.11145Q91.31563 261.03333 89.925 261.03333Q88.56563 261.03333 87.90938 260.12708Q87.25313 259.22083 87.22188 257.40833L87.22188 255.97083Q87.22188 254.0802 87.8625 253.17395Q88.51875 252.25208 89.90938 252.25208Q91.28438 252.25208 91.94063 253.1427Q92.59688 254.0177 92.6125 255.86145L92.6125 257.2677ZM91.51875 255.78333Q91.51875 254.40833 91.12813 253.78333Q90.75313 253.1427 89.90938 253.1427Q89.08125 253.1427 88.69063 253.78333Q88.31563 254.40833 88.31563 255.7052L88.31563 257.43958Q88.31563 258.81458 88.70625 259.48645Q89.1125 260.1427 89.925 260.1427Q90.72188 260.1427 91.1125 259.5177Q91.50313 258.8927 91.51875 257.56458L91.51875 255.78333Z" fill-rule="nonzero"/><path fill="#757575" d="M57.846874 205.36667L52.253124 205.36667L52.253124 204.58542L55.20625 201.30417Q55.8625 200.55417 56.1125 200.10104Q56.3625 199.6323 56.3625 199.1323Q56.3625 198.46042 55.95625 198.03854Q55.565624 197.60104 54.878124 197.60104Q54.08125 197.60104 53.628124 198.0698Q53.175 198.52292 53.175 199.35104L52.096874 199.35104Q52.096874 198.16354 52.846874 197.4448Q53.6125 196.71042 54.878124 196.71042Q56.08125 196.71042 56.76875 197.33542Q57.45625 197.96042 57.45625 199.0073Q57.45625 200.2573 55.846874 202.0073L53.565624 204.47604L57.846874 204.47604L57.846874 205.36667ZM64.6125 201.72604Q64.6125 203.6323 63.95625 204.5698Q63.315624 205.49167 61.925 205.49167Q60.565624 205.49167 59.909374 204.58542Q59.253124 203.67917 59.221874 201.86667L59.221874 200.42917Q59.221874 198.53854 59.8625 197.6323Q60.51875 196.71042 61.909374 196.71042Q63.284374 196.71042 63.940624 197.60104Q64.59688 198.47604 64.6125 200.3198L64.6125 201.72604ZM63.51875 200.24167Q63.51875 198.86667 63.128124 198.24167Q62.753124 197.60104 61.909374 197.60104Q61.08125 197.60104 60.690624 198.24167Q60.315624 198.86667 60.315624 200.16354L60.315624 201.89792Q60.315624 203.27292 60.70625 203.9448Q61.1125 204.60104 61.925 204.60104Q62.721874 204.60104 63.1125 203.97604Q63.503124 203.35104 63.51875 202.02292L63.51875 200.24167ZM71.6125 201.72604Q71.6125 203.6323 70.95625 204.5698Q70.31563 205.49167 68.925 205.49167Q67.56563 205.49167 66.90938 204.58542Q66.25313 203.67917 66.22188 201.86667L66.22188 200.42917Q66.22188 198.53854 66.8625 197.6323Q67.51875 196.71042 68.90938 196.71042Q70.28438 196.71042 70.94063 197.60104Q71.59688 198.47604 71.6125 200.3198L71.6125 201.72604ZM70.51875 200.24167Q70.51875 198.86667 70.12813 198.24167Q69.75313 197.60104 68.90938 197.60104Q68.08125 197.60104 67.69063 198.24167Q67.31563 198.86667 67.31563 200.16354L67.31563 201.89792Q67.31563 203.27292 67.70625 203.9448Q68.1125 204.60104 68.925 204.60104Q69.72188 204.60104 70.1125 203.97604Q70.50313 203.35104 70.51875 202.02292L70.51875 200.24167ZM78.6125 201.72604Q78.6125 203.6323 77.95625 204.5698Q77.31563 205.49167 75.925 205.49167Q74.56563 205.49167 73.90938 204.58542Q73.25313 203.67917 73.22188 201.86667L73.22188 200.42917Q73.22188 198.53854 73.8625 197.6323Q74.51875 196.71042 75.90938 196.71042Q77.28438 196.71042 77.94063 197.60104Q78.59688 198.47604 78.6125 200.3198L78.6125 201.72604ZM77.51875 200.24167Q77.51875 198.86667 77.12813 198.24167Q76.75313 197.60104 75.90938 197.60104Q75.08125 197.60104 74.69063 198.24167Q74.31563 198.86667 74.31563 200.16354L74.31563 201.89792Q74.31563 203.27292 74.70625 203.9448Q75.1125 204.60104 75.925 204.60104Q76.72188 204.60104 77.1125 203.97604Q77.50313 203.35104 77.51875 202.02292L77.51875 200.24167ZM85.6125 201.72604Q85.6125 203.6323 84.95625 204.5698Q84.31563 205.49167 82.925 205.49167Q81.56563 205.49167 80.90938 204.58542Q80.25313 203.67917 80.22188 201.86667L80.22188 200.42917Q80.22188 198.53854 80.8625 197.6323Q81.51875 196.71042 82.90938 196.71042Q84.28438 196.71042 84.94063 197.60104Q85.59688 198.47604 85.6125 200.3198L85.6125 201.72604ZM84.51875 200.24167Q84.51875 198.86667 84.12813 198.24167Q83.75313 197.60104 82.90938 197.60104Q82.08125 197.60104 81.69063 198.24167Q81.31563 198.86667 81.31563 200.16354L81.31563 201.89792Q81.31563 203.27292 81.70625 203.9448Q82.1125 204.60104 82.925 204.60104Q83.72188 204.60104 84.1125 203.97604Q84.50313 203.35104 84.51875 202.02292L84.51875 200.24167ZM92.6125 201.72604Q92.6125 203.6323 91.95625 204.5698Q91.31563 205.49167 89.925 205.49167Q88.56563 205.49167 87.90938 204.58542Q87.25313 203.67917 87.22188 201.86667L87.22188 200.42917Q87.22188 198.53854 87.8625 197.6323Q88.51875 196.71042 89.90938 196.71042Q91.28438 196.71042 91.94063 197.60104Q92.59688 198.47604 92.6125 200.3198L92.6125 201.72604ZM91.51875 200.24167Q91.51875 198.86667 91.12813 198.24167Q90.75313 197.60104 89.90938 197.60104Q89.08125 197.60104 88.69063 198.24167Q88.31563 198.86667 88.31563 200.16354L88.31563 201.89792Q88.31563 203.27292 88.70625 203.9448Q89.1125 204.60104 89.925 204.60104Q90.72188 204.60104 91.1125 203.97604Q91.50313 203.35104 91.51875 202.02292L91.51875 200.24167Z" fill-rule="nonzero"/><path fill="#757575" d="M53.83125 145.02812L54.64375 145.02812Q55.425 145.0125 55.8625 144.62187Q56.3 144.23125 56.3 143.55937Q56.3 142.05937 54.8 142.05937Q54.096874 142.05937 53.675 142.46562Q53.26875 142.87187 53.26875 143.52812L52.175 143.52812Q52.175 142.5125 52.909374 141.84062Q53.659374 141.16875 54.8 141.16875Q56.003124 141.16875 56.690624 141.80937Q57.378124 142.45 57.378124 143.59062Q57.378124 144.15312 57.01875 144.66875Q56.659374 145.18437 56.034374 145.45Q56.7375 145.66875 57.1125 146.18437Q57.503124 146.7 57.503124 147.45Q57.503124 148.59062 56.753124 149.27812Q56.003124 149.95 54.8 149.95Q53.6125 149.95 52.846874 149.29375Q52.096874 148.6375 52.096874 147.575L53.190624 147.575Q53.190624 148.24687 53.628124 148.65312Q54.065624 149.05937 54.815624 149.05937Q55.596874 149.05937 56.003124 148.65312Q56.425 148.23125 56.425 147.46562Q56.425 146.73125 55.971874 146.34062Q55.51875 145.93437 54.64375 145.91875L53.83125 145.91875L53.83125 145.02812ZM64.6125 146.18437Q64.6125 148.09062 63.95625 149.02812Q63.315624 149.95 61.925 149.95Q60.565624 149.95 59.909374 149.04375Q59.253124 148.1375 59.221874 146.325L59.221874 144.8875Q59.221874 142.99687 59.8625 142.09062Q60.51875 141.16875 61.909374 141.16875Q63.284374 141.16875 63.940624 142.05937Q64.59688 142.93437 64.6125 144.77812L64.6125 146.18437ZM63.51875 144.7Q63.51875 143.325 63.128124 142.7Q62.753124 142.05937 61.909374 142.05937Q61.08125 142.05937 60.690624 142.7Q60.315624 143.325 60.315624 144.62187L60.315624 146.35625Q60.315624 147.73125 60.70625 148.40312Q61.1125 149.05937 61.925 149.05937Q62.721874 149.05937 63.1125 148.43437Q63.503124 147.80937 63.51875 146.48125L63.51875 144.7ZM71.6125 146.18437Q71.6125 148.09062 70.95625 149.02812Q70.31563 149.95 68.925 149.95Q67.56563 149.95 66.90938 149.04375Q66.25313 148.1375 66.22188 146.325L66.22188 144.8875Q66.22188 142.99687 66.8625 142.09062Q67.51875 141.16875 68.90938 141.16875Q70.28438 141.16875 70.94063 142.05937Q71.59688 142.93437 71.6125 144.77812L71.6125 146.18437ZM70.51875 144.7Q70.51875 143.325 70.12813 142.7Q69.75313 142.05937 68.90938 142.05937Q68.08125 142.05937 67.69063 142.7Q67.31563 143.325 67.31563 144.62187L67.31563 146.35625Q67.31563 147.73125 67.70625 148.40312Q68.1125 149.05937 68.925 149.05937Q69.72188 149.05937 70.1125 148.43437Q70.50313 147.80937 70.51875 146.48125L70.51875 144.7ZM78.6125 146.18437Q78.6125 148.09062 77.95625 149.02812Q77.31563 149.95 75.925 149.95Q74.56563 149.95 73.90938 149.04375Q73.25313 148.1375 73.22188 146.325L73.22188 144.8875Q73.22188 142.99687 73.8625 142.09062Q74.51875 141.16875 75.90938 141.16875Q77.28438 141.16875 77.94063 142.05937Q78.59688 142.93437 78.6125 144.77812L78.6125 146.18437ZM77.51875 144.7Q77.51875 143.325 77.12813 142.7Q76.75313 142.05937 75.90938 142.05937Q75.08125 142.05937 74.69063 142.7Q74.31563 143.325 74.31563 144.62187L74.31563 146.35625Q74.31563 147.73125 74.70625 148.40312Q75.1125 149.05937 75.925 149.05937Q76.72188 149.05937 77.1125 148.43437Q77.50313 147.80937 77.51875 146.48125L77.51875 144.7ZM85.6125 146.18437Q85.6125 148.09062 84.95625 149.02812Q84.31563 149.95 82.925 149.95Q81.56563 149.95 80.90938 149.04375Q80.25313 148.1375 80.22188 146.325L80.22188 144.8875Q80.22188 142.99687 80.8625 142.09062Q81.51875 141.16875 82.90938 141.16875Q84.28438 141.16875 84.94063 142.05937Q85.59688 142.93437 85.6125 144.77812L85.6125 146.18437ZM84.51875 144.7Q84.51875 143.325 84.12813 142.7Q83.75313 142.05937 82.90938 142.05937Q82.08125 142.05937 81.69063 142.7Q81.31563 143.325 81.31563 144.62187L81.31563 146.35625Q81.31563 147.73125 81.70625 148.40312Q82.1125 149.05937 82.925 149.05937Q83.72188 149.05937 84.1125 148.43437Q84.50313 147.80937 84.51875 146.48125L84.51875 144.7ZM92.6125 146.18437Q92.6125 148.09062 91.95625 149.02812Q91.31563 149.95 89.925 149.95Q88.56563 149.95 87.90938 149.04375Q87.25313 148.1375 87.22188 146.325L87.22188 144.8875Q87.22188 142.99687 87.8625 142.09062Q88.51875 141.16875 89.90938 141.16875Q91.28438 141.16875 91.94063 142.05937Q92.59688 142.93437 92.6125 144.77812L92.6125 146.18437ZM91.51875 144.7Q91.51875 143.325 91.12813 142.7Q90.75313 142.05937 89.90938 142.05937Q89.08125 142.05937 88.69063 142.7Q88.31563 143.325 88.31563 144.62187L88.31563 146.35625Q88.31563 147.73125 88.70625 148.40312Q89.1125 149.05937 89.925 149.05937Q90.72188 149.05937 91.1125 148.43437Q91.50313 147.80937 91.51875 146.48125L91.51875 144.7Z" fill-rule="nonzero"/><path fill="#757575" d="M56.83125 91.42396L58.01875 91.42396L58.01875 92.29896L56.83125 92.29896L56.83125 94.28333L55.753124 94.28333L55.753124 92.29896L51.8625 92.29896L51.8625 91.65833L55.675 85.75208L56.83125 85.75208L56.83125 91.42396ZM53.096874 91.42396L55.753124 91.42396L55.753124 87.23646L55.6125 87.47083L53.096874 91.42396ZM64.6125 90.64271Q64.6125 92.54896 63.95625 93.48646Q63.315624 94.40833 61.925 94.40833Q60.565624 94.40833 59.909374 93.50208Q59.253124 92.59583 59.221874 90.78333L59.221874 89.34583Q59.221874 87.45521 59.8625 86.54896Q60.51875 85.62708 61.909374 85.62708Q63.284374 85.62708 63.940624 86.51771Q64.59688 87.39271 64.6125 89.23646L64.6125 90.64271ZM63.51875 89.15833Q63.51875 87.78333 63.128124 87.15833Q62.753124 86.51771 61.909374 86.51771Q61.08125 86.51771 60.690624 87.15833Q60.315624 87.78333 60.315624 89.08021L60.315624 90.81458Q60.315624 92.18958 60.70625 92.86146Q61.1125 93.51771 61.925 93.51771Q62.721874 93.51771 63.1125 92.89271Q63.503124 92.26771 63.51875 90.93958L63.51875 89.15833ZM71.6125 90.64271Q71.6125 92.54896 70.95625 93.48646Q70.31563 94.40833 68.925 94.40833Q67.56563 94.40833 66.90938 93.50208Q66.25313 92.59583 66.22188 90.78333L66.22188 89.34583Q66.22188 87.45521 66.8625 86.54896Q67.51875 85.62708 68.90938 85.62708Q70.28438 85.62708 70.94063 86.51771Q71.59688 87.39271 71.6125 89.23646L71.6125 90.64271ZM70.51875 89.15833Q70.51875 87.78333 70.12813 87.15833Q69.75313 86.51771 68.90938 86.51771Q68.08125 86.51771 67.69063 87.15833Q67.31563 87.78333 67.31563 89.08021L67.31563 90.81458Q67.31563 92.18958 67.70625 92.86146Q68.1125 93.51771 68.925 93.51771Q69.72188 93.51771 70.1125 92.89271Q70.50313 92.26771 70.51875 90.93958L70.51875 89.15833ZM78.6125 90.64271Q78.6125 92.54896 77.95625 93.48646Q77.31563 94.40833 75.925 94.40833Q74.56563 94.40833 73.90938 93.50208Q73.25313 92.59583 73.22188 90.78333L73.22188 89.34583Q73.22188 87.45521 73.8625 86.54896Q74.51875 85.62708 75.90938 85.62708Q77.28438 85.62708 77.94063 86.51771Q78.59688 87.39271 78.6125 89.23646L78.6125 90.64271ZM77.51875 89.15833Q77.51875 87.78333 77.12813 87.15833Q76.75313 86.51771 75.90938 86.51771Q75.08125 86.51771 74.69063 87.15833Q74.31563 87.78333 74.31563 89.08021L74.31563 90.81458Q74.31563 92.18958 74.70625 92.86146Q75.1125 93.51771 75.925 93.51771Q76.72188 93.51771 77.1125 92.89271Q77.50313 92.26771 77.51875 90.93958L77.51875 89.15833ZM85.6125 90.64271Q85.6125 92.54896 84.95625 93.48646Q84.31563 94.40833 82.925 94.40833Q81.56563 94.40833 80.90938 93.50208Q80.25313 92.59583 80.22188 90.78333L80.22188 89.34583Q80.22188 87.45521 80.8625 86.54896Q81.51875 85.62708 82.90938 85.62708Q84.28438 85.62708 84.94063 86.51771Q85.59688 87.39271 85.6125 89.23646L85.6125 90.64271ZM84.51875 89.15833Q84.51875 87.78333 84.12813 87.15833Q83.75313 86.51771 82.90938 86.51771Q82.08125 86.51771 81.69063 87.15833Q81.31563 87.78333 81.31563 89.08021L81.31563 90.81458Q81.31563 92.18958 81.70625 92.86146Q82.1125 93.51771 82.925 93.51771Q83.72188 93.51771 84.1125 92.89271Q84.50313 92.26771 84.51875 90.93958L84.51875 89.15833ZM92.6125 90.64271Q92.6125 92.54896 91.95625 93.48646Q91.31563 94.40833 89.925 94.40833Q88.56563 94.40833 87.90938 93.50208Q87.25313 92.59583 87.22188 90.78333L87.22188 89.34583Q87.22188 87.45521 87.8625 86.54896Q88.51875 85.62708 89.90938 85.62708Q91.28438 85.62708 91.94063 86.51771Q92.59688 87.39271 92.6125 89.23646L92.6125 90.64271ZM91.51875 89.15833Q91.51875 87.78333 91.12813 87.15833Q90.75313 86.51771 89.90938 86.51771Q89.08125 86.51771 88.69063 87.15833Q88.31563 87.78333 88.31563 89.08021L88.31563 90.81458Q88.31563 92.18958 88.70625 92.86146Q89.1125 93.51771 89.925 93.51771Q90.72188 93.51771 91.1125 92.89271Q91.50313 92.26771 91.51875 90.93958L91.51875 89.15833Z" fill-rule="nonzero"/><path stroke="#4285f4" stroke-width="4.0" stroke-linecap="butt" d="M231.5 62.416668L243.5 62.416668" fill-rule="nonzero"/><path fill="#757575" d="M256.0625 58.385414L257.20312 58.385414L257.20312 64.43229Q257.20312 65.65104 256.45312 66.354164Q255.71875 67.041664 254.5 67.041664Q253.23438 67.041664 252.51562 66.385414Q251.8125 65.729164 251.8125 64.55729L252.9375 64.55729Q252.9375 65.291664 253.32812 65.71354Q253.73438 66.11979 254.5 66.11979Q255.20312 66.11979 255.625 65.68229Q256.0625 65.229164 256.0625 64.447914L256.0625 58.385414ZM263.23438 66.916664Q263.14062 66.729164 263.07812 66.24479Q262.32812 67.041664 261.28125 67.041664Q260.34375 67.041664 259.73438 66.510414Q259.14062 65.979164 259.14062 65.15104Q259.14062 64.166664 259.89062 63.61979Q260.64062 63.072914 262.01562 63.072914L263.0625 63.072914L263.0625 62.572914Q263.0625 62.010414 262.71875 61.68229Q262.39062 61.33854 261.71875 61.33854Q261.14062 61.33854 260.75 61.635414Q260.35938 61.916664 260.35938 62.33854L259.26562 62.33854Q259.26562 61.854164 259.59375 61.416664Q259.9375 60.979164 260.51562 60.729164Q261.09375 60.46354 261.78125 60.46354Q262.89062 60.46354 263.5 61.010414Q264.125 61.55729 264.15625 62.510414L264.15625 65.43229Q264.15625 66.30729 264.375 66.822914L264.375 66.916664L263.23438 66.916664ZM261.4375 66.08854Q261.95312 66.08854 262.40625 65.822914Q262.85938 65.55729 263.0625 65.135414L263.0625 63.83854L262.21875 63.83854Q260.21875 63.83854 260.21875 65.010414Q260.21875 65.510414 260.5625 65.80729Q260.90625 66.08854 261.4375 66.08854ZM268.40625 65.447914L269.98438 60.572914L271.09375 60.572914L268.8125 66.916664L267.98438 66.916664L265.6875 60.572914L266.79688 60.572914L268.40625 65.447914ZM276.23438 66.916664Q276.14062 66.729164 276.07812 66.24479Q275.32812 67.041664 274.28125 67.041664Q273.34375 67.041664 272.73438 66.510414Q272.14062 65.979164 272.14062 65.15104Q272.14062 64.166664 272.89062 63.61979Q273.64062 63.072914 275.01562 63.072914L276.0625 63.072914L276.0625 62.572914Q276.0625 62.010414 275.71875 61.68229Q275.39062 61.33854 274.71875 61.33854Q274.14062 61.33854 273.75 61.635414Q273.35938 61.916664 273.35938 62.33854L272.26562 62.33854Q272.26562 61.854164 272.59375 61.416664Q272.9375 60.979164 273.51562 60.729164Q274.09375 60.46354 274.78125 60.46354Q275.89062 60.46354 276.5 61.010414Q277.125 61.55729 277.15625 62.510414L277.15625 65.43229Q277.15625 66.30729 277.375 66.822914L277.375 66.916664L276.23438 66.916664ZM274.4375 66.08854Q274.95312 66.08854 275.40625 65.822914Q275.85938 65.55729 276.0625 65.135414L276.0625 63.83854L275.21875 63.83854Q273.21875 63.83854 273.21875 65.010414Q273.21875 65.510414 273.5625 65.80729Q273.90625 66.08854 274.4375 66.08854ZM287.39062 60.604164Q287.39062 61.24479 287.04688 61.74479Q286.70312 62.24479 286.14062 62.52604Q286.79688 62.80729 287.1875 63.36979Q287.57812 63.916664 287.57812 64.61979Q287.57812 65.71354 286.82812 66.385414Q286.09375 67.041664 284.875 67.041664Q283.64062 67.041664 282.89062 66.385414Q282.15625 65.71354 282.15625 64.61979Q282.15625 63.916664 282.53125 63.36979Q282.90625 62.80729 283.57812 62.52604Q283.01562 62.24479 282.6875 61.74479Q282.35938 61.24479 282.35938 60.604164Q282.35938 59.52604 283.04688 58.90104Q283.73438 58.260414 284.875 58.260414Q286.0 58.260414 286.6875 58.90104Q287.39062 59.52604 287.39062 60.604164ZM286.5 64.58854Q286.5 63.86979 286.04688 63.43229Q285.59375 62.979164 284.85938 62.979164Q284.125 62.979164 283.67188 63.43229Q283.23438 63.86979 283.23438 64.604164Q283.23438 65.322914 283.67188 65.74479Q284.10938 66.15104 284.875 66.15104Q285.625 66.15104 286.0625 65.729164Q286.5 65.30729 286.5 64.58854ZM284.875 59.15104Q284.23438 59.15104 283.82812 59.55729Q283.4375 59.947914 283.4375 60.635414Q283.4375 61.27604 283.82812 61.68229Q284.21875 62.08854 284.85938 62.08854Q285.51562 62.08854 285.90625 61.68229Q286.29688 61.27604 286.29688 60.635414Q286.29688 59.979164 285.89062 59.572914Q285.48438 59.15104 284.875 59.15104Z" fill-rule="nonzero"/><path stroke="#db4437" stroke-width="4.0" stroke-linecap="butt" d="M304.5 62.416668L316.5 62.416668" fill-rule="nonzero"/><path fill="#757575" d="M329.0625 58.385414L330.20312 58.385414L330.20312 64.43229Q330.20312 65.65104 329.45312 66.354164Q328.71875 67.041664 327.5 67.041664Q326.23438 67.041664 325.51562 66.385414Q324.8125 65.729164 324.8125 64.55729L325.9375 64.55729Q325.9375 65.291664 326.32812 65.71354Q326.73438 66.11979 327.5 66.11979Q328.20312 66.11979 328.625 65.68229Q329.0625 65.229164 329.0625 64.447914L329.0625 58.385414ZM336.23438 66.916664Q336.14062 66.729164 336.07812 66.24479Q335.32812 67.041664 334.28125 67.041664Q333.34375 67.041664 332.73438 66.510414Q332.14062 65.979164 332.14062 65.15104Q332.14062 64.166664 332.89062 63.61979Q333.64062 63.072914 335.01562 63.072914L336.0625 63.072914L336.0625 62.572914Q336.0625 62.010414 335.71875 61.68229Q335.39062 61.33854 334.71875 61.33854Q334.14062 61.33854 333.75 61.635414Q333.35938 61.916664 333.35938 62.33854L332.26562 62.33854Q332.26562 61.854164 332.59375 61.416664Q332.9375 60.979164 333.51562 60.729164Q334.09375 60.46354 334.78125 60.46354Q335.89062 60.46354 336.5 61.010414Q337.125 61.55729 337.15625 62.510414L337.15625 65.43229Q337.15625 66.30729 337.375 66.822914L337.375 66.916664L336.23438 66.916664ZM334.4375 66.08854Q334.95312 66.08854 335.40625 65.822914Q335.85938 65.55729 336.0625 65.135414L336.0625 63.83854L335.21875 63.83854Q333.21875 63.83854 333.21875 65.010414Q333.21875 65.510414 333.5625 65.80729Q333.90625 66.08854 334.4375 66.08854ZM341.40625 65.447914L342.98438 60.572914L344.09375 60.572914L341.8125 66.916664L340.98438 66.916664L338.6875 60.572914L339.79688 60.572914L341.40625 65.447914ZM349.23438 66.916664Q349.14062 66.729164 349.07812 66.24479Q348.32812 67.041664 347.28125 67.041664Q346.34375 67.041664 345.73438 66.510414Q345.14062 65.979164 345.14062 65.15104Q345.14062 64.166664 345.89062 63.61979Q346.64062 63.072914 348.01562 63.072914L349.0625 63.072914L349.0625 62.572914Q349.0625 62.010414 348.71875 61.68229Q348.39062 61.33854 347.71875 61.33854Q347.14062 61.33854 346.75 61.635414Q346.35938 61.916664 346.35938 62.33854L345.26562 62.33854Q345.26562 61.854164 345.59375 61.416664Q345.9375 60.979164 346.51562 60.729164Q347.09375 60.46354 347.78125 60.46354Q348.89062 60.46354 349.5 61.010414Q350.125 61.55729 350.15625 62.510414L350.15625 65.43229Q350.15625 66.30729 350.375 66.822914L350.375 66.916664L349.23438 66.916664ZM347.4375 66.08854Q347.95312 66.08854 348.40625 65.822914Q348.85938 65.55729 349.0625 65.135414L349.0625 63.83854L348.21875 63.83854Q346.21875 63.83854 346.21875 65.010414Q346.21875 65.510414 346.5625 65.80729Q346.90625 66.08854 347.4375 66.08854ZM358.76562 66.916664L357.6875 66.916664L357.6875 59.697914L355.5 60.49479L355.5 59.510414L358.60938 58.33854L358.76562 58.33854L358.76562 66.916664ZM365.76562 66.916664L364.6875 66.916664L364.6875 59.697914L362.5 60.49479L362.5 59.510414L365.60938 58.33854L365.76562 58.33854L365.76562 66.916664Z" fill-rule="nonzero"/><path fill="#757575" d="M25.409374 31.8L22.08125 31.8L22.08125 37.55L20.190624 37.55L20.190624 23.33125L24.89375 23.33125Q27.3 23.33125 28.596874 24.425Q29.89375 25.51875 29.89375 27.6125Q29.89375 28.940624 29.175 29.925Q28.45625 30.909374 27.175 31.39375L30.51875 37.425L30.51875 37.55L28.503124 37.55L25.409374 31.8ZM22.08125 30.26875L24.95625 30.26875Q26.346874 30.26875 27.175 29.55Q28.003124 28.815624 28.003124 27.6125Q28.003124 26.284374 27.20625 25.58125Q26.425 24.878124 24.940624 24.878124L22.08125 24.878124L22.08125 30.26875ZM36.39375 31.20625Q33.971874 30.51875 32.878124 29.51875Q31.784374 28.503124 31.784374 27.01875Q31.784374 25.33125 33.128124 24.2375Q34.471874 23.128124 36.6125 23.128124Q38.08125 23.128124 39.221874 23.70625Q40.378124 24.26875 41.003124 25.26875Q41.628124 26.253124 41.628124 27.440624L39.753124 27.440624Q39.753124 26.159374 38.925 25.425Q38.1125 24.675 36.6125 24.675Q35.221874 24.675 34.440624 25.284374Q33.675 25.89375 33.675 26.9875Q33.675 27.846874 34.409374 28.45625Q35.14375 29.05 36.909374 29.55Q38.690624 30.05 39.690624 30.659374Q40.690624 31.253124 41.175 32.05Q41.659374 32.846874 41.659374 33.940624Q41.659374 35.659374 40.315624 36.70625Q38.971874 37.753124 36.70625 37.753124Q35.253124 37.753124 33.971874 37.190624Q32.70625 36.628124 32.01875 35.659374Q31.33125 34.675 31.33125 33.425L33.221874 33.425Q33.221874 34.721874 34.175 35.471874Q35.128124 36.20625 36.70625 36.20625Q38.190624 36.20625 38.9875 35.6125Q39.784374 35.003124 39.784374 33.95625Q39.784374 32.909374 39.05 32.346874Q38.315624 31.76875 36.39375 31.20625ZM48.39375 31.20625Q45.971874 30.51875 44.878124 29.51875Q43.784374 28.503124 43.784374 27.01875Q43.784374 25.33125 45.128124 24.2375Q46.471874 23.128124 48.6125 23.128124Q50.08125 23.128124 51.221874 23.70625Q52.378124 24.26875 53.003124 25.26875Q53.628124 26.253124 53.628124 27.440624L51.753124 27.440624Q51.753124 26.159374 50.925 25.425Q50.1125 24.675 48.6125 24.675Q47.221874 24.675 46.440624 25.284374Q45.675 25.89375 45.675 26.9875Q45.675 27.846874 46.409374 28.45625Q47.14375 29.05 48.909374 29.55Q50.690624 30.05 51.690624 30.659374Q52.690624 31.253124 53.175 32.05Q53.659374 32.846874 53.659374 33.940624Q53.659374 35.659374 52.315624 36.70625Q50.971874 37.753124 48.70625 37.753124Q47.253124 37.753124 45.971874 37.190624Q44.70625 36.628124 44.01875 35.659374Q43.33125 34.675 43.33125 33.425L45.221874 33.425Q45.221874 34.721874 46.175 35.471874Q47.128124 36.20625 48.70625 36.20625Q50.190624 36.20625 50.9875 35.6125Q51.784374 35.003124 51.784374 33.95625Q51.784374 32.909374 51.05 32.346874Q50.315624 31.76875 48.39375 31.20625Z" fill-rule="nonzero"/></svg>