<svg version="1.1" viewBox="0.0 0.0 600.0 371.0" fill="none" stroke="none" stroke-linecap="square" stroke-miterlimit="10" width="600" height="371" xmlns:xlink="http://www.w3.org/1999/xlink" xmlns="http://www.w3.org/2000/svg"><path fill="#ffffff" d="M0 0L600.0 0L600.0 371.0L0 371.0L0 0Z" fill-rule="nonzero"/><path stroke="#333333" stroke-width="1.0" stroke-linecap="butt" d="M99.5 311.5L581.5 311.5" fill-rule="nonzero"/><path stroke="#cccccc" stroke-width="1.0" stroke-linecap="butt" d="M99.5 256.5L581.5 256.5" fill-rule="nonzero"/><path stroke="#cccccc" stroke-width="1.0" stroke-linecap="butt" d="M99.5 200.5L581.5 200.5" fill-rule="nonzero"/><path stroke="#cccccc" stroke-width="1.0" stroke-linecap="butt" d="M99.5 145.5L581.5 145.5" fill-rule="nonzero"/><path stroke="#cccccc" stroke-width="1.0" stroke-linecap="butt" d="M99.5 89.5L581.5 89.5" fill-rule="nonzero"/><clipPath id="id_0"><path d="M99.55 89.78333L581.45 89.78333L581.45 311.95L99.55 311.95L99.55 89.78333Z" clip-rule="nonzero"/></clipPath><path stroke="#4285f4" stroke-width="2.0" stroke-linecap="butt" clip-path="url(#id_0)" d="M104.369 298.41782C104.369 298.41782 110.794334 287.5398 114.007 281.2088C117.219666 274.87778 120.432335 263.89462 123.645 260.43176C126.857666 256.96893 130.07033 260.43176 133.283 260.43176C136.49567 260.43176 139.70833 260.43176 142.921 260.43176C146.13367 260.43176 149.34633 260.43176 152.559 260.43176C155.77167 260.43176 158.98433 260.43176 162.197 260.43176C165.40967 260.43176 168.62233 260.43176 171.835 260.43176C175.04767 260.43176 178.26033 260.43176 181.473 260.43176C184.68567 260.43176 187.89833 260.43176 191.111 260.43176C194.32367 260.43176 197.53633 260.43176 200.749 260.43176C203.96167 260.43176 207.17433 260.43176 210.387 260.43176C213.59967 260.43176 216.81233 260.43176 220.025 260.43176C223.23767 260.43176 226.45033 262.81415 229.663 260.43176C232.87567 258.0494 236.08833 253.28467 239.301 246.13757C242.51367 238.99046 245.72633 224.69626 248.939 217.54916C252.15167 210.40205 255.36433 210.40205 258.577 203.25496C261.78967 196.10785 265.00232 181.81366 268.215 174.66655C271.42767 167.51945 274.64032 167.51945 277.853 160.37234C281.06567 153.22525 284.27832 141.31342 287.491 131.78394C290.70367 122.25447 293.91632 109.57209 297.129 103.19553C300.34167 96.818985 303.55432 95.13644 306.767 93.52462C309.97968 91.9128 313.19232 93.52462 316.405 93.52462C319.61768 93.52462 322.83032 93.52462 326.043 93.52462C329.25568 93.52462 332.46832 93.52462 335.681 93.52462C338.89368 93.52462 342.10632 93.52462 345.319 93.52462C348.53168 93.52462 351.74432 93.52462 354.957 93.52462C358.16968 93.52462 361.38232 93.52462 364.595 93.52462C367.80768 93.52462 371.02032 93.52462 374.233 93.52462C377.44568 93.52462 380.65833 93.52462 383.871 93.52462C387.08368 93.52462 390.29633 93.52462 393.509 93.52462C396.72168 93.52462 399.93433 93.52462 403.147 93.52462C406.35968 93.52462 409.57233 93.52462 412.785 93.52462C415.99768 93.52462 419.21033 93.61941 422.423 93.52462C425.63568 93.42983 428.84833 93.05067 432.061 92.95587C435.27368 92.861084 438.48633 92.95587 441.699 92.95587C444.91165 92.95587 448.12433 92.95587 451.337 92.95587C454.54965 92.95587 457.76233 92.95587 460.975 92.95587C464.18765 92.95587 467.40033 92.95587 470.613 92.95587C473.82565 92.95587 477.03833 92.95587 480.251 92.95587C483.46365 92.95587 486.67633 92.95587 489.889 92.95587C493.10165 92.95587 496.31433 92.95587 499.527 92.95587C502.73965 92.95587 505.95233 92.95587 509.165 92.95587C512.3777 92.95587 515.59033 92.95587 518.803 92.95587C522.0157 92.95587 525.22833 92.95587 528.441 92.95587C531.6537 92.95587 534.86633 92.95587 538.079 92.95587C541.2917 92.95587 544.50433 92.95587 547.717 92.95587C550.9297 92.95587 554.14233 92.95587 557.355 92.95587C560.5677 92.95587 563.78033 92.95587 566.993 92.95587C570.2057 92.95587 576.631 92.95587 576.631 92.95587" fill-rule="nonzero"/><path stroke="#db4437" stroke-width="2.0" stroke-linecap="butt" clip-path="url(#id_0)" d="M104.369 298.4445C104.369 298.4445 110.794334 287.93195 114.007 282.85727C117.219666 277.78262 120.432335 271.44568 123.645 267.99655C126.857666 264.54742 130.07033 263.1348 133.283 262.16245C136.49567 261.1901 139.70833 262.16245 142.921 262.16245C146.13367 262.16245 149.34633 262.16245 152.559 262.16245C155.77167 262.16245 158.98433 262.16245 162.197 262.16245C165.40967 262.16245 168.62233 262.16245 171.835 262.16245C175.04767 262.16245 178.26033 262.16245 181.473 262.16245C184.68567 262.16245 187.89833 262.16245 191.111 262.16245C194.32367 262.16245 197.53633 262.16245 200.749 262.16245C203.96167 262.16245 207.17433 262.16245 210.387 262.16245C213.59967 262.16245 216.81233 262.16245 220.025 262.16245C223.23767 262.16245 226.45033 262.16245 229.663 262.16245C232.87567 262.16245 236.08833 262.16245 239.301 262.16245C242.51367 262.16245 245.72633 262.16245 248.939 262.16245C252.15167 262.16245 255.36433 262.16245 258.577 262.16245C261.78967 262.16245 265.00232 264.54483 268.215 262.16245C271.42767 259.7801 274.64032 255.01535 277.853 247.86824C281.06567 240.72115 284.27832 224.04457 287.491 219.27985C290.70367 214.5151 293.91632 224.04457 297.129 219.27985C300.34167 214.5151 303.55432 197.83853 306.767 190.69144C309.97968 183.54433 313.19232 181.16197 316.405 176.39723C319.61768 171.63249 322.83032 169.25012 326.043 162.10303C329.25568 154.95593 332.46832 138.27936 335.681 133.51462C338.89368 128.74988 342.10632 138.27936 345.319 133.51462C348.53168 128.74988 351.74432 111.302765 354.957 104.926216C358.16968 98.54966 361.38232 96.96191 364.595 95.255295C367.80768 93.54869 371.02032 94.78134 374.233 94.686554C377.44568 94.59176 380.65833 94.686554 383.871 94.686554C387.08368 94.686554 390.29633 94.686554 393.509 94.686554C396.72168 94.686554 399.93433 94.686554 403.147 94.686554C406.35968 94.686554 409.57233 94.686554 412.785 94.686554C415.99768 94.686554 419.21033 94.686554 422.423 94.686554C425.63568 94.686554 428.84833 94.686554 432.061 94.686554C435.27368 94.686554 438.48633 94.686554 441.699 94.686554C444.91165 94.686554 448.12433 94.686554 451.337 94.686554C454.54965 94.686554 457.76233 94.686554 460.975 94.686554C464.18765 94.686554 467.40033 94.686554 470.613 94.686554C473.82565 94.686554 477.03833 94.686554 480.251 94.686554C483.46365 94.686554 486.67633 94.686554 489.889 94.686554C493.10165 94.686554 496.31433 94.686554 499.527 94.686554C502.73965 94.686554 505.95233 94.686554 509.165 94.686554C512.3777 94.686554 515.59033 94.686554 518.803 94.686554C522.0157 94.686554 525.22833 94.686554 528.441 94.686554C531.6537 94.686554 534.86633 94.686554 538.079 94.686554C541.2917 94.686554 544.50433 94.686554 547.717 94.686554C550.9297 94.686554 554.14233 94.686554 557.355 94.686554C560.5677 94.686554 563.78033 94.686554 566.993 94.686554C570.2057 94.686554 576.631 94.686554 576.631 94.686554" fill-rule="nonzero"/><path fill="#000000" fill-opacity="0.0" clip-path="url(#id_0)" d="M107.369 298.41782C107.369 300.07468 106.025856 301.41782 104.369 301.41782C102.71214 301.41782 101.369 300.07468 101.369 298.41782C101.369 296.761 102.71214 295.41782 104.369 295.41782C106.025856 295.41782 107.369 296.761 107.369 298.41782Z" fill-rule="nonzero"/><path fill="#000000" fill-opacity="0.0" clip-path="url(#id_0)" d="M117.007 281.2088C117.007 282.86566 115.66386 284.2088 114.007 284.2088C112.35014 284.2088 111.007 282.86566 111.007 281.2088C111.007 279.55194 112.35014 278.2088 114.007 278.2088C115.66386 278.2088 117.007 279.55194 117.007 281.2088Z" fill-rule="nonzero"/><path fill="#000000" fill-opacity="0.0" clip-path="url(#id_0)" d="M126.645 260.43176C126.645 262.08862 125.30186 263.43176 123.645 263.43176C121.988144 263.43176 120.645 262.08862 120.645 260.43176C120.645 258.7749 121.988144 257.43176 123.645 257.43176C125.30186 257.43176 126.645 258.7749 126.645 260.43176Z" fill-rule="nonzero"/><path fill="#000000" fill-opacity="0.0" clip-path="url(#id_0)" d="M136.283 260.43176C136.283 262.08862 134.93985 263.43176 133.283 263.43176C131.62614 263.43176 130.283 262.08862 130.283 260.43176C130.283 258.7749 131.62614 257.43176 133.283 257.43176C134.93985 257.43176 136.283 258.7749 136.283 260.43176Z" fill-rule="nonzero"/><path fill="#000000" fill-opacity="0.0" clip-path="url(#id_0)" d="M145.921 260.43176C145.921 262.08862 144.57785 263.43176 142.921 263.43176C141.26414 263.43176 139.921 262.08862 139.921 260.43176C139.921 258.7749 141.26414 257.43176 142.921 257.43176C144.57785 257.43176 145.921 258.7749 145.921 260.43176Z" fill-rule="nonzero"/><path fill="#000000" fill-opacity="0.0" clip-path="url(#id_0)" d="M155.559 260.43176C155.559 262.08862 154.21585 263.43176 152.559 263.43176C150.90215 263.43176 149.559 262.08862 149.559 260.43176C149.559 258.7749 150.90215 257.43176 152.559 257.43176C154.21585 257.43176 155.559 258.7749 155.559 260.43176Z" fill-rule="nonzero"/><path fill="#000000" fill-opacity="0.0" clip-path="url(#id_0)" d="M165.197 260.43176C165.197 262.08862 163.85385 263.43176 162.197 263.43176C160.54015 263.43176 159.197 262.08862 159.197 260.43176C159.197 258.7749 160.54015 257.43176 162.197 257.43176C163.85385 257.43176 165.197 258.7749 165.197 260.43176Z" fill-rule="nonzero"/><path fill="#000000" fill-opacity="0.0" clip-path="url(#id_0)" d="M174.835 260.43176C174.835 262.08862 173.49185 263.43176 171.835 263.43176C170.17815 263.43176 168.835 262.08862 168.835 260.43176C168.835 258.7749 170.17815 257.43176 171.835 257.43176C173.49185 257.43176 174.835 258.7749 174.835 260.43176Z" fill-rule="nonzero"/><path fill="#000000" fill-opacity="0.0" clip-path="url(#id_0)" d="M184.473 260.43176C184.473 262.08862 183.12985 263.43176 181.473 263.43176C179.81615 263.43176 178.473 262.08862 178.473 260.43176C178.473 258.7749 179.81615 257.43176 181.473 257.43176C183.12985 257.43176 184.473 258.7749 184.473 260.43176Z" fill-rule="nonzero"/><path fill="#000000" fill-opacity="0.0" clip-path="url(#id_0)" d="M194.111 260.43176C194.111 262.08862 192.76785 263.43176 191.111 263.43176C189.45415 263.43176 188.111 262.08862 188.111 260.43176C188.111 258.7749 189.45415 257.43176 191.111 257.43176C192.76785 257.43176 194.111 258.7749 194.111 260.43176Z" fill-rule="nonzero"/><path fill="#000000" fill-opacity="0.0" clip-path="url(#id_0)" d="M203.749 260.43176C203.749 262.08862 202.40585 263.43176 200.749 263.43176C199.09215 263.43176 197.749 262.08862 197.749 260.43176C197.749 258.7749 199.09215 257.43176 200.749 257.43176C202.40585 257.43176 203.749 258.7749 203.749 260.43176Z" fill-rule="nonzero"/><path fill="#000000" fill-opacity="0.0" clip-path="url(#id_0)" d="M213.387 260.43176C213.387 262.08862 212.04385 263.43176 210.387 263.43176C208.73015 263.43176 207.387 262.08862 207.387 260.43176C207.387 258.7749 208.73015 257.43176 210.387 257.43176C212.04385 257.43176 213.387 258.7749 213.387 260.43176Z" fill-rule="nonzero"/><path fill="#000000" fill-opacity="0.0" clip-path="url(#id_0)" d="M223.025 260.43176C223.025 262.08862 221.68185 263.43176 220.025 263.43176C218.36815 263.43176 217.025 262.08862 217.025 260.43176C217.025 258.7749 218.36815 257.43176 220.025 257.43176C221.68185 257.43176 223.025 258.7749 223.025 260.43176Z" fill-rule="nonzero"/><path fill="#000000" fill-opacity="0.0" clip-path="url(#id_0)" d="M232.663 260.43176C232.663 262.08862 231.31985 263.43176 229.663 263.43176C228.00615 263.43176 226.663 262.08862 226.663 260.43176C226.663 258.7749 228.00615 257.43176 229.663 257.43176C231.31985 257.43176 232.663 258.7749 232.663 260.43176Z" fill-rule="nonzero"/><path fill="#000000" fill-opacity="0.0" clip-path="url(#id_0)" d="M242.301 246.13757C242.301 247.79442 240.95786 249.13757 239.301 249.13757C237.64415 249.13757 236.301 247.79442 236.301 246.13757C236.301 244.48071 237.64415 243.13757 239.301 243.13757C240.95786 243.13757 242.301 244.48071 242.301 246.13757Z" fill-rule="nonzero"/><path fill="#000000" fill-opacity="0.0" clip-path="url(#id_0)" d="M251.939 217.54916C251.939 219.20601 250.59586 220.54916 248.939 220.54916C247.28215 220.54916 245.939 219.20601 245.939 217.54916C245.939 215.8923 247.28215 214.54916 248.939 214.54916C250.59586 214.54916 251.939 215.8923 251.939 217.54916Z" fill-rule="nonzero"/><path fill="#000000" fill-opacity="0.0" clip-path="url(#id_0)" d="M261.577 203.25496C261.577 204.91182 260.23386 206.25496 258.577 206.25496C256.92014 206.25496 255.577 204.91182 255.577 203.25496C255.577 201.5981 256.92014 200.25496 258.577 200.25496C260.23386 200.25496 261.577 201.5981 261.577 203.25496Z" fill-rule="nonzero"/><path fill="#000000" fill-opacity="0.0" clip-path="url(#id_0)" d="M271.215 174.66655C271.215 176.32341 269.87186 177.66655 268.215 177.66655C266.55814 177.66655 265.215 176.32341 265.215 174.66655C265.215 173.0097 266.55814 171.66655 268.215 171.66655C269.87186 171.66655 271.215 173.0097 271.215 174.66655Z" fill-rule="nonzero"/><path fill="#000000" fill-opacity="0.0" clip-path="url(#id_0)" d="M280.853 160.37234C280.853 162.0292 279.50986 163.37234 277.853 163.37234C276.19614 163.37234 274.853 162.0292 274.853 160.37234C274.853 158.7155 276.19614 157.37234 277.853 157.37234C279.50986 157.37234 280.853 158.7155 280.853 160.37234Z" fill-rule="nonzero"/><path fill="#000000" fill-opacity="0.0" clip-path="url(#id_0)" d="M290.491 131.78394C290.491 133.4408 289.14786 134.78394 287.491 134.78394C285.83414 134.78394 284.491 133.4408 284.491 131.78394C284.491 130.12709 285.83414 128.78394 287.491 128.78394C289.14786 128.78394 290.491 130.12709 290.491 131.78394Z" fill-rule="nonzero"/><path fill="#000000" fill-opacity="0.0" clip-path="url(#id_0)" d="M300.129 103.19553C300.129 104.85239 298.78586 106.19553 297.129 106.19553C295.47214 106.19553 294.129 104.85239 294.129 103.19553C294.129 101.53868 295.47214 100.19553 297.129 100.19553C298.78586 100.19553 300.129 101.53868 300.129 103.19553Z" fill-rule="nonzero"/><path fill="#000000" fill-opacity="0.0" clip-path="url(#id_0)" d="M309.767 93.52462C309.767 95.18147 308.42386 96.52462 306.767 96.52462C305.11014 96.52462 303.767 95.18147 303.767 93.52462C303.767 91.86777 305.11014 90.52462 306.767 90.52462C308.42386 90.52462 309.767 91.86777 309.767 93.52462Z" fill-rule="nonzero"/><path fill="#000000" fill-opacity="0.0" clip-path="url(#id_0)" d="M319.405 93.52462C319.405 95.18147 318.06186 96.52462 316.405 96.52462C314.74814 96.52462 313.405 95.18147 313.405 93.52462C313.405 91.86777 314.74814 90.52462 316.405 90.52462C318.06186 90.52462 319.405 91.86777 319.405 93.52462Z" fill-rule="nonzero"/><path fill="#000000" fill-opacity="0.0" clip-path="url(#id_0)" d="M329.043 93.52462C329.043 95.18147 327.69986 96.52462 326.043 96.52462C324.38614 96.52462 323.043 95.18147 323.043 93.52462C323.043 91.86777 324.38614 90.52462 326.043 90.52462C327.69986 90.52462 329.043 91.86777 329.043 93.52462Z" fill-rule="nonzero"/><path fill="#000000" fill-opacity="0.0" clip-path="url(#id_0)" d="M338.681 93.52462C338.681 95.18147 337.33786 96.52462 335.681 96.52462C334.02414 96.52462 332.681 95.18147 332.681 93.52462C332.681 91.86777 334.02414 90.52462 335.681 90.52462C337.33786 90.52462 338.681 91.86777 338.681 93.52462Z" fill-rule="nonzero"/><path fill="#000000" fill-opacity="0.0" clip-path="url(#id_0)" d="M348.319 93.52462C348.319 95.18147 346.97586 96.52462 345.319 96.52462C343.66214 96.52462 342.319 95.18147 342.319 93.52462C342.319 91.86777 343.66214 90.52462 345.319 90.52462C346.97586 90.52462 348.319 91.86777 348.319 93.52462Z" fill-rule="nonzero"/><path fill="#000000" fill-opacity="0.0" clip-path="url(#id_0)" d="M357.957 93.52462C357.957 95.18147 356.61386 96.52462 354.957 96.52462C353.30014 96.52462 351.957 95.18147 351.957 93.52462C351.957 91.86777 353.30014 90.52462 354.957 90.52462C356.61386 90.52462 357.957 91.86777 357.957 93.52462Z" fill-rule="nonzero"/><path fill="#000000" fill-opacity="0.0" clip-path="url(#id_0)" d="M367.595 93.52462C367.595 95.18147 366.25186 96.52462 364.595 96.52462C362.93814 96.52462 361.595 95.18147 361.595 93.52462C361.595 91.86777 362.93814 90.52462 364.595 90.52462C366.25186 90.52462 367.595 91.86777 367.595 93.52462Z" fill-rule="nonzero"/><path fill="#000000" fill-opacity="0.0" clip-path="url(#id_0)" d="M377.233 93.52462C377.233 95.18147 375.88986 96.52462 374.233 96.52462C372.57614 96.52462 371.233 95.18147 371.233 93.52462C371.233 91.86777 372.57614 90.52462 374.233 90.52462C375.88986 90.52462 377.233 91.86777 377.233 93.52462Z" fill-rule="nonzero"/><path fill="#000000" fill-opacity="0.0" clip-path="url(#id_0)" d="M386.871 93.52462C386.871 95.18147 385.52786 96.52462 383.871 96.52462C382.21414 96.52462 380.871 95.18147 380.871 93.52462C380.871 91.86777 382.21414 90.52462 383.871 90.52462C385.52786 90.52462 386.871 91.86777 386.871 93.52462Z" fill-rule="nonzero"/><path fill="#000000" fill-opacity="0.0" clip-path="url(#id_0)" d="M396.509 93.52462C396.509 95.18147 395.16586 96.52462 393.509 96.52462C391.85214 96.52462 390.509 95.18147 390.509 93.52462C390.509 91.86777 391.85214 90.52462 393.509 90.52462C395.16586 90.52462 396.509 91.86777 396.509 93.52462Z" fill-rule="nonzero"/><path fill="#000000" fill-opacity="0.0" clip-path="url(#id_0)" d="M406.147 93.52462C406.147 95.18147 404.80386 96.52462 403.147 96.52462C401.49014 96.52462 400.147 95.18147 400.147 93.52462C400.147 91.86777 401.49014 90.52462 403.147 90.52462C404.80386 90.52462 406.147 91.86777 406.147 93.52462Z" fill-rule="nonzero"/><path fill="#000000" fill-opacity="0.0" clip-path="url(#id_0)" d="M415.785 93.52462C415.785 95.18147 414.44186 96.52462 412.785 96.52462C411.12814 96.52462 409.785 95.18147 409.785 93.52462C409.785 91.86777 411.12814 90.52462 412.785 90.52462C414.44186 90.52462 415.785 91.86777 415.785 93.52462Z" fill-rule="nonzero"/><path fill="#000000" fill-opacity="0.0" clip-path="url(#id_0)" d="M425.423 93.52462C425.423 95.18147 424.07986 96.52462 422.423 96.52462C420.76614 96.52462 419.423 95.18147 419.423 93.52462C419.423 91.86777 420.76614 90.52462 422.423 90.52462C424.07986 90.52462 425.423 91.86777 425.423 93.52462Z" fill-rule="nonzero"/><path fill="#000000" fill-opacity="0.0" clip-path="url(#id_0)" d="M435.061 92.95587C435.061 94.612724 433.71786 95.95587 432.061 95.95587C430.40414 95.95587 429.061 94.612724 429.061 92.95587C429.061 91.29902 430.40414 89.95587 432.061 89.95587C433.71786 89.95587 435.061 91.29902 435.061 92.95587Z" fill-rule="nonzero"/><path fill="#000000" fill-opacity="0.0" clip-path="url(#id_0)" d="M444.699 92.95587C444.699 94.612724 443.35587 95.95587 441.699 95.95587C440.04214 95.95587 438.699 94.612724 438.699 92.95587C438.699 91.29902 440.04214 89.95587 441.699 89.95587C443.35587 89.95587 444.699 91.29902 444.699 92.95587Z" fill-rule="nonzero"/><path fill="#000000" fill-opacity="0.0" clip-path="url(#id_0)" d="M454.337 92.95587C454.337 94.612724 452.99387 95.95587 451.337 95.95587C449.68015 95.95587 448.337 94.612724 448.337 92.95587C448.337 91.29902 449.68015 89.95587 451.337 89.95587C452.99387 89.95587 454.337 91.29902 454.337 92.95587Z" fill-rule="nonzero"/><path fill="#000000" fill-opacity="0.0" clip-path="url(#id_0)" d="M463.975 92.95587C463.975 94.612724 462.63187 95.95587 460.975 95.95587C459.31815 95.95587 457.975 94.612724 457.975 92.95587C457.975 91.29902 459.31815 89.95587 460.975 89.95587C462.63187 89.95587 463.975 91.29902 463.975 92.95587Z" fill-rule="nonzero"/><path fill="#000000" fill-opacity="0.0" clip-path="url(#id_0)" d="M473.613 92.95587C473.613 94.612724 472.26987 95.95587 470.613 95.95587C468.95615 95.95587 467.613 94.612724 467.613 92.95587C467.613 91.29902 468.95615 89.95587 470.613 89.95587C472.26987 89.95587 473.613 91.29902 473.613 92.95587Z" fill-rule="nonzero"/><path fill="#000000" fill-opacity="0.0" clip-path="url(#id_0)" d="M483.251 92.95587C483.251 94.612724 481.90787 95.95587 480.251 95.95587C478.59415 95.95587 477.251 94.612724 477.251 92.95587C477.251 91.29902 478.59415 89.95587 480.251 89.95587C481.90787 89.95587 483.251 91.29902 483.251 92.95587Z" fill-rule="nonzero"/><path fill="#000000" fill-opacity="0.0" clip-path="url(#id_0)" d="M492.889 92.95587C492.889 94.612724 491.54587 95.95587 489.889 95.95587C488.23215 95.95587 486.889 94.612724 486.889 92.95587C486.889 91.29902 488.23215 89.95587 489.889 89.95587C491.54587 89.95587 492.889 91.29902 492.889 92.95587Z" fill-rule="nonzero"/><path fill="#000000" fill-opacity="0.0" clip-path="url(#id_0)" d="M502.527 92.95587C502.527 94.612724 501.18387 95.95587 499.527 95.95587C497.87015 95.95587 496.527 94.612724 496.527 92.95587C496.527 91.29902 497.87015 89.95587 499.527 89.95587C501.18387 89.95587 502.527 91.29902 502.527 92.95587Z" fill-rule="nonzero"/><path fill="#000000" fill-opacity="0.0" clip-path="url(#id_0)" d="M512.165 92.95587C512.165 94.612724 510.82187 95.95587 509.165 95.95587C507.50815 95.95587 506.165 94.612724 506.165 92.95587C506.165 91.29902 507.50815 89.95587 509.165 89.95587C510.82187 89.95587 512.165 91.29902 512.165 92.95587Z" fill-rule="nonzero"/><path fill="#000000" fill-opacity="0.0" clip-path="url(#id_0)" d="M521.803 92.95587C521.803 94.612724 520.45984 95.95587 518.803 95.95587C517.1461 95.95587 515.803 94.612724 515.803 92.95587C515.803 91.29902 517.1461 89.95587 518.803 89.95587C520.45984 89.95587 521.803 91.29902 521.803 92.95587Z" fill-rule="nonzero"/><path fill="#000000" fill-opacity="0.0" clip-path="url(#id_0)" d="M531.441 92.95587C531.441 94.612724 530.09784 95.95587 528.441 95.95587C526.7841 95.95587 525.441 94.612724 525.441 92.95587C525.441 91.29902 526.7841 89.95587 528.441 89.95587C530.09784 89.95587 531.441 91.29902 531.441 92.95587Z" fill-rule="nonzero"/><path fill="#000000" fill-opacity="0.0" clip-path="url(#id_0)" d="M541.079 92.95587C541.079 94.612724 539.73584 95.95587 538.079 95.95587C536.4221 95.95587 535.079 94.612724 535.079 92.95587C535.079 91.29902 536.4221 89.95587 538.079 89.95587C539.73584 89.95587 541.079 91.29902 541.079 92.95587Z" fill-rule="nonzero"/><path fill="#000000" fill-opacity="0.0" clip-path="url(#id_0)" d="M550.717 92.95587C550.717 94.612724 549.37384 95.95587 547.717 95.95587C546.0601 95.95587 544.717 94.612724 544.717 92.95587C544.717 91.29902 546.0601 89.95587 547.717 89.95587C549.37384 89.95587 550.717 91.29902 550.717 92.95587Z" fill-rule="nonzero"/><path fill="#000000" fill-opacity="0.0" clip-path="url(#id_0)" d="M560.355 92.95587C560.355 94.612724 559.01184 95.95587 557.355 95.95587C555.6981 95.95587 554.355 94.612724 554.355 92.95587C554.355 91.29902 555.6981 89.95587 557.355 89.95587C559.01184 89.95587 560.355 91.29902 560.355 92.95587Z" fill-rule="nonzero"/><path fill="#000000" fill-opacity="0.0" clip-path="url(#id_0)" d="M569.993 92.95587C569.993 94.612724 568.64984 95.95587 566.993 95.95587C565.3361 95.95587 563.993 94.612724 563.993 92.95587C563.993 91.29902 565.3361 89.95587 566.993 89.95587C568.64984 89.95587 569.993 91.29902 569.993 92.95587Z" fill-rule="nonzero"/><path fill="#000000" fill-opacity="0.0" clip-path="url(#id_0)" d="M579.631 92.95587C579.631 94.612724 578.28784 95.95587 576.631 95.95587C574.9741 95.95587 573.631 94.612724 573.631 92.95587C573.631 91.29902 574.9741 89.95587 576.631 89.95587C578.28784 89.95587 579.631 91.29902 579.631 92.95587Z" fill-rule="nonzero"/><path fill="#000000" fill-opacity="0.0" clip-path="url(#id_0)" d="M107.369 298.4445C107.369 300.10135 106.025856 301.4445 104.369 301.4445C102.71214 301.4445 101.369 300.10135 101.369 298.4445C101.369 296.78763 102.71214 295.4445 104.369 295.4445C106.025856 295.4445 107.369 296.78763 107.369 298.4445Z" fill-rule="nonzero"/><path fill="#000000" fill-opacity="0.0" clip-path="url(#id_0)" d="M117.007 282.85727C117.007 284.51413 115.66386 285.85727 114.007 285.85727C112.35014 285.85727 111.007 284.51413 111.007 282.85727C111.007 281.2004 112.35014 279.85727 114.007 279.85727C115.66386 279.85727 117.007 281.2004 117.007 282.85727Z" fill-rule="nonzero"/><path fill="#000000" fill-opacity="0.0" clip-path="url(#id_0)" d="M126.645 267.99655C126.645 269.6534 125.30186 270.99655 123.645 270.99655C121.988144 270.99655 120.645 269.6534 120.645 267.99655C120.645 266.3397 121.988144 264.99655 123.645 264.99655C125.30186 264.99655 126.645 266.3397 126.645 267.99655Z" fill-rule="nonzero"/><path fill="#000000" fill-opacity="0.0" clip-path="url(#id_0)" d="M136.283 262.16245C136.283 263.8193 134.93985 265.16245 133.283 265.16245C131.62614 265.16245 130.283 263.8193 130.283 262.16245C130.283 260.50558 131.62614 259.16245 133.283 259.16245C134.93985 259.16245 136.283 260.50558 136.283 262.16245Z" fill-rule="nonzero"/><path fill="#000000" fill-opacity="0.0" clip-path="url(#id_0)" d="M145.921 262.16245C145.921 263.8193 144.57785 265.16245 142.921 265.16245C141.26414 265.16245 139.921 263.8193 139.921 262.16245C139.921 260.50558 141.26414 259.16245 142.921 259.16245C144.57785 259.16245 145.921 260.50558 145.921 262.16245Z" fill-rule="nonzero"/><path fill="#000000" fill-opacity="0.0" clip-path="url(#id_0)" d="M155.559 262.16245C155.559 263.8193 154.21585 265.16245 152.559 265.16245C150.90215 265.16245 149.559 263.8193 149.559 262.16245C149.559 260.50558 150.90215 259.16245 152.559 259.16245C154.21585 259.16245 155.559 260.50558 155.559 262.16245Z" fill-rule="nonzero"/><path fill="#000000" fill-opacity="0.0" clip-path="url(#id_0)" d="M165.197 262.16245C165.197 263.8193 163.85385 265.16245 162.197 265.16245C160.54015 265.16245 159.197 263.8193 159.197 262.16245C159.197 260.50558 160.54015 259.16245 162.197 259.16245C163.85385 259.16245 165.197 260.50558 165.197 262.16245Z" fill-rule="nonzero"/><path fill="#000000" fill-opacity="0.0" clip-path="url(#id_0)" d="M174.835 262.16245C174.835 263.8193 173.49185 265.16245 171.835 265.16245C170.17815 265.16245 168.835 263.8193 168.835 262.16245C168.835 260.50558 170.17815 259.16245 171.835 259.16245C173.49185 259.16245 174.835 260.50558 174.835 262.16245Z" fill-rule="nonzero"/><path fill="#000000" fill-opacity="0.0" clip-path="url(#id_0)" d="M184.473 262.16245C184.473 263.8193 183.12985 265.16245 181.473 265.16245C179.81615 265.16245 178.473 263.8193 178.473 262.16245C178.473 260.50558 179.81615 259.16245 181.473 259.16245C183.12985 259.16245 184.473 260.50558 184.473 262.16245Z" fill-rule="nonzero"/><path fill="#000000" fill-opacity="0.0" clip-path="url(#id_0)" d="M194.111 262.16245C194.111 263.8193 192.76785 265.16245 191.111 265.16245C189.45415 265.16245 188.111 263.8193 188.111 262.16245C188.111 260.50558 189.45415 259.16245 191.111 259.16245C192.76785 259.16245 194.111 260.50558 194.111 262.16245Z" fill-rule="nonzero"/><path fill="#000000" fill-opacity="0.0" clip-path="url(#id_0)" d="M203.749 262.16245C203.749 263.8193 202.40585 265.16245 200.749 265.16245C199.09215 265.16245 197.749 263.8193 197.749 262.16245C197.749 260.50558 199.09215 259.16245 200.749 259.16245C202.40585 259.16245 203.749 260.50558 203.749 262.16245Z" fill-rule="nonzero"/><path fill="#000000" fill-opacity="0.0" clip-path="url(#id_0)" d="M213.387 262.16245C213.387 263.8193 212.04385 265.16245 210.387 265.16245C208.73015 265.16245 207.387 263.8193 207.387 262.16245C207.387 260.50558 208.73015 259.16245 210.387 259.16245C212.04385 259.16245 213.387 260.50558 213.387 262.16245Z" fill-rule="nonzero"/><path fill="#000000" fill-opacity="0.0" clip-path="url(#id_0)" d="M223.025 262.16245C223.025 263.8193 221.68185 265.16245 220.025 265.16245C218.36815 265.16245 217.025 263.8193 217.025 262.16245C217.025 260.50558 218.36815 259.16245 220.025 259.16245C221.68185 259.16245 223.025 260.50558 223.025 262.16245Z" fill-rule="nonzero"/><path fill="#000000" fill-opacity="0.0" clip-path="url(#id_0)" d="M232.663 262.16245C232.663 263.8193 231.31985 265.16245 229.663 265.16245C228.00615 265.16245 226.663 263.8193 226.663 262.16245C226.663 260.50558 228.00615 259.16245 229.663 259.16245C231.31985 259.16245 232.663 260.50558 232.663 262.16245Z" fill-rule="nonzero"/><path fill="#000000" fill-opacity="0.0" clip-path="url(#id_0)" d="M242.301 262.16245C242.301 263.8193 240.95786 265.16245 239.301 265.16245C237.64415 265.16245 236.301 263.8193 236.301 262.16245C236.301 260.50558 237.64415 259.16245 239.301 259.16245C240.95786 259.16245 242.301 260.50558 242.301 262.16245Z" fill-rule="nonzero"/><path fill="#000000" fill-opacity="0.0" clip-path="url(#id_0)" d="M251.939 262.16245C251.939 263.8193 250.59586 265.16245 248.939 265.16245C247.28215 265.16245 245.939 263.8193 245.939 262.16245C245.939 260.50558 247.28215 259.16245 248.939 259.16245C250.59586 259.16245 251.939 260.50558 251.939 262.16245Z" fill-rule="nonzero"/><path fill="#000000" fill-opacity="0.0" clip-path="url(#id_0)" d="M261.577 262.16245C261.577 263.8193 260.23386 265.16245 258.577 265.16245C256.92014 265.16245 255.577 263.8193 255.577 262.16245C255.577 260.50558 256.92014 259.16245 258.577 259.16245C260.23386 259.16245 261.577 260.50558 261.577 262.16245Z" fill-rule="nonzero"/><path fill="#000000" fill-opacity="0.0" clip-path="url(#id_0)" d="M271.215 262.16245C271.215 263.8193 269.87186 265.16245 268.215 265.16245C266.55814 265.16245 265.215 263.8193 265.215 262.16245C265.215 260.50558 266.55814 259.16245 268.215 259.16245C269.87186 259.16245 271.215 260.50558 271.215 262.16245Z" fill-rule="nonzero"/><path fill="#000000" fill-opacity="0.0" clip-path="url(#id_0)" d="M280.853 247.86824C280.853 249.5251 279.50986 250.86824 277.853 250.86824C276.19614 250.86824 274.853 249.5251 274.853 247.86824C274.853 246.2114 276.19614 244.86824 277.853 244.86824C279.50986 244.86824 280.853 246.2114 280.853 247.86824Z" fill-rule="nonzero"/><path fill="#000000" fill-opacity="0.0" clip-path="url(#id_0)" d="M290.491 219.27985C290.491 220.93669 289.14786 222.27985 287.491 222.27985C285.83414 222.27985 284.491 220.93669 284.491 219.27985C284.491 217.62299 285.83414 216.27985 287.491 216.27985C289.14786 216.27985 290.491 217.62299 290.491 219.27985Z" fill-rule="nonzero"/><path fill="#000000" fill-opacity="0.0" clip-path="url(#id_0)" d="M300.129 219.27985C300.129 220.93669 298.78586 222.27985 297.129 222.27985C295.47214 222.27985 294.129 220.93669 294.129 219.27985C294.129 217.62299 295.47214 216.27985 297.129 216.27985C298.78586 216.27985 300.129 217.62299 300.129 219.27985Z" fill-rule="nonzero"/><path fill="#000000" fill-opacity="0.0" clip-path="url(#id_0)" d="M309.767 190.69144C309.767 192.34828 308.42386 193.69144 306.767 193.69144C305.11014 193.69144 303.767 192.34828 303.767 190.69144C303.767 189.03458 305.11014 187.69144 306.767 187.69144C308.42386 187.69144 309.767 189.03458 309.767 190.69144Z" fill-rule="nonzero"/><path fill="#000000" fill-opacity="0.0" clip-path="url(#id_0)" d="M319.405 176.39723C319.405 178.05408 318.06186 179.39723 316.405 179.39723C314.74814 179.39723 313.405 178.05408 313.405 176.39723C313.405 174.74037 314.74814 173.39723 316.405 173.39723C318.06186 173.39723 319.405 174.74037 319.405 176.39723Z" fill-rule="nonzero"/><path fill="#000000" fill-opacity="0.0" clip-path="url(#id_0)" d="M329.043 162.10303C329.043 163.75989 327.69986 165.10303 326.043 165.10303C324.38614 165.10303 323.043 163.75989 323.043 162.10303C323.043 160.44617 324.38614 159.10303 326.043 159.10303C327.69986 159.10303 329.043 160.44617 329.043 162.10303Z" fill-rule="nonzero"/><path fill="#000000" fill-opacity="0.0" clip-path="url(#id_0)" d="M338.681 133.51462C338.681 135.17148 337.33786 136.51462 335.681 136.51462C334.02414 136.51462 332.681 135.17148 332.681 133.51462C332.681 131.85777 334.02414 130.51462 335.681 130.51462C337.33786 130.51462 338.681 131.85777 338.681 133.51462Z" fill-rule="nonzero"/><path fill="#000000" fill-opacity="0.0" clip-path="url(#id_0)" d="M348.319 133.51462C348.319 135.17148 346.97586 136.51462 345.319 136.51462C343.66214 136.51462 342.319 135.17148 342.319 133.51462C342.319 131.85777 343.66214 130.51462 345.319 130.51462C346.97586 130.51462 348.319 131.85777 348.319 133.51462Z" fill-rule="nonzero"/><path fill="#000000" fill-opacity="0.0" clip-path="url(#id_0)" d="M357.957 104.926216C357.957 106.58307 356.61386 107.926216 354.957 107.926216C353.30014 107.926216 351.957 106.58307 351.957 104.926216C351.957 103.269356 353.30014 101.926216 354.957 101.926216C356.61386 101.926216 357.957 103.269356 357.957 104.926216Z" fill-rule="nonzero"/><path fill="#000000" fill-opacity="0.0" clip-path="url(#id_0)" d="M367.595 95.255295C367.595 96.912155 366.25186 98.255295 364.595 98.255295C362.93814 98.255295 361.595 96.912155 361.595 95.255295C361.595 93.59844 362.93814 92.255295 364.595 92.255295C366.25186 92.255295 367.595 93.59844 367.595 95.255295Z" fill-rule="nonzero"/><path fill="#000000" fill-opacity="0.0" clip-path="url(#id_0)" d="M377.233 94.686554C377.233 96.34341 375.88986 97.686554 374.233 97.686554C372.57614 97.686554 371.233 96.34341 371.233 94.686554C371.233 93.02969 372.57614 91.686554 374.233 91.686554C375.88986 91.686554 377.233 93.02969 377.233 94.686554Z" fill-rule="nonzero"/><path fill="#000000" fill-opacity="0.0" clip-path="url(#id_0)" d="M386.871 94.686554C386.871 96.34341 385.52786 97.686554 383.871 97.686554C382.21414 97.686554 380.871 96.34341 380.871 94.686554C380.871 93.02969 382.21414 91.686554 383.871 91.686554C385.52786 91.686554 386.871 93.02969 386.871 94.686554Z" fill-rule="nonzero"/><path fill="#000000" fill-opacity="0.0" clip-path="url(#id_0)" d="M396.509 94.686554C396.509 96.34341 395.16586 97.686554 393.509 97.686554C391.85214 97.686554 390.509 96.34341 390.509 94.686554C390.509 93.02969 391.85214 91.686554 393.509 91.686554C395.16586 91.686554 396.509 93.02969 396.509 94.686554Z" fill-rule="nonzero"/><path fill="#000000" fill-opacity="0.0" clip-path="url(#id_0)" d="M406.147 94.686554C406.147 96.34341 404.80386 97.686554 403.147 97.686554C401.49014 97.686554 400.147 96.34341 400.147 94.686554C400.147 93.02969 401.49014 91.686554 403.147 91.686554C404.80386 91.686554 406.147 93.02969 406.147 94.686554Z" fill-rule="nonzero"/><path fill="#000000" fill-opacity="0.0" clip-path="url(#id_0)" d="M415.785 94.686554C415.785 96.34341 414.44186 97.686554 412.785 97.686554C411.12814 97.686554 409.785 96.34341 409.785 94.686554C409.785 93.02969 411.12814 91.686554 412.785 91.686554C414.44186 91.686554 415.785 93.02969 415.785 94.686554Z" fill-rule="nonzero"/><path fill="#000000" fill-opacity="0.0" clip-path="url(#id_0)" d="M425.423 94.686554C425.423 96.34341 424.07986 97.686554 422.423 97.686554C420.76614 97.686554 419.423 96.34341 419.423 94.686554C419.423 93.02969 420.76614 91.686554 422.423 91.686554C424.07986 91.686554 425.423 93.02969 425.423 94.686554Z" fill-rule="nonzero"/><path fill="#000000" fill-opacity="0.0" clip-path="url(#id_0)" d="M435.061 94.686554C435.061 96.34341 433.71786 97.686554 432.061 97.686554C430.40414 97.686554 429.061 96.34341 429.061 94.686554C429.061 93.02969 430.40414 91.686554 432.061 91.686554C433.71786 91.686554 435.061 93.02969 435.061 94.686554Z" fill-rule="nonzero"/><path fill="#000000" fill-opacity="0.0" clip-path="url(#id_0)" d="M444.699 94.686554C444.699 96.34341 443.35587 97.686554 441.699 97.686554C440.04214 97.686554 438.699 96.34341 438.699 94.686554C438.699 93.02969 440.04214 91.686554 441.699 91.686554C443.35587 91.686554 444.699 93.02969 444.699 94.686554Z" fill-rule="nonzero"/><path fill="#000000" fill-opacity="0.0" clip-path="url(#id_0)" d="M454.337 94.686554C454.337 96.34341 452.99387 97.686554 451.337 97.686554C449.68015 97.686554 448.337 96.34341 448.337 94.686554C448.337 93.02969 449.68015 91.686554 451.337 91.686554C452.99387 91.686554 454.337 93.02969 454.337 94.686554Z" fill-rule="nonzero"/><path fill="#000000" fill-opacity="0.0" clip-path="url(#id_0)" d="M463.975 94.686554C463.975 96.34341 462.63187 97.686554 460.975 97.686554C459.31815 97.686554 457.975 96.34341 457.975 94.686554C457.975 93.02969 459.31815 91.686554 460.975 91.686554C462.63187 91.686554 463.975 93.02969 463.975 94.686554Z" fill-rule="nonzero"/><path fill="#000000" fill-opacity="0.0" clip-path="url(#id_0)" d="M473.613 94.686554C473.613 96.34341 472.26987 97.686554 470.613 97.686554C468.95615 97.686554 467.613 96.34341 467.613 94.686554C467.613 93.02969 468.95615 91.686554 470.613 91.686554C472.26987 91.686554 473.613 93.02969 473.613 94.686554Z" fill-rule="nonzero"/><path fill="#000000" fill-opacity="0.0" clip-path="url(#id_0)" d="M483.251 94.686554C483.251 96.34341 481.90787 97.686554 480.251 97.686554C478.59415 97.686554 477.251 96.34341 477.251 94.686554C477.251 93.02969 478.59415 91.686554 480.251 91.686554C481.90787 91.686554 483.251 93.02969 483.251 94.686554Z" fill-rule="nonzero"/><path fill="#000000" fill-opacity="0.0" clip-path="url(#id_0)" d="M492.889 94.686554C492.889 96.34341 491.54587 97.686554 489.889 97.686554C488.23215 97.686554 486.889 96.34341 486.889 94.686554C486.889 93.02969 488.23215 91.686554 489.889 91.686554C491.54587 91.686554 492.889 93.02969 492.889 94.686554Z" fill-rule="nonzero"/><path fill="#000000" fill-opacity="0.0" clip-path="url(#id_0)" d="M502.527 94.686554C502.527 96.34341 501.18387 97.686554 499.527 97.686554C497.87015 97.686554 496.527 96.34341 496.527 94.686554C496.527 93.02969 497.87015 91.686554 499.527 91.686554C501.18387 91.686554 502.527 93.02969 502.527 94.686554Z" fill-rule="nonzero"/><path fill="#000000" fill-opacity="0.0" clip-path="url(#id_0)" d="M512.165 94.686554C512.165 96.34341 510.82187 97.686554 509.165 97.686554C507.50815 97.686554 506.165 96.34341 506.165 94.686554C506.165 93.02969 507.50815 91.686554 509.165 91.686554C510.82187 91.686554 512.165 93.02969 512.165 94.686554Z" fill-rule="nonzero"/><path fill="#000000" fill-opacity="0.0" clip-path="url(#id_0)" d="M521.803 94.686554C521.803 96.34341 520.45984 97.686554 518.803 97.686554C517.1461 97.686554 515.803 96.34341 515.803 94.686554C515.803 93.02969 517.1461 91.686554 518.803 91.686554C520.45984 91.686554 521.803 93.02969 521.803 94.686554Z" fill-rule="nonzero"/><path fill="#000000" fill-opacity="0.0" clip-path="url(#id_0)" d="M531.441 94.686554C531.441 96.34341 530.09784 97.686554 528.441 97.686554C526.7841 97.686554 525.441 96.34341 525.441 94.686554C525.441 93.02969 526.7841 91.686554 528.441 91.686554C530.09784 91.686554 531.441 93.02969 531.441 94.686554Z" fill-rule="nonzero"/><path fill="#000000" fill-opacity="0.0" clip-path="url(#id_0)" d="M541.079 94.686554C541.079 96.34341 539.73584 97.686554 538.079 97.686554C536.4221 97.686554 535.079 96.34341 535.079 94.686554C535.079 93.02969 536.4221 91.686554 538.079 91.686554C539.73584 91.686554 541.079 93.02969 541.079 94.686554Z" fill-rule="nonzero"/><path fill="#000000" fill-opacity="0.0" clip-path="url(#id_0)" d="M550.717 94.686554C550.717 96.34341 549.37384 97.686554 547.717 97.686554C546.0601 97.686554 544.717 96.34341 544.717 94.686554C544.717 93.02969 546.0601 91.686554 547.717 91.686554C549.37384 91.686554 550.717 93.02969 550.717 94.686554Z" fill-rule="nonzero"/><path fill="#000000" fill-opacity="0.0" clip-path="url(#id_0)" d="M560.355 94.686554C560.355 96.34341 559.01184 97.686554 557.355 97.686554C555.6981 97.686554 554.355 96.34341 554.355 94.686554C554.355 93.02969 555.6981 91.686554 557.355 91.686554C559.01184 91.686554 560.355 93.02969 560.355 94.686554Z" fill-rule="nonzero"/><path fill="#000000" fill-opacity="0.0" clip-path="url(#id_0)" d="M569.993 94.686554C569.993 96.34341 568.64984 97.686554 566.993 97.686554C565.3361 97.686554 563.993 96.34341 563.993 94.686554C563.993 93.02969 565.3361 91.686554 566.993 91.686554C568.64984 91.686554 569.993 93.02969 569.993 94.686554Z" fill-rule="nonzero"/><path fill="#000000" fill-opacity="0.0" clip-path="url(#id_0)" d="M579.631 94.686554C579.631 96.34341 578.28784 97.686554 576.631 97.686554C574.9741 97.686554 573.631 96.34341 573.631 94.686554C573.631 93.02969 574.9741 91.686554 576.631 91.686554C578.28784 91.686554 579.631 93.02969 579.631 94.686554Z" fill-rule="nonzero"/><path fill="#424242" d="M333.89062 341.84064L331.14062 341.84064L331.14062 349.45L330.03125 349.45L330.03125 341.84064L327.28125 341.84064L327.28125 340.91876L333.89062 340.91876L333.89062 341.84064ZM336.0 349.45L334.92188 349.45L334.92188 343.10626L336.0 343.10626L336.0 349.45ZM334.82812 341.4344Q334.82812 341.16876 334.98438 340.98126Q335.15625 340.79376 335.46875 340.79376Q335.78125 340.79376 335.9375 340.98126Q336.10938 341.16876 336.10938 341.4344Q336.10938 341.6844 335.9375 341.8719Q335.78125 342.04376 335.46875 342.04376Q335.15625 342.04376 334.98438 341.8719Q334.82812 341.6844 334.82812 341.4344ZM338.84375 343.10626L338.875 343.8094Q339.5625 342.9969 340.75 342.9969Q342.07812 342.9969 342.5625 344.0125Q342.875 343.5594 343.375 343.27814Q343.89062 342.9969 344.57812 342.9969Q346.67188 342.9969 346.70312 345.2L346.70312 349.45L345.625 349.45L345.625 345.2625Q345.625 344.59064 345.3125 344.2625Q345.0 343.91876 344.26562 343.91876Q343.65625 343.91876 343.25 344.27814Q342.85938 344.6375 342.79688 345.2469L342.79688 349.45L341.71875 349.45L341.71875 345.29376Q341.71875 343.91876 340.35938 343.91876Q339.29688 343.91876 338.90625 344.825L338.90625 349.45L337.8125 349.45L337.8125 343.10626L338.84375 343.10626ZM351.45312 349.575Q350.15625 349.575 349.34375 348.73126Q348.54688 347.8719 348.54688 346.45L348.54688 346.2625Q348.54688 345.3094 348.90625 344.575Q349.26562 343.825 349.90625 343.41876Q350.5625 342.9969 351.3125 342.9969Q352.54688 342.9969 353.23438 343.8094Q353.92188 344.6219 353.92188 346.1375L353.92188 346.59064L349.625 346.59064Q349.65625 347.52814 350.17188 348.10626Q350.70312 348.6844 351.51562 348.6844Q352.07812 348.6844 352.46875 348.45Q352.875 348.21564 353.1875 347.825L353.84375 348.34064Q353.04688 349.575 351.45312 349.575ZM351.3125 343.8875Q350.65625 343.8875 350.20312 344.3719Q349.76562 344.84064 349.67188 345.7L352.84375 345.7L352.84375 345.6219Q352.79688 344.79376 352.39062 344.34064Q352.0 343.8875 351.3125 343.8875Z" fill-rule="nonzero"/><path fill="#424242" d="M22.018763 251.92917L28.971888 249.1323L22.018763 246.35104L22.018763 244.8823L30.550013 244.8823L30.550013 246.0073L27.221888 246.0073L23.643763 245.89792L30.550013 248.71042L30.550013 249.5698L23.659388 252.36667L27.221888 252.2573L30.550013 252.2573L30.550013 253.3823L22.018763 253.3823L22.018763 251.92917ZM30.675013 240.91354Q30.675013 242.21042 29.831263 243.02292Q28.971888 243.8198 27.550013 243.8198L27.362513 243.8198Q26.409388 243.8198 25.675013 243.46042Q24.925013 243.10104 24.518763 242.46042Q24.096888 241.80417 24.096888 241.05417Q24.096888 239.8198 24.909388 239.1323Q25.721888 238.4448 27.237513 238.4448L27.690638 238.4448L27.690638 242.74167Q28.628138 242.71042 29.206263 242.1948Q29.784388 241.66354 29.784388 240.85104Q29.784388 240.28854 29.550013 239.89792Q29.315638 239.49167 28.925013 239.17917L29.440638 238.52292Q30.675013 239.3198 30.675013 240.91354ZM24.987513 241.05417Q24.987513 241.71042 25.471888 242.16354Q25.940638 242.60104 26.800013 242.6948L26.800013 239.52292L26.721888 239.52292Q25.893763 239.5698 25.440638 239.97604Q24.987513 240.36667 24.987513 241.05417ZM24.206263 236.52292L24.909388 236.49167Q24.096888 235.80417 24.096888 234.61667Q24.096888 233.28854 25.112513 232.80417Q24.659388 232.49167 24.378138 231.99167Q24.096888 231.47604 24.096888 230.78854Q24.096888 228.6948 26.300013 228.66354L30.550013 228.66354L30.550013 229.74167L26.362513 229.74167Q25.690638 229.74167 25.362513 230.05417Q25.018763 230.36667 25.018763 231.10104Q25.018763 231.71042 25.378138 232.11667Q25.737513 232.5073 26.346888 232.5698L30.550013 232.5698L30.550013 233.64792L26.393763 233.64792Q25.018763 233.64792 25.018763 235.0073Q25.018763 236.0698 25.925013 236.46042L30.550013 236.46042L30.550013 237.55417L24.206263 237.55417L24.206263 236.52292ZM27.315638 226.83542Q26.393763 226.83542 25.643763 226.47604Q24.893763 226.10104 24.503138 225.4448Q24.096888 224.78854 24.096888 223.96042Q24.096888 222.66354 24.987513 221.86667Q25.878138 221.05417 27.378138 221.05417L27.456263 221.05417Q28.378138 221.05417 29.112513 221.41354Q29.846888 221.77292 30.268763 222.42917Q30.675013 223.08542 30.675013 223.9448Q30.675013 225.22604 29.784388 226.03854Q28.878138 226.83542 27.393763 226.83542L27.315638 226.83542ZM27.456263 225.74167Q28.503138 225.74167 29.143763 225.2573Q29.784388 224.7573 29.784388 223.9448Q29.784388 223.11667 29.143763 222.6323Q28.487513 222.14792 27.315638 222.14792Q26.284388 222.14792 25.643763 222.64792Q24.987513 223.1323 24.987513 223.96042Q24.987513 224.7573 25.628138 225.2573Q26.253138 225.74167 27.456263 225.74167ZM25.175013 216.47604Q25.143763 216.72604 25.143763 217.0073Q25.143763 218.08542 26.050013 218.46042L30.550013 218.46042L30.550013 219.53854L24.206263 219.53854L24.206263 218.49167L24.940638 218.47604Q24.096888 217.9448 24.096888 216.96042Q24.096888 216.64792 24.175013 216.47604L25.175013 216.47604ZM28.956263 213.47604L24.206263 211.99167L24.206263 210.83542L31.534388 213.3823Q33.11251 213.97604 33.11251 215.2573L33.096886 215.47604L33.01876 215.86667L32.14376 215.86667L32.159386 215.58542Q32.159386 215.02292 31.940638 214.72604Q31.721888 214.41354 31.128138 214.21042L30.471888 213.97604L24.206263 216.24167L24.206263 215.05417L28.956263 213.47604ZM22.018763 200.36667L27.815638 200.36667Q29.018763 200.3823 29.800013 201.1323Q30.565638 201.8823 30.659388 203.16354L30.675013 203.47604Q30.675013 204.86667 29.925013 205.71042Q29.159388 206.53854 27.831263 206.53854L22.018763 206.53854L22.018763 205.42917L27.800013 205.42917Q28.721888 205.42917 29.237513 204.92917Q29.753138 204.41354 29.753138 203.47604Q29.753138 202.5073 29.237513 202.0073Q28.721888 201.5073 27.800013 201.5073L22.018763 201.5073L22.018763 200.36667ZM28.862513 194.85104Q28.425013 194.85104 28.190638 195.1948Q27.940638 195.52292 27.768763 196.35104Q27.596888 197.16354 27.346888 197.64792Q27.096888 198.1323 26.768763 198.36667Q26.425013 198.58542 25.956263 198.58542Q25.175013 198.58542 24.643763 197.92917Q24.096888 197.27292 24.096888 196.24167Q24.096888 195.16354 24.659388 194.5073Q25.206263 193.83542 26.065638 193.83542L26.065638 194.91354Q25.628138 194.91354 25.315638 195.30417Q24.987513 195.67917 24.987513 196.24167Q24.987513 196.83542 25.253138 197.17917Q25.503138 197.5073 25.909388 197.5073Q26.300013 197.5073 26.503138 197.1948Q26.706263 196.8823 26.893763 196.0698Q27.065638 195.2573 27.315638 194.7573Q27.565638 194.2573 27.925013 194.02292Q28.284388 193.77292 28.784388 193.77292Q29.643763 193.77292 30.159388 194.46042Q30.675013 195.1323 30.675013 196.21042Q30.675013 196.97604 30.409388 197.5698Q30.128138 198.14792 29.643763 198.47604Q29.159388 198.80417 28.596888 198.80417L28.596888 197.72604Q29.143763 197.6948 29.471888 197.28854Q29.784388 196.8823 29.784388 196.21042Q29.784388 195.60104 29.534388 195.22604Q29.284388 194.85104 28.862513 194.85104ZM30.550013 188.6323Q30.362513 188.72604 29.878138 188.78854Q30.675013 189.53854 30.675013 190.58542Q30.675013 191.52292 30.143763 192.1323Q29.612513 192.72604 28.784388 192.72604Q27.800013 192.72604 27.253138 191.97604Q26.706263 191.22604 26.706263 189.85104L26.706263 188.80417L26.206263 188.80417Q25.643763 188.80417 25.315638 189.14792Q24.971888 189.47604 24.971888 190.14792Q24.971888 190.72604 25.268763 191.11667Q25.550013 191.5073 25.971888 191.5073L25.971888 192.60104Q25.487513 192.60104 25.050013 192.27292Q24.612513 191.92917 24.362513 191.35104Q24.096888 190.77292 24.096888 190.08542Q24.096888 188.97604 24.643763 188.36667Q25.190638 187.74167 26.143763 187.71042L29.065638 187.71042Q29.940638 187.71042 30.456263 187.49167L30.550013 187.49167L30.550013 188.6323ZM29.721888 190.42917Q29.721888 189.91354 29.456263 189.46042Q29.190638 189.0073 28.768763 188.80417L27.471888 188.80417L27.471888 189.64792Q27.471888 191.64792 28.643763 191.64792Q29.143763 191.64792 29.440638 191.30417Q29.721888 190.96042 29.721888 190.42917ZM27.331263 185.80417Q25.846888 185.80417 24.971888 185.11667Q24.096888 184.42917 24.096888 183.30417Q24.096888 182.14792 24.909388 181.49167L24.206263 181.4448L24.206263 180.4448L30.393763 180.4448Q31.628138 180.4448 32.33126 181.17917Q33.05001 181.91354 33.05001 183.1323Q33.05001 183.8198 32.753136 184.47604Q32.45626 185.1323 31.956263 185.47604L31.300013 184.91354Q32.159386 184.22604 32.159386 183.21042Q32.159386 182.42917 31.706263 181.99167Q31.268763 181.53854 30.456263 181.53854L29.909388 181.53854Q30.675013 182.1948 30.675013 183.3198Q30.675013 184.42917 29.784388 185.11667Q28.878138 185.80417 27.331263 185.80417ZM27.456263 184.71042Q28.518763 184.71042 29.143763 184.27292Q29.753138 183.83542 29.753138 183.03854Q29.753138 182.02292 28.815638 181.53854L25.925013 181.53854Q25.018763 182.03854 25.018763 183.03854Q25.018763 183.8198 25.628138 184.27292Q26.237513 184.71042 27.456263 184.71042ZM30.675013 175.91354Q30.675013 177.21042 29.831263 178.02292Q28.971888 178.8198 27.550013 178.8198L27.362513 178.8198Q26.409388 178.8198 25.675013 178.46042Q24.925013 178.10104 24.518763 177.46042Q24.096888 176.80417 24.096888 176.05417Q24.096888 174.8198 24.909388 174.1323Q25.721888 173.4448 27.237513 173.4448L27.690638 173.4448L27.690638 177.74167Q28.628138 177.71042 29.206263 177.1948Q29.784388 176.66354 29.784388 175.85104Q29.784388 175.28854 29.550013 174.89792Q29.315638 174.49167 28.925013 174.17917L29.440638 173.52292Q30.675013 174.3198 30.675013 175.91354ZM24.987513 176.05417Q24.987513 176.71042 25.471888 177.16354Q25.940638 177.60104 26.800013 177.6948L26.800013 174.52292L26.721888 174.52292Q25.893763 174.5698 25.440638 174.97604Q24.987513 175.36667 24.987513 176.05417ZM27.081263 169.58542Q25.768763 169.58542 24.550013 169.24167Q23.331263 168.8823 22.331263 168.17917Q21.331263 167.47604 20.925013 166.71042L21.643763 166.49167Q22.300013 167.35104 23.643763 167.89792Q24.987513 168.4448 26.659388 168.49167L27.159388 168.5073Q29.425013 168.5073 31.081263 167.67917Q32.08126 167.17917 32.64376 166.49167L33.30001 166.71042Q32.878136 167.49167 31.846888 168.21042Q29.862513 169.58542 27.081263 169.58542ZM26.581263 163.21042L27.659388 164.2573L30.550013 164.2573L30.550013 165.3823L22.018763 165.3823L22.018763 164.2573L26.237513 164.2573L22.018763 160.46042L22.018763 159.10104L25.784388 162.46042L30.550013 158.83542L30.550013 160.17917L26.581263 163.21042ZM30.550013 157.3823L22.018763 157.3823L22.018763 154.58542Q22.018763 153.1948 22.596888 152.5073Q23.159388 151.80417 24.284388 151.80417Q24.893763 151.80417 25.362513 152.14792Q25.815638 152.47604 26.065638 153.0698Q26.253138 152.36667 26.800013 151.97604Q27.331263 151.5698 28.081263 151.5698Q29.237513 151.5698 29.893763 152.3198Q30.550013 153.05417 30.550013 154.41354L30.550013 157.3823ZM26.565638 156.2573L29.628138 156.2573L29.628138 154.39792Q29.628138 153.60104 29.221888 153.14792Q28.815638 152.6948 28.096888 152.6948Q26.565638 152.6948 26.565638 154.3823L26.565638 156.2573ZM25.659388 156.2573L25.659388 154.55417Q25.659388 153.8198 25.300013 153.3823Q24.925013 152.92917 24.284388 152.92917Q23.581263 152.92917 23.268763 153.33542Q22.940638 153.74167 22.940638 154.58542L22.940638 156.2573L25.659388 156.2573ZM27.143763 148.03854Q28.456263 148.03854 29.659388 148.3823Q30.846888 148.72604 31.862513 149.4448Q32.878136 150.14792 33.30001 150.91354L32.64376 151.14792Q31.956263 150.24167 30.503138 149.6948Q29.034388 149.14792 27.268763 149.1323L27.081263 149.1323Q25.846888 149.1323 24.784388 149.39792Q23.721888 149.64792 22.893763 150.11667Q22.050013 150.5698 21.581263 151.14792L20.925013 150.91354Q21.346888 150.14792 22.346888 149.4448Q23.346888 148.74167 24.565638 148.39792Q25.768763 148.03854 27.143763 148.03854Z" fill-rule="nonzero"/><path fill="#757575" d="M92.6125 312.8094Q92.6125 314.71564 91.95625 315.65314Q91.31563 316.575 89.925 316.575Q88.56563 316.575 87.90938 315.66876Q87.25313 314.7625 87.22188 312.95L87.22188 311.5125Q87.22188 309.6219 87.8625 308.71564Q88.51875 307.79376 89.90938 307.79376Q91.28438 307.79376 91.94063 308.6844Q92.59688 309.5594 92.6125 311.40314L92.6125 312.8094ZM91.51875 311.325Q91.51875 309.95 91.12813 309.325Q90.75313 308.6844 89.90938 308.6844Q89.08125 308.6844 88.69063 309.325Q88.31563 309.95 88.31563 311.2469L88.31563 312.98126Q88.31563 314.35626 88.70625 315.02814Q89.1125 315.6844 89.925 315.6844Q90.72188 315.6844 91.1125 315.0594Q91.50313 314.4344 91.51875 313.10626L91.51875 311.325Z" fill-rule="nonzero"/><path fill="#757575" d="M55.815624 260.90833L54.7375 260.90833L54.7375 253.68958L52.55 254.48645L52.55 253.50208L55.659374 252.3302L55.815624 252.3302L55.815624 260.90833ZM64.6125 257.2677Q64.6125 259.17395 63.95625 260.11145Q63.315624 261.03333 61.925 261.03333Q60.565624 261.03333 59.909374 260.12708Q59.253124 259.22083 59.221874 257.40833L59.221874 255.97083Q59.221874 254.0802 59.8625 253.17395Q60.51875 252.25208 61.909374 252.25208Q63.284374 252.25208 63.940624 253.1427Q64.59688 254.0177 64.6125 255.86145L64.6125 257.2677ZM63.51875 255.78333Q63.51875 254.40833 63.128124 253.78333Q62.753124 253.1427 61.909374 253.1427Q61.08125 253.1427 60.690624 253.78333Q60.315624 254.40833 60.315624 255.7052L60.315624 257.43958Q60.315624 258.81458 60.70625 259.48645Q61.1125 260.1427 61.925 260.1427Q62.721874 260.1427 63.1125 259.5177Q63.503124 258.8927 63.51875 257.56458L63.51875 255.78333ZM71.6125 257.2677Q71.6125 259.17395 70.95625 260.11145Q70.31563 261.03333 68.925 261.03333Q67.56563 261.03333 66.90938 260.12708Q66.25313 259.22083 66.22188 257.40833L66.22188 255.97083Q66.22188 254.0802 66.8625 253.17395Q67.51875 252.25208 68.90938 252.25208Q70.28438 252.25208 70.94063 253.1427Q71.59688 254.0177 71.6125 255.86145L71.6125 257.2677ZM70.51875 255.78333Q70.51875 254.40833 70.12813 253.78333Q69.75313 253.1427 68.90938 253.1427Q68.08125 253.1427 67.69063 253.78333Q67.31563 254.40833 67.31563 255.7052L67.31563 257.43958Q67.31563 258.81458 67.70625 259.48645Q68.1125 260.1427 68.925 260.1427Q69.72188 260.1427 70.1125 259.5177Q70.50313 258.8927 70.51875 257.56458L70.51875 255.78333ZM78.6125 257.2677Q78.6125 259.17395 77.95625 260.11145Q77.31563 261.03333 75.925 261.03333Q74.56563 261.03333 73.90938 260.12708Q73.25313 259.22083 73.22188 257.40833L73.22188 255.97083Q73.22188 254.0802 73.8625 253.17395Q74.51875 252.25208 75.90938 252.25208Q77.28438 252.25208 77.94063 253.1427Q78.59688 254.0177 78.6125 255.86145L78.6125 257.2677ZM77.51875 255.78333Q77.51875 254.40833 77.12813 253.78333Q76.75313 253.1427 75.90938 253.1427Q75.08125 253.1427 74.69063 253.78333Q74.31563 254.40833 74.31563 255.7052L74.31563 257.43958Q74.31563 258.81458 74.70625 259.48645Q75.1125 260.1427 75.925 260.1427Q76.72188 260.1427 77.1125 259.5177Q77.50313 258.8927 77.51875 257.56458L77.51875 255.78333ZM85.6125 257.2677Q85.6125 259.17395 84.95625 260.11145Q84.31563 261.03333 82.925 261.03333Q81.56563 261.03333 80.90938 260.12708Q80.25313 259.22083 80.22188 257.40833L80.22188 255.97083Q80.22188 254.0802 80.8625 253.17395Q81.51875 252.25208 82.90938 252.25208Q84.28438 252.25208 84.94063 253.1427Q85.59688 254.0177 85.6125 255.86145L85.6125 257.2677ZM84.51875 255.78333Q84.51875 254.40833 84.12813 253.78333Q83.75313 253.1427 82.90938 253.1427Q82.08125 253.1427 81.69063 253.78333Q81.31563 254.40833 81.31563 255.7052L81.31563 257.43958Q81.31563 258.81458 81.70625 259.48645Q82.1125 260.1427 82.925 260.1427Q83.72188 260.1427 84.1125 259.5177Q84.50313 258.8927 84.51875 257.56458L84.51875 255.78333ZM92.6125 257.2677Q92.6125 259.17395 91.95625 260.11145Q91.31563 261.03333 89.925 261.03333Q88.56563 261.03333 87.90938 260.12708Q87.25313 259.22083 87.22188 257.40833L87.22188 255.97083Q87.22188 254.0802 87.8625 253.17395Q88.51875 252.25208 89.90938 252.25208Q91.28438 252.25208 91.94063 253.1427Q92.59688 254.0177 92.6125 255.86145L92.6125 257.2677ZM91.51875 255.78333Q91.51875 254.40833 91.12813 253.78333Q90.75313 253.1427 89.90938 253.1427Q89.08125 253.1427 88.69063 253.78333Q88.31563 254.40833 88.31563 255.7052L88.31563 257.43958Q88.31563 258.81458 88.70625 259.48645Q89.1125 260.1427 89.925 260.1427Q90.72188 260.1427 91.1125 259.5177Q91.50313 258.8927 91.51875 257.56458L91.51875 255.78333Z" fill-rule="nonzero"/><path fill="#757575" d="M57.846874 205.36667L52.253124 205.36667L52.253124 204.58542L55.20625 201.30417Q55.8625 200.55417 56.1125 200.10104Q56.3625 199.6323 56.3625 199.1323Q56.3625 198.46042 55.95625 198.03854Q55.565624 197.60104 54.878124 197.60104Q54.08125 197.60104 53.628124 198.0698Q53.175 198.52292 53.175 199.35104L52.096874 199.35104Q52.096874 198.16354 52.846874 197.4448Q53.6125 196.71042 54.878124 196.71042Q56.08125 196.71042 56.76875 197.33542Q57.45625 197.96042 57.45625 199.0073Q57.45625 200.2573 55.846874 202.0073L53.565624 204.47604L57.846874 204.47604L57.846874 205.36667ZM64.6125 201.72604Q64.6125 203.6323 63.95625 204.5698Q63.315624 205.49167 61.925 205.49167Q60.565624 205.49167 59.909374 204.58542Q59.253124 203.67917 59.221874 201.86667L59.221874 200.42917Q59.221874 198.53854 59.8625 197.6323Q60.51875 196.71042 61.909374 196.71042Q63.284374 196.71042 63.940624 197.60104Q64.59688 198.47604 64.6125 200.3198L64.6125 201.72604ZM63.51875 200.24167Q63.51875 198.86667 63.128124 198.24167Q62.753124 197.60104 61.909374 197.60104Q61.08125 197.60104 60.690624 198.24167Q60.315624 198.86667 60.315624 200.16354L60.315624 201.89792Q60.315624 203.27292 60.70625 203.9448Q61.1125 204.60104 61.925 204.60104Q62.721874 204.60104 63.1125 203.97604Q63.503124 203.35104 63.51875 202.02292L63.51875 200.24167ZM71.6125 201.72604Q71.6125 203.6323 70.95625 204.5698Q70.31563 205.49167 68.925 205.49167Q67.56563 205.49167 66.90938 204.58542Q66.25313 203.67917 66.22188 201.86667L66.22188 200.42917Q66.22188 198.53854 66.8625 197.6323Q67.51875 196.71042 68.90938 196.71042Q70.28438 196.71042 70.94063 197.60104Q71.59688 198.47604 71.6125 200.3198L71.6125 201.72604ZM70.51875 200.24167Q70.51875 198.86667 70.12813 198.24167Q69.75313 197.60104 68.90938 197.60104Q68.08125 197.60104 67.69063 198.24167Q67.31563 198.86667 67.31563 200.16354L67.31563 201.89792Q67.31563 203.27292 67.70625 203.9448Q68.1125 204.60104 68.925 204.60104Q69.72188 204.60104 70.1125 203.97604Q70.50313 203.35104 70.51875 202.02292L70.51875 200.24167ZM78.6125 201.72604Q78.6125 203.6323 77.95625 204.5698Q77.31563 205.49167 75.925 205.49167Q74.56563 205.49167 73.90938 204.58542Q73.25313 203.67917 73.22188 201.86667L73.22188 200.42917Q73.22188 198.53854 73.8625 197.6323Q74.51875 196.71042 75.90938 196.71042Q77.28438 196.71042 77.94063 197.60104Q78.59688 198.47604 78.6125 200.3198L78.6125 201.72604ZM77.51875 200.24167Q77.51875 198.86667 77.12813 198.24167Q76.75313 197.60104 75.90938 197.60104Q75.08125 197.60104 74.69063 198.24167Q74.31563 198.86667 74.31563 200.16354L74.31563 201.89792Q74.31563 203.27292 74.70625 203.9448Q75.1125 204.60104 75.925 204.60104Q76.72188 204.60104 77.1125 203.97604Q77.50313 203.35104 77.51875 202.02292L77.51875 200.24167ZM85.6125 201.72604Q85.6125 203.6323 84.95625 204.5698Q84.31563 205.49167 82.925 205.49167Q81.56563 205.49167 80.90938 204.58542Q80.25313 203.67917 80.22188 201.86667L80.22188 200.42917Q80.22188 198.53854 80.8625 197.6323Q81.51875 196.71042 82.90938 196.71042Q84.28438 196.71042 84.94063 197.60104Q85.59688 198.47604 85.6125 200.3198L85.6125 201.72604ZM84.51875 200.24167Q84.51875 198.86667 84.12813 198.24167Q83.75313 197.60104 82.90938 197.60104Q82.08125 197.60104 81.69063 198.24167Q81.31563 198.86667 81.31563 200.16354L81.31563 201.89792Q81.31563 203.27292 81.70625 203.9448Q82.1125 204.60104 82.925 204.60104Q83.72188 204.60104 84.1125 203.97604Q84.50313 203.35104 84.51875 202.02292L84.51875 200.24167ZM92.6125 201.72604Q92.6125 203.6323 91.95625 204.5698Q91.31563 205.49167 89.925 205.49167Q88.56563 205.49167 87.90938 204.58542Q87.25313 203.67917 87.22188 201.86667L87.22188 200.42917Q87.22188 198.53854 87.8625 197.6323Q88.51875 196.71042 89.90938 196.71042Q91.28438 196.71042 91.94063 197.60104Q92.59688 198.47604 92.6125 200.3198L92.6125 201.72604ZM91.51875 200.24167Q91.51875 198.86667 91.12813 198.24167Q90.75313 197.60104 89.90938 197.60104Q89.08125 197.60104 88.69063 198.24167Q88.31563 198.86667 88.31563 200.16354L88.31563 201.89792Q88.31563 203.27292 88.70625 203.9448Q89.1125 204.60104 89.925 204.60104Q90.72188 204.60104 91.1125 203.97604Q91.50313 203.35104 91.51875 202.02292L91.51875 200.24167Z" fill-rule="nonzero"/><path fill="#757575" d="M53.83125 145.02812L54.64375 145.02812Q55.425 145.0125 55.8625 144.62187Q56.3 144.23125 56.3 143.55937Q56.3 142.05937 54.8 142.05937Q54.096874 142.05937 53.675 142.46562Q53.26875 142.87187 53.26875 143.52812L52.175 143.52812Q52.175 142.5125 52.909374 141.84062Q53.659374 141.16875 54.8 141.16875Q56.003124 141.16875 56.690624 141.80937Q57.378124 142.45 57.378124 143.59062Q57.378124 144.15312 57.01875 144.66875Q56.659374 145.18437 56.034374 145.45Q56.7375 145.66875 57.1125 146.18437Q57.503124 146.7 57.503124 147.45Q57.503124 148.59062 56.753124 149.27812Q56.003124 149.95 54.8 149.95Q53.6125 149.95 52.846874 149.29375Q52.096874 148.6375 52.096874 147.575L53.190624 147.575Q53.190624 148.24687 53.628124 148.65312Q54.065624 149.05937 54.815624 149.05937Q55.596874 149.05937 56.003124 148.65312Q56.425 148.23125 56.425 147.46562Q56.425 146.73125 55.971874 146.34062Q55.51875 145.93437 54.64375 145.91875L53.83125 145.91875L53.83125 145.02812ZM64.6125 146.18437Q64.6125 148.09062 63.95625 149.02812Q63.315624 149.95 61.925 149.95Q60.565624 149.95 59.909374 149.04375Q59.253124 148.1375 59.221874 146.325L59.221874 144.8875Q59.221874 142.99687 59.8625 142.09062Q60.51875 141.16875 61.909374 141.16875Q63.284374 141.16875 63.940624 142.05937Q64.59688 142.93437 64.6125 144.77812L64.6125 146.18437ZM63.51875 144.7Q63.51875 143.325 63.128124 142.7Q62.753124 142.05937 61.909374 142.05937Q61.08125 142.05937 60.690624 142.7Q60.315624 143.325 60.315624 144.62187L60.315624 146.35625Q60.315624 147.73125 60.70625 148.40312Q61.1125 149.05937 61.925 149.05937Q62.721874 149.05937 63.1125 148.43437Q63.503124 147.80937 63.51875 146.48125L63.51875 144.7ZM71.6125 146.18437Q71.6125 148.09062 70.95625 149.02812Q70.31563 149.95 68.925 149.95Q67.56563 149.95 66.90938 149.04375Q66.25313 148.1375 66.22188 146.325L66.22188 144.8875Q66.22188 142.99687 66.8625 142.09062Q67.51875 141.16875 68.90938 141.16875Q70.28438 141.16875 70.94063 142.05937Q71.59688 142.93437 71.6125 144.77812L71.6125 146.18437ZM70.51875 144.7Q70.51875 143.325 70.12813 142.7Q69.75313 142.05937 68.90938 142.05937Q68.08125 142.05937 67.69063 142.7Q67.31563 143.325 67.31563 144.62187L67.31563 146.35625Q67.31563 147.73125 67.70625 148.40312Q68.1125 149.05937 68.925 149.05937Q69.72188 149.05937 70.1125 148.43437Q70.50313 147.80937 70.51875 146.48125L70.51875 144.7ZM78.6125 146.18437Q78.6125 148.09062 77.95625 149.02812Q77.31563 149.95 75.925 149.95Q74.56563 149.95 73.90938 149.04375Q73.25313 148.1375 73.22188 146.325L73.22188 144.8875Q73.22188 142.99687 73.8625 142.09062Q74.51875 141.16875 75.90938 141.16875Q77.28438 141.16875 77.94063 142.05937Q78.59688 142.93437 78.6125 144.77812L78.6125 146.18437ZM77.51875 144.7Q77.51875 143.325 77.12813 142.7Q76.75313 142.05937 75.90938 142.05937Q75.08125 142.05937 74.69063 142.7Q74.31563 143.325 74.31563 144.62187L74.31563 146.35625Q74.31563 147.73125 74.70625 148.40312Q75.1125 149.05937 75.925 149.05937Q76.72188 149.05937 77.1125 148.43437Q77.50313 147.80937 77.51875 146.48125L77.51875 144.7ZM85.6125 146.18437Q85.6125 148.09062 84.95625 149.02812Q84.31563 149.95 82.925 149.95Q81.56563 149.95 80.90938 149.04375Q80.25313 148.1375 80.22188 146.325L80.22188 144.8875Q80.22188 142.99687 80.8625 142.09062Q81.51875 141.16875 82.90938 141.16875Q84.28438 141.16875 84.94063 142.05937Q85.59688 142.93437 85.6125 144.77812L85.6125 146.18437ZM84.51875 144.7Q84.51875 143.325 84.12813 142.7Q83.75313 142.05937 82.90938 142.05937Q82.08125 142.05937 81.69063 142.7Q81.31563 143.325 81.31563 144.62187L81.31563 146.35625Q81.31563 147.73125 81.70625 148.40312Q82.1125 149.05937 82.925 149.05937Q83.72188 149.05937 84.1125 148.43437Q84.50313 147.80937 84.51875 146.48125L84.51875 144.7ZM92.6125 146.18437Q92.6125 148.09062 91.95625 149.02812Q91.31563 149.95 89.925 149.95Q88.56563 149.95 87.90938 149.04375Q87.25313 148.1375 87.22188 146.325L87.22188 144.8875Q87.22188 142.99687 87.8625 142.09062Q88.51875 141.16875 89.90938 141.16875Q91.28438 141.16875 91.94063 142.05937Q92.59688 142.93437 92.6125 144.77812L92.6125 146.18437ZM91.51875 144.7Q91.51875 143.325 91.12813 142.7Q90.75313 142.05937 89.90938 142.05937Q89.08125 142.05937 88.69063 142.7Q88.31563 143.325 88.31563 144.62187L88.31563 146.35625Q88.31563 147.73125 88.70625 148.40312Q89.1125 149.05937 89.925 149.05937Q90.72188 149.05937 91.1125 148.43437Q91.50313 147.80937 91.51875 146.48125L91.51875 144.7Z" fill-rule="nonzero"/><path fill="#757575" d="M56.83125 91.42396L58.01875 91.42396L58.01875 92.29896L56.83125 92.29896L56.83125 94.28333L55.753124 94.28333L55.753124 92.29896L51.8625 92.29896L51.8625 91.65833L55.675 85.75208L56.83125 85.75208L56.83125 91.42396ZM53.096874 91.42396L55.753124 91.42396L55.753124 87.23646L55.6125 87.47083L53.096874 91.42396ZM64.6125 90.64271Q64.6125 92.54896 63.95625 93.48646Q63.315624 94.40833 61.925 94.40833Q60.565624 94.40833 59.909374 93.50208Q59.253124 92.59583 59.221874 90.78333L59.221874 89.34583Q59.221874 87.45521 59.8625 86.54896Q60.51875 85.62708 61.909374 85.62708Q63.284374 85.62708 63.940624 86.51771Q64.59688 87.39271 64.6125 89.23646L64.6125 90.64271ZM63.51875 89.15833Q63.51875 87.78333 63.128124 87.15833Q62.753124 86.51771 61.909374 86.51771Q61.08125 86.51771 60.690624 87.15833Q60.315624 87.78333 60.315624 89.08021L60.315624 90.81458Q60.315624 92.18958 60.70625 92.86146Q61.1125 93.51771 61.925 93.51771Q62.721874 93.51771 63.1125 92.89271Q63.503124 92.26771 63.51875 90.93958L63.51875 89.15833ZM71.6125 90.64271Q71.6125 92.54896 70.95625 93.48646Q70.31563 94.40833 68.925 94.40833Q67.56563 94.40833 66.90938 93.50208Q66.25313 92.59583 66.22188 90.78333L66.22188 89.34583Q66.22188 87.45521 66.8625 86.54896Q67.51875 85.62708 68.90938 85.62708Q70.28438 85.62708 70.94063 86.51771Q71.59688 87.39271 71.6125 89.23646L71.6125 90.64271ZM70.51875 89.15833Q70.51875 87.78333 70.12813 87.15833Q69.75313 86.51771 68.90938 86.51771Q68.08125 86.51771 67.69063 87.15833Q67.31563 87.78333 67.31563 89.08021L67.31563 90.81458Q67.31563 92.18958 67.70625 92.86146Q68.1125 93.51771 68.925 93.51771Q69.72188 93.51771 70.1125 92.89271Q70.50313 92.26771 70.51875 90.93958L70.51875 89.15833ZM78.6125 90.64271Q78.6125 92.54896 77.95625 93.48646Q77.31563 94.40833 75.925 94.40833Q74.56563 94.40833 73.90938 93.50208Q73.25313 92.59583 73.22188 90.78333L73.22188 89.34583Q73.22188 87.45521 73.8625 86.54896Q74.51875 85.62708 75.90938 85.62708Q77.28438 85.62708 77.94063 86.51771Q78.59688 87.39271 78.6125 89.23646L78.6125 90.64271ZM77.51875 89.15833Q77.51875 87.78333 77.12813 87.15833Q76.75313 86.51771 75.90938 86.51771Q75.08125 86.51771 74.69063 87.15833Q74.31563 87.78333 74.31563 89.08021L74.31563 90.81458Q74.31563 92.18958 74.70625 92.86146Q75.1125 93.51771 75.925 93.51771Q76.72188 93.51771 77.1125 92.89271Q77.50313 92.26771 77.51875 90.93958L77.51875 89.15833ZM85.6125 90.64271Q85.6125 92.54896 84.95625 93.48646Q84.31563 94.40833 82.925 94.40833Q81.56563 94.40833 80.90938 93.50208Q80.25313 92.59583 80.22188 90.78333L80.22188 89.34583Q80.22188 87.45521 80.8625 86.54896Q81.51875 85.62708 82.90938 85.62708Q84.28438 85.62708 84.94063 86.51771Q85.59688 87.39271 85.6125 89.23646L85.6125 90.64271ZM84.51875 89.15833Q84.51875 87.78333 84.12813 87.15833Q83.75313 86.51771 82.90938 86.51771Q82.08125 86.51771 81.69063 87.15833Q81.31563 87.78333 81.31563 89.08021L81.31563 90.81458Q81.31563 92.18958 81.70625 92.86146Q82.1125 93.51771 82.925 93.51771Q83.72188 93.51771 84.1125 92.89271Q84.50313 92.26771 84.51875 90.93958L84.51875 89.15833ZM92.6125 90.64271Q92.6125 92.54896 91.95625 93.48646Q91.31563 94.40833 89.925 94.40833Q88.56563 94.40833 87.90938 93.50208Q87.25313 92.59583 87.22188 90.78333L87.22188 89.34583Q87.22188 87.45521 87.8625 86.54896Q88.51875 85.62708 89.90938 85.62708Q91.28438 85.62708 91.94063 86.51771Q92.59688 87.39271 92.6125 89.23646L92.6125 90.64271ZM91.51875 89.15833Q91.51875 87.78333 91.12813 87.15833Q90.75313 86.51771 89.90938 86.51771Q89.08125 86.51771 88.69063 87.15833Q88.31563 87.78333 88.31563 89.08021L88.31563 90.81458Q88.31563 92.18958 88.70625 92.86146Q89.1125 93.51771 89.925 93.51771Q90.72188 93.51771 91.1125 92.89271Q91.50313 92.26771 91.51875 90.93958L91.51875 89.15833Z" fill-rule="nonzero"/><path stroke="#4285f4" stroke-width="4.0" stroke-linecap="butt" d="M231.5 62.416668L243.5 62.416668" fill-rule="nonzero"/><path fill="#757575" d="M256.0625 58.385414L257.20312 58.385414L257.20312 64.43229Q257.20312 65.65104 256.45312 66.354164Q255.71875 67.041664 254.5 67.041664Q253.23438 67.041664 252.51562 66.385414Q251.8125 65.729164 251.8125 64.55729L252.9375 64.55729Q252.9375 65.291664 253.32812 65.71354Q253.73438 66.11979 254.5 66.11979Q255.20312 66.11979 255.625 65.68229Q256.0625 65.229164 256.0625 64.447914L256.0625 58.385414ZM263.23438 66.916664Q263.14062 66.729164 263.07812 66.24479Q262.32812 67.041664 261.28125 67.041664Q260.34375 67.041664 259.73438 66.510414Q259.14062 65.979164 259.14062 65.15104Q259.14062 64.166664 259.89062 63.61979Q260.64062 63.072914 262.01562 63.072914L263.0625 63.072914L263.0625 62.572914Q263.0625 62.010414 262.71875 61.68229Q262.39062 61.33854 261.71875 61.33854Q261.14062 61.33854 260.75 61.635414Q260.35938 61.916664 260.35938 62.33854L259.26562 62.33854Q259.26562 61.854164 259.59375 61.416664Q259.9375 60.979164 260.51562 60.729164Q261.09375 60.46354 261.78125 60.46354Q262.89062 60.46354 263.5 61.010414Q264.125 61.55729 264.15625 62.510414L264.15625 65.43229Q264.15625 66.30729 264.375 66.822914L264.375 66.916664L263.23438 66.916664ZM261.4375 66.08854Q261.95312 66.08854 262.40625 65.822914Q262.85938 65.55729 263.0625 65.135414L263.0625 63.83854L262.21875 63.83854Q260.21875 63.83854 260.21875 65.010414Q260.21875 65.510414 260.5625 65.80729Q260.90625 66.08854 261.4375 66.08854ZM268.40625 65.447914L269.98438 60.572914L271.09375 60.572914L268.8125 66.916664L267.98438 66.916664L265.6875 60.572914L266.79688 60.572914L268.40625 65.447914ZM276.23438 66.916664Q276.14062 66.729164 276.07812 66.24479Q275.32812 67.041664 274.28125 67.041664Q273.34375 67.041664 272.73438 66.510414Q272.14062 65.979164 272.14062 65.15104Q272.14062 64.166664 272.89062 63.61979Q273.64062 63.072914 275.01562 63.072914L276.0625 63.072914L276.0625 62.572914Q276.0625 62.010414 275.71875 61.68229Q275.39062 61.33854 274.71875 61.33854Q274.14062 61.33854 273.75 61.635414Q273.35938 61.916664 273.35938 62.33854L272.26562 62.33854Q272.26562 61.854164 272.59375 61.416664Q272.9375 60.979164 273.51562 60.729164Q274.09375 60.46354 274.78125 60.46354Q275.89062 60.46354 276.5 61.010414Q277.125 61.55729 277.15625 62.510414L277.15625 65.43229Q277.15625 66.30729 277.375 66.822914L277.375 66.916664L276.23438 66.916664ZM274.4375 66.08854Q274.95312 66.08854 275.40625 65.822914Q275.85938 65.55729 276.0625 65.135414L276.0625 63.83854L275.21875 63.83854Q273.21875 63.83854 273.21875 65.010414Q273.21875 65.510414 273.5625 65.80729Q273.90625 66.08854 274.4375 66.08854ZM287.39062 60.604164Q287.39062 61.24479 287.04688 61.74479Q286.70312 62.24479 286.14062 62.52604Q286.79688 62.80729 287.1875 63.36979Q287.57812 63.916664 287.57812 64.61979Q287.57812 65.71354 286.82812 66.385414Q286.09375 67.041664 284.875 67.041664Q283.64062 67.041664 282.89062 66.385414Q282.15625 65.71354 282.15625 64.61979Q282.15625 63.916664 282.53125 63.36979Q282.90625 62.80729 283.57812 62.52604Q283.01562 62.24479 282.6875 61.74479Q282.35938 61.24479 282.35938 60.604164Q282.35938 59.52604 283.04688 58.90104Q283.73438 58.260414 284.875 58.260414Q286.0 58.260414 286.6875 58.90104Q287.39062 59.52604 287.39062 60.604164ZM286.5 64.58854Q286.5 63.86979 286.04688 63.43229Q285.59375 62.979164 284.85938 62.979164Q284.125 62.979164 283.67188 63.43229Q283.23438 63.86979 283.23438 64.604164Q283.23438 65.322914 283.67188 65.74479Q284.10938 66.15104 284.875 66.15104Q285.625 66.15104 286.0625 65.729164Q286.5 65.30729 286.5 64.58854ZM284.875 59.15104Q284.23438 59.15104 283.82812 59.55729Q283.4375 59.947914 283.4375 60.635414Q283.4375 61.27604 283.82812 61.68229Q284.21875 62.08854 284.85938 62.08854Q285.51562 62.08854 285.90625 61.68229Q286.29688 61.27604 286.29688 60.635414Q286.29688 59.979164 285.89062 59.572914Q285.48438 59.15104 284.875 59.15104Z" fill-rule="nonzero"/><path stroke="#db4437" stroke-width="4.0" stroke-linecap="butt" d="M304.5 62.416668L316.5 62.416668" fill-rule="nonzero"/><path fill="#757575" d="M329.0625 58.385414L330.20312 58.385414L330.20312 64.43229Q330.20312 65.65104 329.45312 66.354164Q328.71875 67.041664 327.5 67.041664Q326.23438 67.041664 325.51562 66.385414Q324.8125 65.729164 324.8125 64.55729L325.9375 64.55729Q325.9375 65.291664 326.32812 65.71354Q326.73438 66.11979 327.5 66.11979Q328.20312 66.11979 328.625 65.68229Q329.0625 65.229164 329.0625 64.447914L329.0625 58.385414ZM336.23438 66.916664Q336.14062 66.729164 336.07812 66.24479Q335.32812 67.041664 334.28125 67.041664Q333.34375 67.041664 332.73438 66.510414Q332.14062 65.979164 332.14062 65.15104Q332.14062 64.166664 332.89062 63.61979Q333.64062 63.072914 335.01562 63.072914L336.0625 63.072914L336.0625 62.572914Q336.0625 62.010414 335.71875 61.68229Q335.39062 61.33854 334.71875 61.33854Q334.14062 61.33854 333.75 61.635414Q333.35938 61.916664 333.35938 62.33854L332.26562 62.33854Q332.26562 61.854164 332.59375 61.416664Q332.9375 60.979164 333.51562 60.729164Q334.09375 60.46354 334.78125 60.46354Q335.89062 60.46354 336.5 61.010414Q337.125 61.55729 337.15625 62.510414L337.15625 65.43229Q337.15625 66.30729 337.375 66.822914L337.375 66.916664L336.23438 66.916664ZM334.4375 66.08854Q334.95312 66.08854 335.40625 65.822914Q335.85938 65.55729 336.0625 65.135414L336.0625 63.83854L335.21875 63.83854Q333.21875 63.83854 333.21875 65.010414Q333.21875 65.510414 333.5625 65.80729Q333.90625 66.08854 334.4375 66.08854ZM341.40625 65.447914L342.98438 60.572914L344.09375 60.572914L341.8125 66.916664L340.98438 66.916664L338.6875 60.572914L339.79688 60.572914L341.40625 65.447914ZM349.23438 66.916664Q349.14062 66.729164 349.07812 66.24479Q348.32812 67.041664 347.28125 67.041664Q346.34375 67.041664 345.73438 66.510414Q345.14062 65.979164 345.14062 65.15104Q345.14062 64.166664 345.89062 63.61979Q346.64062 63.072914 348.01562 63.072914L349.0625 63.072914L349.0625 62.572914Q349.0625 62.010414 348.71875 61.68229Q348.39062 61.33854 347.71875 61.33854Q347.14062 61.33854 346.75 61.635414Q346.35938 61.916664 346.35938 62.33854L345.26562 62.33854Q345.26562 61.854164 345.59375 61.416664Q345.9375 60.979164 346.51562 60.729164Q347.09375 60.46354 347.78125 60.46354Q348.89062 60.46354 349.5 61.010414Q350.125 61.55729 350.15625 62.510414L350.15625 65.43229Q350.15625 66.30729 350.375 66.822914L350.375 66.916664L349.23438 66.916664ZM347.4375 66.08854Q347.95312 66.08854 348.40625 65.822914Q348.85938 65.55729 349.0625 65.135414L349.0625 63.83854L348.21875 63.83854Q346.21875 63.83854 346.21875 65.010414Q346.21875 65.510414 346.5625 65.80729Q346.90625 66.08854 347.4375 66.08854ZM358.76562 66.916664L357.6875 66.916664L357.6875 59.697914L355.5 60.49479L355.5 59.510414L358.60938 58.33854L358.76562 58.33854L358.76562 66.916664ZM365.76562 66.916664L364.6875 66.916664L364.6875 59.697914L362.5 60.49479L362.5 59.510414L365.60938 58.33854L365.76562 58.33854L365.76562 66.916664Z" fill-rule="nonzero"/><path fill="#757575" d="M24.39375 31.20625Q21.971874 30.51875 20.878124 29.51875Q19.784374 28.503124 19.784374 27.01875Q19.784374 25.33125 21.128124 24.2375Q22.471874 23.128124 24.6125 23.128124Q26.08125 23.128124 27.221874 23.70625Q28.378124 24.26875 29.003124 25.26875Q29.628124 26.253124 29.628124 27.440624L27.753124 27.440624Q27.753124 26.159374 26.925 25.425Q26.1125 24.675 24.6125 24.675Q23.221874 24.675 22.440624 25.284374Q21.675 25.89375 21.675 26.9875Q21.675 27.846874 22.409374 28.45625Q23.14375 29.05 24.909374 29.55Q26.690624 30.05 27.690624 30.659374Q28.690624 31.253124 29.175 32.05Q29.659374 32.846874 29.659374 33.940624Q29.659374 35.659374 28.315624 36.70625Q26.971874 37.753124 24.70625 37.753124Q23.253124 37.753124 21.971874 37.190624Q20.70625 36.628124 20.01875 35.659374Q19.33125 34.675 19.33125 33.425L21.221874 33.425Q21.221874 34.721874 22.175 35.471874Q23.128124 36.20625 24.70625 36.20625Q26.190624 36.20625 26.9875 35.6125Q27.784374 35.003124 27.784374 33.95625Q27.784374 32.909374 27.05 32.346874Q26.315624 31.76875 24.39375 31.20625ZM34.20625 37.55L32.33125 37.55L32.33125 23.33125L34.20625 23.33125L34.20625 37.55ZM38.6125 36.01875L46.7375 36.01875L46.7375 37.55L36.39375 37.55L36.39375 36.14375L44.190624 24.878124L36.51875 24.878124L36.51875 23.33125L46.425 23.33125L46.425 24.70625L38.6125 36.01875ZM57.2375 30.971874L51.08125 30.971874L51.08125 36.01875L58.2375 36.01875L58.2375 37.55L49.20625 37.55L49.20625 23.33125L58.14375 23.33125L58.14375 24.878124L51.08125 24.878124L51.08125 29.440624L57.2375 29.440624L57.2375 30.971874Z" fill-rule="nonzero"/></svg>