<svg version="1.1" viewBox="0.0 0.0 600.0 371.0" fill="none" stroke="none" stroke-linecap="square" stroke-miterlimit="10" width="600" height="371" xmlns:xlink="http://www.w3.org/1999/xlink" xmlns="http://www.w3.org/2000/svg"><path fill="#ffffff" d="M0 0L600.0 0L600.0 371.0L0 371.0L0 0Z" fill-rule="nonzero"/><path stroke="#333333" stroke-width="1.0" stroke-linecap="butt" d="M106.5 311.5L581.5 311.5" fill-rule="nonzero"/><path stroke="#cccccc" stroke-width="1.0" stroke-linecap="butt" d="M106.5 256.5L581.5 256.5" fill-rule="nonzero"/><path stroke="#cccccc" stroke-width="1.0" stroke-linecap="butt" d="M106.5 200.5L581.5 200.5" fill-rule="nonzero"/><path stroke="#cccccc" stroke-width="1.0" stroke-linecap="butt" d="M106.5 145.5L581.5 145.5" fill-rule="nonzero"/><path stroke="#cccccc" stroke-width="1.0" stroke-linecap="butt" d="M106.5 89.5L581.5 89.5" fill-rule="nonzero"/><clipPath id="id_0"><path d="M106.55 89.78333L581.45 89.78333L581.45 311.95L106.55 311.95L106.55 89.78333Z" clip-rule="nonzero"/></clipPath><path stroke="#4285f4" stroke-width="2.0" stroke-linecap="butt" clip-path="url(#id_0)" d="M111.299 291.0841L120.797 273.05127L130.295 254.36395L139.793 254.36395L149.291 254.36395L158.789 254.36395L168.287 254.36395L177.785 254.36395L187.283 254.36395L196.781 254.36395L206.279 254.36395L215.777 254.36395L225.275 254.36395L234.773 254.36395L244.271 244.23938L253.769 223.99022L263.267 213.86563L272.765 193.61649L282.263 183.4919L291.761 163.24274L301.259 142.99358L310.757 141.0594L320.255 141.0594L329.753 141.0594L339.251 141.0594L348.749 141.0594L358.247 141.0594L367.745 141.0594L377.243 141.0594L386.741 141.0594L396.239 141.0594L405.737 141.0594L415.235 141.0594L424.733 141.0594L434.231 140.94565L443.729 140.94565L453.227 140.94565L462.725 140.94565L472.223 140.94565L481.721 140.94565L491.219 140.94565L500.717 140.94565L510.215 140.94565L519.713 140.94565L529.211 140.94565L538.709 140.94565L548.207 140.94565L557.705 140.94565L567.203 140.94565L576.701 140.94565" fill-rule="nonzero"/><path stroke="#db4437" stroke-width="2.0" stroke-linecap="butt" clip-path="url(#id_0)" d="M111.299 290.8366L120.797 273.0824L130.295 270.10934L139.793 254.4115L149.291 254.4115L158.789 254.4115L168.287 254.4115L177.785 254.4115L187.283 254.4115L196.781 254.4115L206.279 254.4115L215.777 254.4115L225.275 254.4115L234.773 254.4115L244.271 254.4115L253.769 254.4115L263.267 254.4115L272.765 254.4115L282.263 244.28693L291.761 224.03777L301.259 224.03777L310.757 203.7886L320.255 193.66402L329.753 183.53944L339.251 163.29028L348.749 163.29028L358.247 143.04112L367.745 141.10695L377.243 140.9932L386.741 140.9932L396.239 140.9932L405.737 140.9932L415.235 140.9932L424.733 140.9932L434.231 140.9932L443.729 140.9932L453.227 140.9932L462.725 140.9932L472.223 140.9932L481.721 140.9932L491.219 140.9932L500.717 140.9932L510.215 140.9932L519.713 140.9932L529.211 140.9932L538.709 140.9932L548.207 140.9932L557.705 140.9932L567.203 140.9932L576.701 140.9932" fill-rule="nonzero"/><path fill="#000000" fill-opacity="0.0" clip-path="url(#id_0)" d="M114.299 291.0841C114.299 292.74097 112.95586 294.0841 111.299 294.0841C109.64214 294.0841 108.299 292.74097 108.299 291.0841C108.299 289.42725 109.64214 288.0841 111.299 288.0841C112.95586 288.0841 114.299 289.42725 114.299 291.0841Z" fill-rule="nonzero"/><path fill="#000000" fill-opacity="0.0" clip-path="url(#id_0)" d="M123.797 273.05127C123.797 274.70813 122.45386 276.05127 120.797 276.05127C119.140144 276.05127 117.797 274.70813 117.797 273.05127C117.797 271.39444 119.140144 270.05127 120.797 270.05127C122.45386 270.05127 123.797 271.39444 123.797 273.05127Z" fill-rule="nonzero"/><path fill="#000000" fill-opacity="0.0" clip-path="url(#id_0)" d="M133.295 254.36395C133.295 256.0208 131.95186 257.36395 130.295 257.36395C128.63815 257.36395 127.295 256.0208 127.295 254.36395C127.295 252.7071 128.63815 251.36395 130.295 251.36395C131.95186 251.36395 133.295 252.7071 133.295 254.36395Z" fill-rule="nonzero"/><path fill="#000000" fill-opacity="0.0" clip-path="url(#id_0)" d="M142.793 254.36395C142.793 256.0208 141.44986 257.36395 139.793 257.36395C138.13614 257.36395 136.793 256.0208 136.793 254.36395C136.793 252.7071 138.13614 251.36395 139.793 251.36395C141.44986 251.36395 142.793 252.7071 142.793 254.36395Z" fill-rule="nonzero"/><path fill="#000000" fill-opacity="0.0" clip-path="url(#id_0)" d="M152.291 254.36395C152.291 256.0208 150.94786 257.36395 149.291 257.36395C147.63414 257.36395 146.291 256.0208 146.291 254.36395C146.291 252.7071 147.63414 251.36395 149.291 251.36395C150.94786 251.36395 152.291 252.7071 152.291 254.36395Z" fill-rule="nonzero"/><path fill="#000000" fill-opacity="0.0" clip-path="url(#id_0)" d="M161.789 254.36395C161.789 256.0208 160.44586 257.36395 158.789 257.36395C157.13214 257.36395 155.789 256.0208 155.789 254.36395C155.789 252.7071 157.13214 251.36395 158.789 251.36395C160.44586 251.36395 161.789 252.7071 161.789 254.36395Z" fill-rule="nonzero"/><path fill="#000000" fill-opacity="0.0" clip-path="url(#id_0)" d="M171.287 254.36395C171.287 256.0208 169.94385 257.36395 168.287 257.36395C166.63014 257.36395 165.287 256.0208 165.287 254.36395C165.287 252.7071 166.63014 251.36395 168.287 251.36395C169.94385 251.36395 171.287 252.7071 171.287 254.36395Z" fill-rule="nonzero"/><path fill="#000000" fill-opacity="0.0" clip-path="url(#id_0)" d="M180.785 254.36395C180.785 256.0208 179.44185 257.36395 177.785 257.36395C176.12814 257.36395 174.785 256.0208 174.785 254.36395C174.785 252.7071 176.12814 251.36395 177.785 251.36395C179.44185 251.36395 180.785 252.7071 180.785 254.36395Z" fill-rule="nonzero"/><path fill="#000000" fill-opacity="0.0" clip-path="url(#id_0)" d="M190.283 254.36395C190.283 256.0208 188.93985 257.36395 187.283 257.36395C185.62614 257.36395 184.283 256.0208 184.283 254.36395C184.283 252.7071 185.62614 251.36395 187.283 251.36395C188.93985 251.36395 190.283 252.7071 190.283 254.36395Z" fill-rule="nonzero"/><path fill="#000000" fill-opacity="0.0" clip-path="url(#id_0)" d="M199.781 254.36395C199.781 256.0208 198.43785 257.36395 196.781 257.36395C195.12415 257.36395 193.781 256.0208 193.781 254.36395C193.781 252.7071 195.12415 251.36395 196.781 251.36395C198.43785 251.36395 199.781 252.7071 199.781 254.36395Z" fill-rule="nonzero"/><path fill="#000000" fill-opacity="0.0" clip-path="url(#id_0)" d="M209.279 254.36395C209.279 256.0208 207.93585 257.36395 206.279 257.36395C204.62215 257.36395 203.279 256.0208 203.279 254.36395C203.279 252.7071 204.62215 251.36395 206.279 251.36395C207.93585 251.36395 209.279 252.7071 209.279 254.36395Z" fill-rule="nonzero"/><path fill="#000000" fill-opacity="0.0" clip-path="url(#id_0)" d="M218.777 254.36395C218.777 256.0208 217.43385 257.36395 215.777 257.36395C214.12015 257.36395 212.777 256.0208 212.777 254.36395C212.777 252.7071 214.12015 251.36395 215.777 251.36395C217.43385 251.36395 218.777 252.7071 218.777 254.36395Z" fill-rule="nonzero"/><path fill="#000000" fill-opacity="0.0" clip-path="url(#id_0)" d="M228.275 254.36395C228.275 256.0208 226.93185 257.36395 225.275 257.36395C223.61815 257.36395 222.275 256.0208 222.275 254.36395C222.275 252.7071 223.61815 251.36395 225.275 251.36395C226.93185 251.36395 228.275 252.7071 228.275 254.36395Z" fill-rule="nonzero"/><path fill="#000000" fill-opacity="0.0" clip-path="url(#id_0)" d="M237.773 254.36395C237.773 256.0208 236.42986 257.36395 234.773 257.36395C233.11615 257.36395 231.773 256.0208 231.773 254.36395C231.773 252.7071 233.11615 251.36395 234.773 251.36395C236.42986 251.36395 237.773 252.7071 237.773 254.36395Z" fill-rule="nonzero"/><path fill="#000000" fill-opacity="0.0" clip-path="url(#id_0)" d="M247.271 244.23938C247.271 245.89622 245.92786 247.23938 244.271 247.23938C242.61415 247.23938 241.271 245.89622 241.271 244.23938C241.271 242.58252 242.61415 241.23938 244.271 241.23938C245.92786 241.23938 247.271 242.58252 247.271 244.23938Z" fill-rule="nonzero"/><path fill="#000000" fill-opacity="0.0" clip-path="url(#id_0)" d="M256.769 223.99022C256.769 225.64708 255.42586 226.99022 253.769 226.99022C252.11215 226.99022 250.769 225.64708 250.769 223.99022C250.769 222.33336 252.11215 220.99022 253.769 220.99022C255.42586 220.99022 256.769 222.33336 256.769 223.99022Z" fill-rule="nonzero"/><path fill="#000000" fill-opacity="0.0" clip-path="url(#id_0)" d="M266.267 213.86563C266.267 215.52249 264.92386 216.86563 263.267 216.86563C261.61014 216.86563 260.267 215.52249 260.267 213.86563C260.267 212.20879 261.61014 210.86563 263.267 210.86563C264.92386 210.86563 266.267 212.20879 266.267 213.86563Z" fill-rule="nonzero"/><path fill="#000000" fill-opacity="0.0" clip-path="url(#id_0)" d="M275.765 193.61649C275.765 195.27333 274.42184 196.61649 272.765 196.61649C271.10815 196.61649 269.765 195.27333 269.765 193.61649C269.765 191.95963 271.10815 190.61649 272.765 190.61649C274.42184 190.61649 275.765 191.95963 275.765 193.61649Z" fill-rule="nonzero"/><path fill="#000000" fill-opacity="0.0" clip-path="url(#id_0)" d="M285.263 183.4919C285.263 185.14876 283.91986 186.4919 282.263 186.4919C280.60614 186.4919 279.263 185.14876 279.263 183.4919C279.263 181.83505 280.60614 180.4919 282.263 180.4919C283.91986 180.4919 285.263 181.83505 285.263 183.4919Z" fill-rule="nonzero"/><path fill="#000000" fill-opacity="0.0" clip-path="url(#id_0)" d="M294.761 163.24274C294.761 164.8996 293.41785 166.24274 291.761 166.24274C290.10416 166.24274 288.761 164.8996 288.761 163.24274C288.761 161.58589 290.10416 160.24274 291.761 160.24274C293.41785 160.24274 294.761 161.58589 294.761 163.24274Z" fill-rule="nonzero"/><path fill="#000000" fill-opacity="0.0" clip-path="url(#id_0)" d="M304.259 142.99358C304.259 144.65044 302.91586 145.99358 301.259 145.99358C299.60214 145.99358 298.259 144.65044 298.259 142.99358C298.259 141.33673 299.60214 139.99358 301.259 139.99358C302.91586 139.99358 304.259 141.33673 304.259 142.99358Z" fill-rule="nonzero"/><path fill="#000000" fill-opacity="0.0" clip-path="url(#id_0)" d="M313.757 141.0594C313.757 142.71625 312.41385 144.0594 310.757 144.0594C309.10016 144.0594 307.757 142.71625 307.757 141.0594C307.757 139.40254 309.10016 138.0594 310.757 138.0594C312.41385 138.0594 313.757 139.40254 313.757 141.0594Z" fill-rule="nonzero"/><path fill="#000000" fill-opacity="0.0" clip-path="url(#id_0)" d="M323.255 141.0594C323.255 142.71625 321.91187 144.0594 320.255 144.0594C318.59814 144.0594 317.255 142.71625 317.255 141.0594C317.255 139.40254 318.59814 138.0594 320.255 138.0594C321.91187 138.0594 323.255 139.40254 323.255 141.0594Z" fill-rule="nonzero"/><path fill="#000000" fill-opacity="0.0" clip-path="url(#id_0)" d="M332.753 141.0594C332.753 142.71625 331.40985 144.0594 329.753 144.0594C328.09616 144.0594 326.753 142.71625 326.753 141.0594C326.753 139.40254 328.09616 138.0594 329.753 138.0594C331.40985 138.0594 332.753 139.40254 332.753 141.0594Z" fill-rule="nonzero"/><path fill="#000000" fill-opacity="0.0" clip-path="url(#id_0)" d="M342.251 141.0594C342.251 142.71625 340.90787 144.0594 339.251 144.0594C337.59415 144.0594 336.251 142.71625 336.251 141.0594C336.251 139.40254 337.59415 138.0594 339.251 138.0594C340.90787 138.0594 342.251 139.40254 342.251 141.0594Z" fill-rule="nonzero"/><path fill="#000000" fill-opacity="0.0" clip-path="url(#id_0)" d="M351.749 141.0594C351.749 142.71625 350.40585 144.0594 348.749 144.0594C347.09213 144.0594 345.749 142.71625 345.749 141.0594C345.749 139.40254 347.09213 138.0594 348.749 138.0594C350.40585 138.0594 351.749 139.40254 351.749 141.0594Z" fill-rule="nonzero"/><path fill="#000000" fill-opacity="0.0" clip-path="url(#id_0)" d="M361.247 141.0594C361.247 142.71625 359.90384 144.0594 358.247 144.0594C356.59015 144.0594 355.247 142.71625 355.247 141.0594C355.247 139.40254 356.59015 138.0594 358.247 138.0594C359.90384 138.0594 361.247 139.40254 361.247 141.0594Z" fill-rule="nonzero"/><path fill="#000000" fill-opacity="0.0" clip-path="url(#id_0)" d="M370.745 141.0594C370.745 142.71625 369.40186 144.0594 367.745 144.0594C366.08813 144.0594 364.745 142.71625 364.745 141.0594C364.745 139.40254 366.08813 138.0594 367.745 138.0594C369.40186 138.0594 370.745 139.40254 370.745 141.0594Z" fill-rule="nonzero"/><path fill="#000000" fill-opacity="0.0" clip-path="url(#id_0)" d="M380.243 141.0594C380.243 142.71625 378.89984 144.0594 377.243 144.0594C375.58615 144.0594 374.243 142.71625 374.243 141.0594C374.243 139.40254 375.58615 138.0594 377.243 138.0594C378.89984 138.0594 380.243 139.40254 380.243 141.0594Z" fill-rule="nonzero"/><path fill="#000000" fill-opacity="0.0" clip-path="url(#id_0)" d="M389.741 141.0594C389.741 142.71625 388.39786 144.0594 386.741 144.0594C385.08414 144.0594 383.741 142.71625 383.741 141.0594C383.741 139.40254 385.08414 138.0594 386.741 138.0594C388.39786 138.0594 389.741 139.40254 389.741 141.0594Z" fill-rule="nonzero"/><path fill="#000000" fill-opacity="0.0" clip-path="url(#id_0)" d="M399.239 141.0594C399.239 142.71625 397.89584 144.0594 396.239 144.0594C394.58215 144.0594 393.239 142.71625 393.239 141.0594C393.239 139.40254 394.58215 138.0594 396.239 138.0594C397.89584 138.0594 399.239 139.40254 399.239 141.0594Z" fill-rule="nonzero"/><path fill="#000000" fill-opacity="0.0" clip-path="url(#id_0)" d="M408.737 141.0594C408.737 142.71625 407.39386 144.0594 405.737 144.0594C404.08014 144.0594 402.737 142.71625 402.737 141.0594C402.737 139.40254 404.08014 138.0594 405.737 138.0594C407.39386 138.0594 408.737 139.40254 408.737 141.0594Z" fill-rule="nonzero"/><path fill="#000000" fill-opacity="0.0" clip-path="url(#id_0)" d="M418.235 141.0594C418.235 142.71625 416.89185 144.0594 415.235 144.0594C413.57816 144.0594 412.235 142.71625 412.235 141.0594C412.235 139.40254 413.57816 138.0594 415.235 138.0594C416.89185 138.0594 418.235 139.40254 418.235 141.0594Z" fill-rule="nonzero"/><path fill="#000000" fill-opacity="0.0" clip-path="url(#id_0)" d="M427.733 141.0594C427.733 142.71625 426.38986 144.0594 424.733 144.0594C423.07614 144.0594 421.733 142.71625 421.733 141.0594C421.733 139.40254 423.07614 138.0594 424.733 138.0594C426.38986 138.0594 427.733 139.40254 427.733 141.0594Z" fill-rule="nonzero"/><path fill="#000000" fill-opacity="0.0" clip-path="url(#id_0)" d="M437.231 140.94565C437.231 142.60251 435.88785 143.94565 434.231 143.94565C432.57416 143.94565 431.231 142.60251 431.231 140.94565C431.231 139.2888 432.57416 137.94565 434.231 137.94565C435.88785 137.94565 437.231 139.2888 437.231 140.94565Z" fill-rule="nonzero"/><path fill="#000000" fill-opacity="0.0" clip-path="url(#id_0)" d="M446.729 140.94565C446.729 142.60251 445.38586 143.94565 443.729 143.94565C442.07214 143.94565 440.729 142.60251 440.729 140.94565C440.729 139.2888 442.07214 137.94565 443.729 137.94565C445.38586 137.94565 446.729 139.2888 446.729 140.94565Z" fill-rule="nonzero"/><path fill="#000000" fill-opacity="0.0" clip-path="url(#id_0)" d="M456.227 140.94565C456.227 142.60251 454.88385 143.94565 453.227 143.94565C451.57016 143.94565 450.227 142.60251 450.227 140.94565C450.227 139.2888 451.57016 137.94565 453.227 137.94565C454.88385 137.94565 456.227 139.2888 456.227 140.94565Z" fill-rule="nonzero"/><path fill="#000000" fill-opacity="0.0" clip-path="url(#id_0)" d="M465.725 140.94565C465.725 142.60251 464.38187 143.94565 462.725 143.94565C461.06815 143.94565 459.725 142.60251 459.725 140.94565C459.725 139.2888 461.06815 137.94565 462.725 137.94565C464.38187 137.94565 465.725 139.2888 465.725 140.94565Z" fill-rule="nonzero"/><path fill="#000000" fill-opacity="0.0" clip-path="url(#id_0)" d="M475.223 140.94565C475.223 142.60251 473.87985 143.94565 472.223 143.94565C470.56613 143.94565 469.223 142.60251 469.223 140.94565C469.223 139.2888 470.56613 137.94565 472.223 137.94565C473.87985 137.94565 475.223 139.2888 475.223 140.94565Z" fill-rule="nonzero"/><path fill="#000000" fill-opacity="0.0" clip-path="url(#id_0)" d="M484.721 140.94565C484.721 142.60251 483.37787 143.94565 481.721 143.94565C480.06415 143.94565 478.721 142.60251 478.721 140.94565C478.721 139.2888 480.06415 137.94565 481.721 137.94565C483.37787 137.94565 484.721 139.2888 484.721 140.94565Z" fill-rule="nonzero"/><path fill="#000000" fill-opacity="0.0" clip-path="url(#id_0)" d="M494.219 140.94565C494.219 142.60251 492.87585 143.94565 491.219 143.94565C489.56213 143.94565 488.219 142.60251 488.219 140.94565C488.219 139.2888 489.56213 137.94565 491.219 137.94565C492.87585 137.94565 494.219 139.2888 494.219 140.94565Z" fill-rule="nonzero"/><path fill="#000000" fill-opacity="0.0" clip-path="url(#id_0)" d="M503.717 140.94565C503.717 142.60251 502.37384 143.94565 500.717 143.94565C499.06015 143.94565 497.717 142.60251 497.717 140.94565C497.717 139.2888 499.06015 137.94565 500.717 137.94565C502.37384 137.94565 503.717 139.2888 503.717 140.94565Z" fill-rule="nonzero"/><path fill="#000000" fill-opacity="0.0" clip-path="url(#id_0)" d="M513.215 140.94565C513.215 142.60251 511.87186 143.94565 510.215 143.94565C508.55814 143.94565 507.215 142.60251 507.215 140.94565C507.215 139.2888 508.55814 137.94565 510.215 137.94565C511.87186 137.94565 513.215 139.2888 513.215 140.94565Z" fill-rule="nonzero"/><path fill="#000000" fill-opacity="0.0" clip-path="url(#id_0)" d="M522.713 140.94565C522.713 142.60251 521.3699 143.94565 519.713 143.94565C518.05615 143.94565 516.713 142.60251 516.713 140.94565C516.713 139.2888 518.05615 137.94565 519.713 137.94565C521.3699 137.94565 522.713 139.2888 522.713 140.94565Z" fill-rule="nonzero"/><path fill="#000000" fill-opacity="0.0" clip-path="url(#id_0)" d="M532.211 140.94565C532.211 142.60251 530.86786 143.94565 529.211 143.94565C527.55414 143.94565 526.211 142.60251 526.211 140.94565C526.211 139.2888 527.55414 137.94565 529.211 137.94565C530.86786 137.94565 532.211 139.2888 532.211 140.94565Z" fill-rule="nonzero"/><path fill="#000000" fill-opacity="0.0" clip-path="url(#id_0)" d="M541.709 140.94565C541.709 142.60251 540.36584 143.94565 538.709 143.94565C537.0521 143.94565 535.709 142.60251 535.709 140.94565C535.709 139.2888 537.0521 137.94565 538.709 137.94565C540.36584 137.94565 541.709 139.2888 541.709 140.94565Z" fill-rule="nonzero"/><path fill="#000000" fill-opacity="0.0" clip-path="url(#id_0)" d="M551.207 140.94565C551.207 142.60251 549.86383 143.94565 548.207 143.94565C546.5502 143.94565 545.207 142.60251 545.207 140.94565C545.207 139.2888 546.5502 137.94565 548.207 137.94565C549.86383 137.94565 551.207 139.2888 551.207 140.94565Z" fill-rule="nonzero"/><path fill="#000000" fill-opacity="0.0" clip-path="url(#id_0)" d="M560.705 140.94565C560.705 142.60251 559.3619 143.94565 557.705 143.94565C556.04816 143.94565 554.705 142.60251 554.705 140.94565C554.705 139.2888 556.04816 137.94565 557.705 137.94565C559.3619 137.94565 560.705 139.2888 560.705 140.94565Z" fill-rule="nonzero"/><path fill="#000000" fill-opacity="0.0" clip-path="url(#id_0)" d="M570.203 140.94565C570.203 142.60251 568.85986 143.94565 567.203 143.94565C565.54614 143.94565 564.203 142.60251 564.203 140.94565C564.203 139.2888 565.54614 137.94565 567.203 137.94565C568.85986 137.94565 570.203 139.2888 570.203 140.94565Z" fill-rule="nonzero"/><path fill="#000000" fill-opacity="0.0" clip-path="url(#id_0)" d="M579.701 140.94565C579.701 142.60251 578.35785 143.94565 576.701 143.94565C575.0441 143.94565 573.701 142.60251 573.701 140.94565C573.701 139.2888 575.0441 137.94565 576.701 137.94565C578.35785 137.94565 579.701 139.2888 579.701 140.94565Z" fill-rule="nonzero"/><path fill="#000000" fill-opacity="0.0" clip-path="url(#id_0)" d="M114.299 290.8366C114.299 292.49347 112.95586 293.8366 111.299 293.8366C109.64214 293.8366 108.299 292.49347 108.299 290.8366C108.299 289.17975 109.64214 287.8366 111.299 287.8366C112.95586 287.8366 114.299 289.17975 114.299 290.8366Z" fill-rule="nonzero"/><path fill="#000000" fill-opacity="0.0" clip-path="url(#id_0)" d="M123.797 273.0824C123.797 274.73923 122.45386 276.0824 120.797 276.0824C119.140144 276.0824 117.797 274.73923 117.797 273.0824C117.797 271.42554 119.140144 270.0824 120.797 270.0824C122.45386 270.0824 123.797 271.42554 123.797 273.0824Z" fill-rule="nonzero"/><path fill="#000000" fill-opacity="0.0" clip-path="url(#id_0)" d="M133.295 270.10934C133.295 271.7662 131.95186 273.10934 130.295 273.10934C128.63815 273.10934 127.295 271.7662 127.295 270.10934C127.295 268.45248 128.63815 267.10934 130.295 267.10934C131.95186 267.10934 133.295 268.45248 133.295 270.10934Z" fill-rule="nonzero"/><path fill="#000000" fill-opacity="0.0" clip-path="url(#id_0)" d="M142.793 254.4115C142.793 256.06836 141.44986 257.4115 139.793 257.4115C138.13614 257.4115 136.793 256.06836 136.793 254.4115C136.793 252.75464 138.13614 251.4115 139.793 251.4115C141.44986 251.4115 142.793 252.75464 142.793 254.4115Z" fill-rule="nonzero"/><path fill="#000000" fill-opacity="0.0" clip-path="url(#id_0)" d="M152.291 254.4115C152.291 256.06836 150.94786 257.4115 149.291 257.4115C147.63414 257.4115 146.291 256.06836 146.291 254.4115C146.291 252.75464 147.63414 251.4115 149.291 251.4115C150.94786 251.4115 152.291 252.75464 152.291 254.4115Z" fill-rule="nonzero"/><path fill="#000000" fill-opacity="0.0" clip-path="url(#id_0)" d="M161.789 254.4115C161.789 256.06836 160.44586 257.4115 158.789 257.4115C157.13214 257.4115 155.789 256.06836 155.789 254.4115C155.789 252.75464 157.13214 251.4115 158.789 251.4115C160.44586 251.4115 161.789 252.75464 161.789 254.4115Z" fill-rule="nonzero"/><path fill="#000000" fill-opacity="0.0" clip-path="url(#id_0)" d="M171.287 254.4115C171.287 256.06836 169.94385 257.4115 168.287 257.4115C166.63014 257.4115 165.287 256.06836 165.287 254.4115C165.287 252.75464 166.63014 251.4115 168.287 251.4115C169.94385 251.4115 171.287 252.75464 171.287 254.4115Z" fill-rule="nonzero"/><path fill="#000000" fill-opacity="0.0" clip-path="url(#id_0)" d="M180.785 254.4115C180.785 256.06836 179.44185 257.4115 177.785 257.4115C176.12814 257.4115 174.785 256.06836 174.785 254.4115C174.785 252.75464 176.12814 251.4115 177.785 251.4115C179.44185 251.4115 180.785 252.75464 180.785 254.4115Z" fill-rule="nonzero"/><path fill="#000000" fill-opacity="0.0" clip-path="url(#id_0)" d="M190.283 254.4115C190.283 256.06836 188.93985 257.4115 187.283 257.4115C185.62614 257.4115 184.283 256.06836 184.283 254.4115C184.283 252.75464 185.62614 251.4115 187.283 251.4115C188.93985 251.4115 190.283 252.75464 190.283 254.4115Z" fill-rule="nonzero"/><path fill="#000000" fill-opacity="0.0" clip-path="url(#id_0)" d="M199.781 254.4115C199.781 256.06836 198.43785 257.4115 196.781 257.4115C195.12415 257.4115 193.781 256.06836 193.781 254.4115C193.781 252.75464 195.12415 251.4115 196.781 251.4115C198.43785 251.4115 199.781 252.75464 199.781 254.4115Z" fill-rule="nonzero"/><path fill="#000000" fill-opacity="0.0" clip-path="url(#id_0)" d="M209.279 254.4115C209.279 256.06836 207.93585 257.4115 206.279 257.4115C204.62215 257.4115 203.279 256.06836 203.279 254.4115C203.279 252.75464 204.62215 251.4115 206.279 251.4115C207.93585 251.4115 209.279 252.75464 209.279 254.4115Z" fill-rule="nonzero"/><path fill="#000000" fill-opacity="0.0" clip-path="url(#id_0)" d="M218.777 254.4115C218.777 256.06836 217.43385 257.4115 215.777 257.4115C214.12015 257.4115 212.777 256.06836 212.777 254.4115C212.777 252.75464 214.12015 251.4115 215.777 251.4115C217.43385 251.4115 218.777 252.75464 218.777 254.4115Z" fill-rule="nonzero"/><path fill="#000000" fill-opacity="0.0" clip-path="url(#id_0)" d="M228.275 254.4115C228.275 256.06836 226.93185 257.4115 225.275 257.4115C223.61815 257.4115 222.275 256.06836 222.275 254.4115C222.275 252.75464 223.61815 251.4115 225.275 251.4115C226.93185 251.4115 228.275 252.75464 228.275 254.4115Z" fill-rule="nonzero"/><path fill="#000000" fill-opacity="0.0" clip-path="url(#id_0)" d="M237.773 254.4115C237.773 256.06836 236.42986 257.4115 234.773 257.4115C233.11615 257.4115 231.773 256.06836 231.773 254.4115C231.773 252.75464 233.11615 251.4115 234.773 251.4115C236.42986 251.4115 237.773 252.75464 237.773 254.4115Z" fill-rule="nonzero"/><path fill="#000000" fill-opacity="0.0" clip-path="url(#id_0)" d="M247.271 254.4115C247.271 256.06836 245.92786 257.4115 244.271 257.4115C242.61415 257.4115 241.271 256.06836 241.271 254.4115C241.271 252.75464 242.61415 251.4115 244.271 251.4115C245.92786 251.4115 247.271 252.75464 247.271 254.4115Z" fill-rule="nonzero"/><path fill="#000000" fill-opacity="0.0" clip-path="url(#id_0)" d="M256.769 254.4115C256.769 256.06836 255.42586 257.4115 253.769 257.4115C252.11215 257.4115 250.769 256.06836 250.769 254.4115C250.769 252.75464 252.11215 251.4115 253.769 251.4115C255.42586 251.4115 256.769 252.75464 256.769 254.4115Z" fill-rule="nonzero"/><path fill="#000000" fill-opacity="0.0" clip-path="url(#id_0)" d="M266.267 254.4115C266.267 256.06836 264.92386 257.4115 263.267 257.4115C261.61014 257.4115 260.267 256.06836 260.267 254.4115C260.267 252.75464 261.61014 251.4115 263.267 251.4115C264.92386 251.4115 266.267 252.75464 266.267 254.4115Z" fill-rule="nonzero"/><path fill="#000000" fill-opacity="0.0" clip-path="url(#id_0)" d="M275.765 254.4115C275.765 256.06836 274.42184 257.4115 272.765 257.4115C271.10815 257.4115 269.765 256.06836 269.765 254.4115C269.765 252.75464 271.10815 251.4115 272.765 251.4115C274.42184 251.4115 275.765 252.75464 275.765 254.4115Z" fill-rule="nonzero"/><path fill="#000000" fill-opacity="0.0" clip-path="url(#id_0)" d="M285.263 244.28693C285.263 245.94377 283.91986 247.28693 282.263 247.28693C280.60614 247.28693 279.263 245.94377 279.263 244.28693C279.263 242.63007 280.60614 241.28693 282.263 241.28693C283.91986 241.28693 285.263 242.63007 285.263 244.28693Z" fill-rule="nonzero"/><path fill="#000000" fill-opacity="0.0" clip-path="url(#id_0)" d="M294.761 224.03777C294.761 225.69461 293.41785 227.03777 291.761 227.03777C290.10416 227.03777 288.761 225.69461 288.761 224.03777C288.761 222.3809 290.10416 221.03777 291.761 221.03777C293.41785 221.03777 294.761 222.3809 294.761 224.03777Z" fill-rule="nonzero"/><path fill="#000000" fill-opacity="0.0" clip-path="url(#id_0)" d="M304.259 224.03777C304.259 225.69461 302.91586 227.03777 301.259 227.03777C299.60214 227.03777 298.259 225.69461 298.259 224.03777C298.259 222.3809 299.60214 221.03777 301.259 221.03777C302.91586 221.03777 304.259 222.3809 304.259 224.03777Z" fill-rule="nonzero"/><path fill="#000000" fill-opacity="0.0" clip-path="url(#id_0)" d="M313.757 203.7886C313.757 205.44545 312.41385 206.7886 310.757 206.7886C309.10016 206.7886 307.757 205.44545 307.757 203.7886C307.757 202.13174 309.10016 200.7886 310.757 200.7886C312.41385 200.7886 313.757 202.13174 313.757 203.7886Z" fill-rule="nonzero"/><path fill="#000000" fill-opacity="0.0" clip-path="url(#id_0)" d="M323.255 193.66402C323.255 195.32088 321.91187 196.66402 320.255 196.66402C318.59814 196.66402 317.255 195.32088 317.255 193.66402C317.255 192.00717 318.59814 190.66402 320.255 190.66402C321.91187 190.66402 323.255 192.00717 323.255 193.66402Z" fill-rule="nonzero"/><path fill="#000000" fill-opacity="0.0" clip-path="url(#id_0)" d="M332.753 183.53944C332.753 185.1963 331.40985 186.53944 329.753 186.53944C328.09616 186.53944 326.753 185.1963 326.753 183.53944C326.753 181.88258 328.09616 180.53944 329.753 180.53944C331.40985 180.53944 332.753 181.88258 332.753 183.53944Z" fill-rule="nonzero"/><path fill="#000000" fill-opacity="0.0" clip-path="url(#id_0)" d="M342.251 163.29028C342.251 164.94714 340.90787 166.29028 339.251 166.29028C337.59415 166.29028 336.251 164.94714 336.251 163.29028C336.251 161.63344 337.59415 160.29028 339.251 160.29028C340.90787 160.29028 342.251 161.63344 342.251 163.29028Z" fill-rule="nonzero"/><path fill="#000000" fill-opacity="0.0" clip-path="url(#id_0)" d="M351.749 163.29028C351.749 164.94714 350.40585 166.29028 348.749 166.29028C347.09213 166.29028 345.749 164.94714 345.749 163.29028C345.749 161.63344 347.09213 160.29028 348.749 160.29028C350.40585 160.29028 351.749 161.63344 351.749 163.29028Z" fill-rule="nonzero"/><path fill="#000000" fill-opacity="0.0" clip-path="url(#id_0)" d="M361.247 143.04112C361.247 144.69798 359.90384 146.04112 358.247 146.04112C356.59015 146.04112 355.247 144.69798 355.247 143.04112C355.247 141.38428 356.59015 140.04112 358.247 140.04112C359.90384 140.04112 361.247 141.38428 361.247 143.04112Z" fill-rule="nonzero"/><path fill="#000000" fill-opacity="0.0" clip-path="url(#id_0)" d="M370.745 141.10695C370.745 142.7638 369.40186 144.10695 367.745 144.10695C366.08813 144.10695 364.745 142.7638 364.745 141.10695C364.745 139.45009 366.08813 138.10695 367.745 138.10695C369.40186 138.10695 370.745 139.45009 370.745 141.10695Z" fill-rule="nonzero"/><path fill="#000000" fill-opacity="0.0" clip-path="url(#id_0)" d="M380.243 140.9932C380.243 142.65005 378.89984 143.9932 377.243 143.9932C375.58615 143.9932 374.243 142.65005 374.243 140.9932C374.243 139.33633 375.58615 137.9932 377.243 137.9932C378.89984 137.9932 380.243 139.33633 380.243 140.9932Z" fill-rule="nonzero"/><path fill="#000000" fill-opacity="0.0" clip-path="url(#id_0)" d="M389.741 140.9932C389.741 142.65005 388.39786 143.9932 386.741 143.9932C385.08414 143.9932 383.741 142.65005 383.741 140.9932C383.741 139.33633 385.08414 137.9932 386.741 137.9932C388.39786 137.9932 389.741 139.33633 389.741 140.9932Z" fill-rule="nonzero"/><path fill="#000000" fill-opacity="0.0" clip-path="url(#id_0)" d="M399.239 140.9932C399.239 142.65005 397.89584 143.9932 396.239 143.9932C394.58215 143.9932 393.239 142.65005 393.239 140.9932C393.239 139.33633 394.58215 137.9932 396.239 137.9932C397.89584 137.9932 399.239 139.33633 399.239 140.9932Z" fill-rule="nonzero"/><path fill="#000000" fill-opacity="0.0" clip-path="url(#id_0)" d="M408.737 140.9932C408.737 142.65005 407.39386 143.9932 405.737 143.9932C404.08014 143.9932 402.737 142.65005 402.737 140.9932C402.737 139.33633 404.08014 137.9932 405.737 137.9932C407.39386 137.9932 408.737 139.33633 408.737 140.9932Z" fill-rule="nonzero"/><path fill="#000000" fill-opacity="0.0" clip-path="url(#id_0)" d="M418.235 140.9932C418.235 142.65005 416.89185 143.9932 415.235 143.9932C413.57816 143.9932 412.235 142.65005 412.235 140.9932C412.235 139.33633 413.57816 137.9932 415.235 137.9932C416.89185 137.9932 418.235 139.33633 418.235 140.9932Z" fill-rule="nonzero"/><path fill="#000000" fill-opacity="0.0" clip-path="url(#id_0)" d="M427.733 140.9932C427.733 142.65005 426.38986 143.9932 424.733 143.9932C423.07614 143.9932 421.733 142.65005 421.733 140.9932C421.733 139.33633 423.07614 137.9932 424.733 137.9932C426.38986 137.9932 427.733 139.33633 427.733 140.9932Z" fill-rule="nonzero"/><path fill="#000000" fill-opacity="0.0" clip-path="url(#id_0)" d="M437.231 140.9932C437.231 142.65005 435.88785 143.9932 434.231 143.9932C432.57416 143.9932 431.231 142.65005 431.231 140.9932C431.231 139.33633 432.57416 137.9932 434.231 137.9932C435.88785 137.9932 437.231 139.33633 437.231 140.9932Z" fill-rule="nonzero"/><path fill="#000000" fill-opacity="0.0" clip-path="url(#id_0)" d="M446.729 140.9932C446.729 142.65005 445.38586 143.9932 443.729 143.9932C442.07214 143.9932 440.729 142.65005 440.729 140.9932C440.729 139.33633 442.07214 137.9932 443.729 137.9932C445.38586 137.9932 446.729 139.33633 446.729 140.9932Z" fill-rule="nonzero"/><path fill="#000000" fill-opacity="0.0" clip-path="url(#id_0)" d="M456.227 140.9932C456.227 142.65005 454.88385 143.9932 453.227 143.9932C451.57016 143.9932 450.227 142.65005 450.227 140.9932C450.227 139.33633 451.57016 137.9932 453.227 137.9932C454.88385 137.9932 456.227 139.33633 456.227 140.9932Z" fill-rule="nonzero"/><path fill="#000000" fill-opacity="0.0" clip-path="url(#id_0)" d="M465.725 140.9932C465.725 142.65005 464.38187 143.9932 462.725 143.9932C461.06815 143.9932 459.725 142.65005 459.725 140.9932C459.725 139.33633 461.06815 137.9932 462.725 137.9932C464.38187 137.9932 465.725 139.33633 465.725 140.9932Z" fill-rule="nonzero"/><path fill="#000000" fill-opacity="0.0" clip-path="url(#id_0)" d="M475.223 140.9932C475.223 142.65005 473.87985 143.9932 472.223 143.9932C470.56613 143.9932 469.223 142.65005 469.223 140.9932C469.223 139.33633 470.56613 137.9932 472.223 137.9932C473.87985 137.9932 475.223 139.33633 475.223 140.9932Z" fill-rule="nonzero"/><path fill="#000000" fill-opacity="0.0" clip-path="url(#id_0)" d="M484.721 140.9932C484.721 142.65005 483.37787 143.9932 481.721 143.9932C480.06415 143.9932 478.721 142.65005 478.721 140.9932C478.721 139.33633 480.06415 137.9932 481.721 137.9932C483.37787 137.9932 484.721 139.33633 484.721 140.9932Z" fill-rule="nonzero"/><path fill="#000000" fill-opacity="0.0" clip-path="url(#id_0)" d="M494.219 140.9932C494.219 142.65005 492.87585 143.9932 491.219 143.9932C489.56213 143.9932 488.219 142.65005 488.219 140.9932C488.219 139.33633 489.56213 137.9932 491.219 137.9932C492.87585 137.9932 494.219 139.33633 494.219 140.9932Z" fill-rule="nonzero"/><path fill="#000000" fill-opacity="0.0" clip-path="url(#id_0)" d="M503.717 140.9932C503.717 142.65005 502.37384 143.9932 500.717 143.9932C499.06015 143.9932 497.717 142.65005 497.717 140.9932C497.717 139.33633 499.06015 137.9932 500.717 137.9932C502.37384 137.9932 503.717 139.33633 503.717 140.9932Z" fill-rule="nonzero"/><path fill="#000000" fill-opacity="0.0" clip-path="url(#id_0)" d="M513.215 140.9932C513.215 142.65005 511.87186 143.9932 510.215 143.9932C508.55814 143.9932 507.215 142.65005 507.215 140.9932C507.215 139.33633 508.55814 137.9932 510.215 137.9932C511.87186 137.9932 513.215 139.33633 513.215 140.9932Z" fill-rule="nonzero"/><path fill="#000000" fill-opacity="0.0" clip-path="url(#id_0)" d="M522.713 140.9932C522.713 142.65005 521.3699 143.9932 519.713 143.9932C518.05615 143.9932 516.713 142.65005 516.713 140.9932C516.713 139.33633 518.05615 137.9932 519.713 137.9932C521.3699 137.9932 522.713 139.33633 522.713 140.9932Z" fill-rule="nonzero"/><path fill="#000000" fill-opacity="0.0" clip-path="url(#id_0)" d="M532.211 140.9932C532.211 142.65005 530.86786 143.9932 529.211 143.9932C527.55414 143.9932 526.211 142.65005 526.211 140.9932C526.211 139.33633 527.55414 137.9932 529.211 137.9932C530.86786 137.9932 532.211 139.33633 532.211 140.9932Z" fill-rule="nonzero"/><path fill="#000000" fill-opacity="0.0" clip-path="url(#id_0)" d="M541.709 140.9932C541.709 142.65005 540.36584 143.9932 538.709 143.9932C537.0521 143.9932 535.709 142.65005 535.709 140.9932C535.709 139.33633 537.0521 137.9932 538.709 137.9932C540.36584 137.9932 541.709 139.33633 541.709 140.9932Z" fill-rule="nonzero"/><path fill="#000000" fill-opacity="0.0" clip-path="url(#id_0)" d="M551.207 140.9932C551.207 142.65005 549.86383 143.9932 548.207 143.9932C546.5502 143.9932 545.207 142.65005 545.207 140.9932C545.207 139.33633 546.5502 137.9932 548.207 137.9932C549.86383 137.9932 551.207 139.33633 551.207 140.9932Z" fill-rule="nonzero"/><path fill="#000000" fill-opacity="0.0" clip-path="url(#id_0)" d="M560.705 140.9932C560.705 142.65005 559.3619 143.9932 557.705 143.9932C556.04816 143.9932 554.705 142.65005 554.705 140.9932C554.705 139.33633 556.04816 137.9932 557.705 137.9932C559.3619 137.9932 560.705 139.33633 560.705 140.9932Z" fill-rule="nonzero"/><path fill="#000000" fill-opacity="0.0" clip-path="url(#id_0)" d="M570.203 140.9932C570.203 142.65005 568.85986 143.9932 567.203 143.9932C565.54614 143.9932 564.203 142.65005 564.203 140.9932C564.203 139.33633 565.54614 137.9932 567.203 137.9932C568.85986 137.9932 570.203 139.33633 570.203 140.9932Z" fill-rule="nonzero"/><path fill="#000000" fill-opacity="0.0" clip-path="url(#id_0)" d="M579.701 140.9932C579.701 142.65005 578.35785 143.9932 576.701 143.9932C575.0441 143.9932 573.701 142.65005 573.701 140.9932C573.701 139.33633 575.0441 137.9932 576.701 137.9932C578.35785 137.9932 579.701 139.33633 579.701 140.9932Z" fill-rule="nonzero"/><path fill="#424242" d="M337.39062 341.84064L334.64062 341.84064L334.64062 349.45L333.53125 349.45L333.53125 341.84064L330.78125 341.84064L330.78125 340.91876L337.39062 340.91876L337.39062 341.84064ZM339.5 349.45L338.42188 349.45L338.42188 343.10626L339.5 343.10626L339.5 349.45ZM338.32812 341.4344Q338.32812 341.16876 338.48438 340.98126Q338.65625 340.79376 338.96875 340.79376Q339.28125 340.79376 339.4375 340.98126Q339.60938 341.16876 339.60938 341.4344Q339.60938 341.6844 339.4375 341.8719Q339.28125 342.04376 338.96875 342.04376Q338.65625 342.04376 338.48438 341.8719Q338.32812 341.6844 338.32812 341.4344ZM342.34375 343.10626L342.375 343.8094Q343.0625 342.9969 344.25 342.9969Q345.57812 342.9969 346.0625 344.0125Q346.375 343.5594 346.875 343.27814Q347.39062 342.9969 348.07812 342.9969Q350.17188 342.9969 350.20312 345.2L350.20312 349.45L349.125 349.45L349.125 345.2625Q349.125 344.59064 348.8125 344.2625Q348.5 343.91876 347.76562 343.91876Q347.15625 343.91876 346.75 344.27814Q346.35938 344.6375 346.29688 345.2469L346.29688 349.45L345.21875 349.45L345.21875 345.29376Q345.21875 343.91876 343.85938 343.91876Q342.79688 343.91876 342.40625 344.825L342.40625 349.45L341.3125 349.45L341.3125 343.10626L342.34375 343.10626ZM354.95312 349.575Q353.65625 349.575 352.84375 348.73126Q352.04688 347.8719 352.04688 346.45L352.04688 346.2625Q352.04688 345.3094 352.40625 344.575Q352.76562 343.825 353.40625 343.41876Q354.0625 342.9969 354.8125 342.9969Q356.04688 342.9969 356.73438 343.8094Q357.42188 344.6219 357.42188 346.1375L357.42188 346.59064L353.125 346.59064Q353.15625 347.52814 353.67188 348.10626Q354.20312 348.6844 355.01562 348.6844Q355.57812 348.6844 355.96875 348.45Q356.375 348.21564 356.6875 347.825L357.34375 348.34064Q356.54688 349.575 354.95312 349.575ZM354.8125 343.8875Q354.15625 343.8875 353.70312 344.3719Q353.26562 344.84064 353.17188 345.7L356.34375 345.7L356.34375 345.6219Q356.29688 344.79376 355.89062 344.34064Q355.5 343.8875 354.8125 343.8875Z" fill-rule="nonzero"/><path fill="#424242" d="M22.018763 251.92917L28.971888 249.1323L22.018763 246.35104L22.018763 244.8823L30.550013 244.8823L30.550013 246.0073L27.221888 246.0073L23.643763 245.89792L30.550013 248.71042L30.550013 249.5698L23.659388 252.36667L27.221888 252.2573L30.550013 252.2573L30.550013 253.3823L22.018763 253.3823L22.018763 251.92917ZM30.675013 240.91354Q30.675013 242.21042 29.831263 243.02292Q28.971888 243.8198 27.550013 243.8198L27.362513 243.8198Q26.409388 243.8198 25.675013 243.46042Q24.925013 243.10104 24.518763 242.46042Q24.096888 241.80417 24.096888 241.05417Q24.096888 239.8198 24.909388 239.1323Q25.721888 238.4448 27.237513 238.4448L27.690638 238.4448L27.690638 242.74167Q28.628138 242.71042 29.206263 242.1948Q29.784388 241.66354 29.784388 240.85104Q29.784388 240.28854 29.550013 239.89792Q29.315638 239.49167 28.925013 239.17917L29.440638 238.52292Q30.675013 239.3198 30.675013 240.91354ZM24.987513 241.05417Q24.987513 241.71042 25.471888 242.16354Q25.940638 242.60104 26.800013 242.6948L26.800013 239.52292L26.721888 239.52292Q25.893763 239.5698 25.440638 239.97604Q24.987513 240.36667 24.987513 241.05417ZM24.206263 236.52292L24.909388 236.49167Q24.096888 235.80417 24.096888 234.61667Q24.096888 233.28854 25.112513 232.80417Q24.659388 232.49167 24.378138 231.99167Q24.096888 231.47604 24.096888 230.78854Q24.096888 228.6948 26.300013 228.66354L30.550013 228.66354L30.550013 229.74167L26.362513 229.74167Q25.690638 229.74167 25.362513 230.05417Q25.018763 230.36667 25.018763 231.10104Q25.018763 231.71042 25.378138 232.11667Q25.737513 232.5073 26.346888 232.5698L30.550013 232.5698L30.550013 233.64792L26.393763 233.64792Q25.018763 233.64792 25.018763 235.0073Q25.018763 236.0698 25.925013 236.46042L30.550013 236.46042L30.550013 237.55417L24.206263 237.55417L24.206263 236.52292ZM27.315638 226.83542Q26.393763 226.83542 25.643763 226.47604Q24.893763 226.10104 24.503138 225.4448Q24.096888 224.78854 24.096888 223.96042Q24.096888 222.66354 24.987513 221.86667Q25.878138 221.05417 27.378138 221.05417L27.456263 221.05417Q28.378138 221.05417 29.112513 221.41354Q29.846888 221.77292 30.268763 222.42917Q30.675013 223.08542 30.675013 223.9448Q30.675013 225.22604 29.784388 226.03854Q28.878138 226.83542 27.393763 226.83542L27.315638 226.83542ZM27.456263 225.74167Q28.503138 225.74167 29.143763 225.2573Q29.784388 224.7573 29.784388 223.9448Q29.784388 223.11667 29.143763 222.6323Q28.487513 222.14792 27.315638 222.14792Q26.284388 222.14792 25.643763 222.64792Q24.987513 223.1323 24.987513 223.96042Q24.987513 224.7573 25.628138 225.2573Q26.253138 225.74167 27.456263 225.74167ZM25.175013 216.47604Q25.143763 216.72604 25.143763 217.0073Q25.143763 218.08542 26.050013 218.46042L30.550013 218.46042L30.550013 219.53854L24.206263 219.53854L24.206263 218.49167L24.940638 218.47604Q24.096888 217.9448 24.096888 216.96042Q24.096888 216.64792 24.175013 216.47604L25.175013 216.47604ZM28.956263 213.47604L24.206263 211.99167L24.206263 210.83542L31.534388 213.3823Q33.11251 213.97604 33.11251 215.2573L33.096886 215.47604L33.01876 215.86667L32.14376 215.86667L32.159386 215.58542Q32.159386 215.02292 31.940638 214.72604Q31.721888 214.41354 31.128138 214.21042L30.471888 213.97604L24.206263 216.24167L24.206263 215.05417L28.956263 213.47604ZM22.018763 200.36667L27.815638 200.36667Q29.018763 200.3823 29.800013 201.1323Q30.565638 201.8823 30.659388 203.16354L30.675013 203.47604Q30.675013 204.86667 29.925013 205.71042Q29.159388 206.53854 27.831263 206.53854L22.018763 206.53854L22.018763 205.42917L27.800013 205.42917Q28.721888 205.42917 29.237513 204.92917Q29.753138 204.41354 29.753138 203.47604Q29.753138 202.5073 29.237513 202.0073Q28.721888 201.5073 27.800013 201.5073L22.018763 201.5073L22.018763 200.36667ZM28.862513 194.85104Q28.425013 194.85104 28.190638 195.1948Q27.940638 195.52292 27.768763 196.35104Q27.596888 197.16354 27.346888 197.64792Q27.096888 198.1323 26.768763 198.36667Q26.425013 198.58542 25.956263 198.58542Q25.175013 198.58542 24.643763 197.92917Q24.096888 197.27292 24.096888 196.24167Q24.096888 195.16354 24.659388 194.5073Q25.206263 193.83542 26.065638 193.83542L26.065638 194.91354Q25.628138 194.91354 25.315638 195.30417Q24.987513 195.67917 24.987513 196.24167Q24.987513 196.83542 25.253138 197.17917Q25.503138 197.5073 25.909388 197.5073Q26.300013 197.5073 26.503138 197.1948Q26.706263 196.8823 26.893763 196.0698Q27.065638 195.2573 27.315638 194.7573Q27.565638 194.2573 27.925013 194.02292Q28.284388 193.77292 28.784388 193.77292Q29.643763 193.77292 30.159388 194.46042Q30.675013 195.1323 30.675013 196.21042Q30.675013 196.97604 30.409388 197.5698Q30.128138 198.14792 29.643763 198.47604Q29.159388 198.80417 28.596888 198.80417L28.596888 197.72604Q29.143763 197.6948 29.471888 197.28854Q29.784388 196.8823 29.784388 196.21042Q29.784388 195.60104 29.534388 195.22604Q29.284388 194.85104 28.862513 194.85104ZM30.550013 188.6323Q30.362513 188.72604 29.878138 188.78854Q30.675013 189.53854 30.675013 190.58542Q30.675013 191.52292 30.143763 192.1323Q29.612513 192.72604 28.784388 192.72604Q27.800013 192.72604 27.253138 191.97604Q26.706263 191.22604 26.706263 189.85104L26.706263 188.80417L26.206263 188.80417Q25.643763 188.80417 25.315638 189.14792Q24.971888 189.47604 24.971888 190.14792Q24.971888 190.72604 25.268763 191.11667Q25.550013 191.5073 25.971888 191.5073L25.971888 192.60104Q25.487513 192.60104 25.050013 192.27292Q24.612513 191.92917 24.362513 191.35104Q24.096888 190.77292 24.096888 190.08542Q24.096888 188.97604 24.643763 188.36667Q25.190638 187.74167 26.143763 187.71042L29.065638 187.71042Q29.940638 187.71042 30.456263 187.49167L30.550013 187.49167L30.550013 188.6323ZM29.721888 190.42917Q29.721888 189.91354 29.456263 189.46042Q29.190638 189.0073 28.768763 188.80417L27.471888 188.80417L27.471888 189.64792Q27.471888 191.64792 28.643763 191.64792Q29.143763 191.64792 29.440638 191.30417Q29.721888 190.96042 29.721888 190.42917ZM27.331263 185.80417Q25.846888 185.80417 24.971888 185.11667Q24.096888 184.42917 24.096888 183.30417Q24.096888 182.14792 24.909388 181.49167L24.206263 181.4448L24.206263 180.4448L30.393763 180.4448Q31.628138 180.4448 32.33126 181.17917Q33.05001 181.91354 33.05001 183.1323Q33.05001 183.8198 32.753136 184.47604Q32.45626 185.1323 31.956263 185.47604L31.300013 184.91354Q32.159386 184.22604 32.159386 183.21042Q32.159386 182.42917 31.706263 181.99167Q31.268763 181.53854 30.456263 181.53854L29.909388 181.53854Q30.675013 182.1948 30.675013 183.3198Q30.675013 184.42917 29.784388 185.11667Q28.878138 185.80417 27.331263 185.80417ZM27.456263 184.71042Q28.518763 184.71042 29.143763 184.27292Q29.753138 183.83542 29.753138 183.03854Q29.753138 182.02292 28.815638 181.53854L25.925013 181.53854Q25.018763 182.03854 25.018763 183.03854Q25.018763 183.8198 25.628138 184.27292Q26.237513 184.71042 27.456263 184.71042ZM30.675013 175.91354Q30.675013 177.21042 29.831263 178.02292Q28.971888 178.8198 27.550013 178.8198L27.362513 178.8198Q26.409388 178.8198 25.675013 178.46042Q24.925013 178.10104 24.518763 177.46042Q24.096888 176.80417 24.096888 176.05417Q24.096888 174.8198 24.909388 174.1323Q25.721888 173.4448 27.237513 173.4448L27.690638 173.4448L27.690638 177.74167Q28.628138 177.71042 29.206263 177.1948Q29.784388 176.66354 29.784388 175.85104Q29.784388 175.28854 29.550013 174.89792Q29.315638 174.49167 28.925013 174.17917L29.440638 173.52292Q30.675013 174.3198 30.675013 175.91354ZM24.987513 176.05417Q24.987513 176.71042 25.471888 177.16354Q25.940638 177.60104 26.800013 177.6948L26.800013 174.52292L26.721888 174.52292Q25.893763 174.5698 25.440638 174.97604Q24.987513 175.36667 24.987513 176.05417ZM27.081263 169.58542Q25.768763 169.58542 24.550013 169.24167Q23.331263 168.8823 22.331263 168.17917Q21.331263 167.47604 20.925013 166.71042L21.643763 166.49167Q22.300013 167.35104 23.643763 167.89792Q24.987513 168.4448 26.659388 168.49167L27.159388 168.5073Q29.425013 168.5073 31.081263 167.67917Q32.08126 167.17917 32.64376 166.49167L33.30001 166.71042Q32.878136 167.49167 31.846888 168.21042Q29.862513 169.58542 27.081263 169.58542ZM26.581263 163.21042L27.659388 164.2573L30.550013 164.2573L30.550013 165.3823L22.018763 165.3823L22.018763 164.2573L26.237513 164.2573L22.018763 160.46042L22.018763 159.10104L25.784388 162.46042L30.550013 158.83542L30.550013 160.17917L26.581263 163.21042ZM30.550013 157.3823L22.018763 157.3823L22.018763 154.58542Q22.018763 153.1948 22.596888 152.5073Q23.159388 151.80417 24.284388 151.80417Q24.893763 151.80417 25.362513 152.14792Q25.815638 152.47604 26.065638 153.0698Q26.253138 152.36667 26.800013 151.97604Q27.331263 151.5698 28.081263 151.5698Q29.237513 151.5698 29.893763 152.3198Q30.550013 153.05417 30.550013 154.41354L30.550013 157.3823ZM26.565638 156.2573L29.628138 156.2573L29.628138 154.39792Q29.628138 153.60104 29.221888 153.14792Q28.815638 152.6948 28.096888 152.6948Q26.565638 152.6948 26.565638 154.3823L26.565638 156.2573ZM25.659388 156.2573L25.659388 154.55417Q25.659388 153.8198 25.300013 153.3823Q24.925013 152.92917 24.284388 152.92917Q23.581263 152.92917 23.268763 153.33542Q22.940638 153.74167 22.940638 154.58542L22.940638 156.2573L25.659388 156.2573ZM27.143763 148.03854Q28.456263 148.03854 29.659388 148.3823Q30.846888 148.72604 31.862513 149.4448Q32.878136 150.14792 33.30001 150.91354L32.64376 151.14792Q31.956263 150.24167 30.503138 149.6948Q29.034388 149.14792 27.268763 149.1323L27.081263 149.1323Q25.846888 149.1323 24.784388 149.39792Q23.721888 149.64792 22.893763 150.11667Q22.050013 150.5698 21.581263 151.14792L20.925013 150.91354Q21.346888 150.14792 22.346888 149.4448Q23.346888 148.74167 24.565638 148.39792Q25.768763 148.03854 27.143763 148.03854Z" fill-rule="nonzero"/><path fill="#757575" d="M99.6125 312.8094Q99.6125 314.71564 98.95625 315.65314Q98.31563 316.575 96.925 316.575Q95.56563 316.575 94.90938 315.66876Q94.25313 314.7625 94.22188 312.95L94.22188 311.5125Q94.22188 309.6219 94.8625 308.71564Q95.51875 307.79376 96.90938 307.79376Q98.28438 307.79376 98.94063 308.6844Q99.59688 309.5594 99.6125 311.40314L99.6125 312.8094ZM98.51875 311.325Q98.51875 309.95 98.12813 309.325Q97.75313 308.6844 96.90938 308.6844Q96.08125 308.6844 95.69063 309.325Q95.31563 309.95 95.31563 311.2469L95.31563 312.98126Q95.31563 314.35626 95.70625 315.02814Q96.1125 315.6844 96.925 315.6844Q97.72188 315.6844 98.1125 315.0594Q98.50313 314.4344 98.51875 313.10626L98.51875 311.325Z" fill-rule="nonzero"/><path fill="#757575" d="M59.753124 256.62708L60.190624 252.37708L64.56563 252.37708L64.56563 253.37708L61.1125 253.37708L60.846874 255.7052Q61.4875 255.3302 62.284374 255.3302Q63.440624 255.3302 64.12813 256.11145Q64.81563 256.87708 64.81563 258.18958Q64.81563 259.50208 64.09688 260.2677Q63.39375 261.03333 62.1125 261.03333Q60.9875 261.03333 60.26875 260.40833Q59.55 259.7677 59.45625 258.65833L60.471874 258.65833Q60.58125 259.3927 61.003124 259.7677Q61.425 260.1427 62.1125 260.1427Q62.8625 260.1427 63.3 259.62708Q63.7375 259.11145 63.7375 258.2052Q63.7375 257.34583 63.26875 256.8302Q62.8 256.31458 62.01875 256.31458Q61.315624 256.31458 60.909374 256.61145L60.628124 256.84583L59.753124 256.62708ZM71.6125 257.2677Q71.6125 259.17395 70.95625 260.11145Q70.31563 261.03333 68.925 261.03333Q67.56563 261.03333 66.90938 260.12708Q66.25313 259.22083 66.22188 257.40833L66.22188 255.97083Q66.22188 254.0802 66.8625 253.17395Q67.51875 252.25208 68.90938 252.25208Q70.28438 252.25208 70.94063 253.1427Q71.59688 254.0177 71.6125 255.86145L71.6125 257.2677ZM70.51875 255.78333Q70.51875 254.40833 70.12813 253.78333Q69.75313 253.1427 68.90938 253.1427Q68.08125 253.1427 67.69063 253.78333Q67.31563 254.40833 67.31563 255.7052L67.31563 257.43958Q67.31563 258.81458 67.70625 259.48645Q68.1125 260.1427 68.925 260.1427Q69.72188 260.1427 70.1125 259.5177Q70.50313 258.8927 70.51875 257.56458L70.51875 255.78333ZM78.6125 257.2677Q78.6125 259.17395 77.95625 260.11145Q77.31563 261.03333 75.925 261.03333Q74.56563 261.03333 73.90938 260.12708Q73.25313 259.22083 73.22188 257.40833L73.22188 255.97083Q73.22188 254.0802 73.8625 253.17395Q74.51875 252.25208 75.90938 252.25208Q77.28438 252.25208 77.94063 253.1427Q78.59688 254.0177 78.6125 255.86145L78.6125 257.2677ZM77.51875 255.78333Q77.51875 254.40833 77.12813 253.78333Q76.75313 253.1427 75.90938 253.1427Q75.08125 253.1427 74.69063 253.78333Q74.31563 254.40833 74.31563 255.7052L74.31563 257.43958Q74.31563 258.81458 74.70625 259.48645Q75.1125 260.1427 75.925 260.1427Q76.72188 260.1427 77.1125 259.5177Q77.50313 258.8927 77.51875 257.56458L77.51875 255.78333ZM85.6125 257.2677Q85.6125 259.17395 84.95625 260.11145Q84.31563 261.03333 82.925 261.03333Q81.56563 261.03333 80.90938 260.12708Q80.25313 259.22083 80.22188 257.40833L80.22188 255.97083Q80.22188 254.0802 80.8625 253.17395Q81.51875 252.25208 82.90938 252.25208Q84.28438 252.25208 84.94063 253.1427Q85.59688 254.0177 85.6125 255.86145L85.6125 257.2677ZM84.51875 255.78333Q84.51875 254.40833 84.12813 253.78333Q83.75313 253.1427 82.90938 253.1427Q82.08125 253.1427 81.69063 253.78333Q81.31563 254.40833 81.31563 255.7052L81.31563 257.43958Q81.31563 258.81458 81.70625 259.48645Q82.1125 260.1427 82.925 260.1427Q83.72188 260.1427 84.1125 259.5177Q84.50313 258.8927 84.51875 257.56458L84.51875 255.78333ZM92.6125 257.2677Q92.6125 259.17395 91.95625 260.11145Q91.31563 261.03333 89.925 261.03333Q88.56563 261.03333 87.90938 260.12708Q87.25313 259.22083 87.22188 257.40833L87.22188 255.97083Q87.22188 254.0802 87.8625 253.17395Q88.51875 252.25208 89.90938 252.25208Q91.28438 252.25208 91.94063 253.1427Q92.59688 254.0177 92.6125 255.86145L92.6125 257.2677ZM91.51875 255.78333Q91.51875 254.40833 91.12813 253.78333Q90.75313 253.1427 89.90938 253.1427Q89.08125 253.1427 88.69063 253.78333Q88.31563 254.40833 88.31563 255.7052L88.31563 257.43958Q88.31563 258.81458 88.70625 259.48645Q89.1125 260.1427 89.925 260.1427Q90.72188 260.1427 91.1125 259.5177Q91.50313 258.8927 91.51875 257.56458L91.51875 255.78333ZM99.6125 257.2677Q99.6125 259.17395 98.95625 260.11145Q98.31563 261.03333 96.925 261.03333Q95.56563 261.03333 94.90938 260.12708Q94.25313 259.22083 94.22188 257.40833L94.22188 255.97083Q94.22188 254.0802 94.8625 253.17395Q95.51875 252.25208 96.90938 252.25208Q98.28438 252.25208 98.94063 253.1427Q99.59688 254.0177 99.6125 255.86145L99.6125 257.2677ZM98.51875 255.78333Q98.51875 254.40833 98.12813 253.78333Q97.75313 253.1427 96.90938 253.1427Q96.08125 253.1427 95.69063 253.78333Q95.31563 254.40833 95.31563 255.7052L95.31563 257.43958Q95.31563 258.81458 95.70625 259.48645Q96.1125 260.1427 96.925 260.1427Q97.72188 260.1427 98.1125 259.5177Q98.50313 258.8927 98.51875 257.56458L98.51875 255.78333Z" fill-rule="nonzero"/><path fill="#757575" d="M55.815624 205.36667L54.7375 205.36667L54.7375 198.14792L52.55 198.9448L52.55 197.96042L55.659374 196.78854L55.815624 196.78854L55.815624 205.36667ZM64.6125 201.72604Q64.6125 203.6323 63.95625 204.5698Q63.315624 205.49167 61.925 205.49167Q60.565624 205.49167 59.909374 204.58542Q59.253124 203.67917 59.221874 201.86667L59.221874 200.42917Q59.221874 198.53854 59.8625 197.6323Q60.51875 196.71042 61.909374 196.71042Q63.284374 196.71042 63.940624 197.60104Q64.59688 198.47604 64.6125 200.3198L64.6125 201.72604ZM63.51875 200.24167Q63.51875 198.86667 63.128124 198.24167Q62.753124 197.60104 61.909374 197.60104Q61.08125 197.60104 60.690624 198.24167Q60.315624 198.86667 60.315624 200.16354L60.315624 201.89792Q60.315624 203.27292 60.70625 203.9448Q61.1125 204.60104 61.925 204.60104Q62.721874 204.60104 63.1125 203.97604Q63.503124 203.35104 63.51875 202.02292L63.51875 200.24167ZM71.6125 201.72604Q71.6125 203.6323 70.95625 204.5698Q70.31563 205.49167 68.925 205.49167Q67.56563 205.49167 66.90938 204.58542Q66.25313 203.67917 66.22188 201.86667L66.22188 200.42917Q66.22188 198.53854 66.8625 197.6323Q67.51875 196.71042 68.90938 196.71042Q70.28438 196.71042 70.94063 197.60104Q71.59688 198.47604 71.6125 200.3198L71.6125 201.72604ZM70.51875 200.24167Q70.51875 198.86667 70.12813 198.24167Q69.75313 197.60104 68.90938 197.60104Q68.08125 197.60104 67.69063 198.24167Q67.31563 198.86667 67.31563 200.16354L67.31563 201.89792Q67.31563 203.27292 67.70625 203.9448Q68.1125 204.60104 68.925 204.60104Q69.72188 204.60104 70.1125 203.97604Q70.50313 203.35104 70.51875 202.02292L70.51875 200.24167ZM78.6125 201.72604Q78.6125 203.6323 77.95625 204.5698Q77.31563 205.49167 75.925 205.49167Q74.56563 205.49167 73.90938 204.58542Q73.25313 203.67917 73.22188 201.86667L73.22188 200.42917Q73.22188 198.53854 73.8625 197.6323Q74.51875 196.71042 75.90938 196.71042Q77.28438 196.71042 77.94063 197.60104Q78.59688 198.47604 78.6125 200.3198L78.6125 201.72604ZM77.51875 200.24167Q77.51875 198.86667 77.12813 198.24167Q76.75313 197.60104 75.90938 197.60104Q75.08125 197.60104 74.69063 198.24167Q74.31563 198.86667 74.31563 200.16354L74.31563 201.89792Q74.31563 203.27292 74.70625 203.9448Q75.1125 204.60104 75.925 204.60104Q76.72188 204.60104 77.1125 203.97604Q77.50313 203.35104 77.51875 202.02292L77.51875 200.24167ZM85.6125 201.72604Q85.6125 203.6323 84.95625 204.5698Q84.31563 205.49167 82.925 205.49167Q81.56563 205.49167 80.90938 204.58542Q80.25313 203.67917 80.22188 201.86667L80.22188 200.42917Q80.22188 198.53854 80.8625 197.6323Q81.51875 196.71042 82.90938 196.71042Q84.28438 196.71042 84.94063 197.60104Q85.59688 198.47604 85.6125 200.3198L85.6125 201.72604ZM84.51875 200.24167Q84.51875 198.86667 84.12813 198.24167Q83.75313 197.60104 82.90938 197.60104Q82.08125 197.60104 81.69063 198.24167Q81.31563 198.86667 81.31563 200.16354L81.31563 201.89792Q81.31563 203.27292 81.70625 203.9448Q82.1125 204.60104 82.925 204.60104Q83.72188 204.60104 84.1125 203.97604Q84.50313 203.35104 84.51875 202.02292L84.51875 200.24167ZM92.6125 201.72604Q92.6125 203.6323 91.95625 204.5698Q91.31563 205.49167 89.925 205.49167Q88.56563 205.49167 87.90938 204.58542Q87.25313 203.67917 87.22188 201.86667L87.22188 200.42917Q87.22188 198.53854 87.8625 197.6323Q88.51875 196.71042 89.90938 196.71042Q91.28438 196.71042 91.94063 197.60104Q92.59688 198.47604 92.6125 200.3198L92.6125 201.72604ZM91.51875 200.24167Q91.51875 198.86667 91.12813 198.24167Q90.75313 197.60104 89.90938 197.60104Q89.08125 197.60104 88.69063 198.24167Q88.31563 198.86667 88.31563 200.16354L88.31563 201.89792Q88.31563 203.27292 88.70625 203.9448Q89.1125 204.60104 89.925 204.60104Q90.72188 204.60104 91.1125 203.97604Q91.50313 203.35104 91.51875 202.02292L91.51875 200.24167ZM99.6125 201.72604Q99.6125 203.6323 98.95625 204.5698Q98.31563 205.49167 96.925 205.49167Q95.56563 205.49167 94.90938 204.58542Q94.25313 203.67917 94.22188 201.86667L94.22188 200.42917Q94.22188 198.53854 94.8625 197.6323Q95.51875 196.71042 96.90938 196.71042Q98.28438 196.71042 98.94063 197.60104Q99.59688 198.47604 99.6125 200.3198L99.6125 201.72604ZM98.51875 200.24167Q98.51875 198.86667 98.12813 198.24167Q97.75313 197.60104 96.90938 197.60104Q96.08125 197.60104 95.69063 198.24167Q95.31563 198.86667 95.31563 200.16354L95.31563 201.89792Q95.31563 203.27292 95.70625 203.9448Q96.1125 204.60104 96.925 204.60104Q97.72188 204.60104 98.1125 203.97604Q98.50313 203.35104 98.51875 202.02292L98.51875 200.24167Z" fill-rule="nonzero"/><path fill="#757575" d="M55.815624 149.825L54.7375 149.825L54.7375 142.60625L52.55 143.40312L52.55 142.41875L55.659374 141.24687L55.815624 141.24687L55.815624 149.825ZM59.753124 145.54375L60.190624 141.29375L64.56563 141.29375L64.56563 142.29375L61.1125 142.29375L60.846874 144.62187Q61.4875 144.24687 62.284374 144.24687Q63.440624 144.24687 64.12813 145.02812Q64.81563 145.79375 64.81563 147.10625Q64.81563 148.41875 64.09688 149.18437Q63.39375 149.95 62.1125 149.95Q60.9875 149.95 60.26875 149.325Q59.55 148.68437 59.45625 147.575L60.471874 147.575Q60.58125 148.30937 61.003124 148.68437Q61.425 149.05937 62.1125 149.05937Q62.8625 149.05937 63.3 148.54375Q63.7375 148.02812 63.7375 147.12187Q63.7375 146.2625 63.26875 145.74687Q62.8 145.23125 62.01875 145.23125Q61.315624 145.23125 60.909374 145.52812L60.628124 145.7625L59.753124 145.54375ZM71.6125 146.18437Q71.6125 148.09062 70.95625 149.02812Q70.31563 149.95 68.925 149.95Q67.56563 149.95 66.90938 149.04375Q66.25313 148.1375 66.22188 146.325L66.22188 144.8875Q66.22188 142.99687 66.8625 142.09062Q67.51875 141.16875 68.90938 141.16875Q70.28438 141.16875 70.94063 142.05937Q71.59688 142.93437 71.6125 144.77812L71.6125 146.18437ZM70.51875 144.7Q70.51875 143.325 70.12813 142.7Q69.75313 142.05937 68.90938 142.05937Q68.08125 142.05937 67.69063 142.7Q67.31563 143.325 67.31563 144.62187L67.31563 146.35625Q67.31563 147.73125 67.70625 148.40312Q68.1125 149.05937 68.925 149.05937Q69.72188 149.05937 70.1125 148.43437Q70.50313 147.80937 70.51875 146.48125L70.51875 144.7ZM78.6125 146.18437Q78.6125 148.09062 77.95625 149.02812Q77.31563 149.95 75.925 149.95Q74.56563 149.95 73.90938 149.04375Q73.25313 148.1375 73.22188 146.325L73.22188 144.8875Q73.22188 142.99687 73.8625 142.09062Q74.51875 141.16875 75.90938 141.16875Q77.28438 141.16875 77.94063 142.05937Q78.59688 142.93437 78.6125 144.77812L78.6125 146.18437ZM77.51875 144.7Q77.51875 143.325 77.12813 142.7Q76.75313 142.05937 75.90938 142.05937Q75.08125 142.05937 74.69063 142.7Q74.31563 143.325 74.31563 144.62187L74.31563 146.35625Q74.31563 147.73125 74.70625 148.40312Q75.1125 149.05937 75.925 149.05937Q76.72188 149.05937 77.1125 148.43437Q77.50313 147.80937 77.51875 146.48125L77.51875 144.7ZM85.6125 146.18437Q85.6125 148.09062 84.95625 149.02812Q84.31563 149.95 82.925 149.95Q81.56563 149.95 80.90938 149.04375Q80.25313 148.1375 80.22188 146.325L80.22188 144.8875Q80.22188 142.99687 80.8625 142.09062Q81.51875 141.16875 82.90938 141.16875Q84.28438 141.16875 84.94063 142.05937Q85.59688 142.93437 85.6125 144.77812L85.6125 146.18437ZM84.51875 144.7Q84.51875 143.325 84.12813 142.7Q83.75313 142.05937 82.90938 142.05937Q82.08125 142.05937 81.69063 142.7Q81.31563 143.325 81.31563 144.62187L81.31563 146.35625Q81.31563 147.73125 81.70625 148.40312Q82.1125 149.05937 82.925 149.05937Q83.72188 149.05937 84.1125 148.43437Q84.50313 147.80937 84.51875 146.48125L84.51875 144.7ZM92.6125 146.18437Q92.6125 148.09062 91.95625 149.02812Q91.31563 149.95 89.925 149.95Q88.56563 149.95 87.90938 149.04375Q87.25313 148.1375 87.22188 146.325L87.22188 144.8875Q87.22188 142.99687 87.8625 142.09062Q88.51875 141.16875 89.90938 141.16875Q91.28438 141.16875 91.94063 142.05937Q92.59688 142.93437 92.6125 144.77812L92.6125 146.18437ZM91.51875 144.7Q91.51875 143.325 91.12813 142.7Q90.75313 142.05937 89.90938 142.05937Q89.08125 142.05937 88.69063 142.7Q88.31563 143.325 88.31563 144.62187L88.31563 146.35625Q88.31563 147.73125 88.70625 148.40312Q89.1125 149.05937 89.925 149.05937Q90.72188 149.05937 91.1125 148.43437Q91.50313 147.80937 91.51875 146.48125L91.51875 144.7ZM99.6125 146.18437Q99.6125 148.09062 98.95625 149.02812Q98.31563 149.95 96.925 149.95Q95.56563 149.95 94.90938 149.04375Q94.25313 148.1375 94.22188 146.325L94.22188 144.8875Q94.22188 142.99687 94.8625 142.09062Q95.51875 141.16875 96.90938 141.16875Q98.28438 141.16875 98.94063 142.05937Q99.59688 142.93437 99.6125 144.77812L99.6125 146.18437ZM98.51875 144.7Q98.51875 143.325 98.12813 142.7Q97.75313 142.05937 96.90938 142.05937Q96.08125 142.05937 95.69063 142.7Q95.31563 143.325 95.31563 144.62187L95.31563 146.35625Q95.31563 147.73125 95.70625 148.40312Q96.1125 149.05937 96.925 149.05937Q97.72188 149.05937 98.1125 148.43437Q98.50313 147.80937 98.51875 146.48125L98.51875 144.7Z" fill-rule="nonzero"/><path fill="#757575" d="M57.846874 94.28333L52.253124 94.28333L52.253124 93.50208L55.20625 90.22083Q55.8625 89.47083 56.1125 89.01771Q56.3625 88.54896 56.3625 88.04896Q56.3625 87.37708 55.95625 86.95521Q55.565624 86.51771 54.878124 86.51771Q54.08125 86.51771 53.628124 86.98646Q53.175 87.43958 53.175 88.26771L52.096874 88.26771Q52.096874 87.08021 52.846874 86.36146Q53.6125 85.62708 54.878124 85.62708Q56.08125 85.62708 56.76875 86.25208Q57.45625 86.87708 57.45625 87.92396Q57.45625 89.17396 55.846874 90.92396L53.565624 93.39271L57.846874 93.39271L57.846874 94.28333ZM64.6125 90.64271Q64.6125 92.54896 63.95625 93.48646Q63.315624 94.40833 61.925 94.40833Q60.565624 94.40833 59.909374 93.50208Q59.253124 92.59583 59.221874 90.78333L59.221874 89.34583Q59.221874 87.45521 59.8625 86.54896Q60.51875 85.62708 61.909374 85.62708Q63.284374 85.62708 63.940624 86.51771Q64.59688 87.39271 64.6125 89.23646L64.6125 90.64271ZM63.51875 89.15833Q63.51875 87.78333 63.128124 87.15833Q62.753124 86.51771 61.909374 86.51771Q61.08125 86.51771 60.690624 87.15833Q60.315624 87.78333 60.315624 89.08021L60.315624 90.81458Q60.315624 92.18958 60.70625 92.86146Q61.1125 93.51771 61.925 93.51771Q62.721874 93.51771 63.1125 92.89271Q63.503124 92.26771 63.51875 90.93958L63.51875 89.15833ZM71.6125 90.64271Q71.6125 92.54896 70.95625 93.48646Q70.31563 94.40833 68.925 94.40833Q67.56563 94.40833 66.90938 93.50208Q66.25313 92.59583 66.22188 90.78333L66.22188 89.34583Q66.22188 87.45521 66.8625 86.54896Q67.51875 85.62708 68.90938 85.62708Q70.28438 85.62708 70.94063 86.51771Q71.59688 87.39271 71.6125 89.23646L71.6125 90.64271ZM70.51875 89.15833Q70.51875 87.78333 70.12813 87.15833Q69.75313 86.51771 68.90938 86.51771Q68.08125 86.51771 67.69063 87.15833Q67.31563 87.78333 67.31563 89.08021L67.31563 90.81458Q67.31563 92.18958 67.70625 92.86146Q68.1125 93.51771 68.925 93.51771Q69.72188 93.51771 70.1125 92.89271Q70.50313 92.26771 70.51875 90.93958L70.51875 89.15833ZM78.6125 90.64271Q78.6125 92.54896 77.95625 93.48646Q77.31563 94.40833 75.925 94.40833Q74.56563 94.40833 73.90938 93.50208Q73.25313 92.59583 73.22188 90.78333L73.22188 89.34583Q73.22188 87.45521 73.8625 86.54896Q74.51875 85.62708 75.90938 85.62708Q77.28438 85.62708 77.94063 86.51771Q78.59688 87.39271 78.6125 89.23646L78.6125 90.64271ZM77.51875 89.15833Q77.51875 87.78333 77.12813 87.15833Q76.75313 86.51771 75.90938 86.51771Q75.08125 86.51771 74.69063 87.15833Q74.31563 87.78333 74.31563 89.08021L74.31563 90.81458Q74.31563 92.18958 74.70625 92.86146Q75.1125 93.51771 75.925 93.51771Q76.72188 93.51771 77.1125 92.89271Q77.50313 92.26771 77.51875 90.93958L77.51875 89.15833ZM85.6125 90.64271Q85.6125 92.54896 84.95625 93.48646Q84.31563 94.40833 82.925 94.40833Q81.56563 94.40833 80.90938 93.50208Q80.25313 92.59583 80.22188 90.78333L80.22188 89.34583Q80.22188 87.45521 80.8625 86.54896Q81.51875 85.62708 82.90938 85.62708Q84.28438 85.62708 84.94063 86.51771Q85.59688 87.39271 85.6125 89.23646L85.6125 90.64271ZM84.51875 89.15833Q84.51875 87.78333 84.12813 87.15833Q83.75313 86.51771 82.90938 86.51771Q82.08125 86.51771 81.69063 87.15833Q81.31563 87.78333 81.31563 89.08021L81.31563 90.81458Q81.31563 92.18958 81.70625 92.86146Q82.1125 93.51771 82.925 93.51771Q83.72188 93.51771 84.1125 92.89271Q84.50313 92.26771 84.51875 90.93958L84.51875 89.15833ZM92.6125 90.64271Q92.6125 92.54896 91.95625 93.48646Q91.31563 94.40833 89.925 94.40833Q88.56563 94.40833 87.90938 93.50208Q87.25313 92.59583 87.22188 90.78333L87.22188 89.34583Q87.22188 87.45521 87.8625 86.54896Q88.51875 85.62708 89.90938 85.62708Q91.28438 85.62708 91.94063 86.51771Q92.59688 87.39271 92.6125 89.23646L92.6125 90.64271ZM91.51875 89.15833Q91.51875 87.78333 91.12813 87.15833Q90.75313 86.51771 89.90938 86.51771Q89.08125 86.51771 88.69063 87.15833Q88.31563 87.78333 88.31563 89.08021L88.31563 90.81458Q88.31563 92.18958 88.70625 92.86146Q89.1125 93.51771 89.925 93.51771Q90.72188 93.51771 91.1125 92.89271Q91.50313 92.26771 91.51875 90.93958L91.51875 89.15833ZM99.6125 90.64271Q99.6125 92.54896 98.95625 93.48646Q98.31563 94.40833 96.925 94.40833Q95.56563 94.40833 94.90938 93.50208Q94.25313 92.59583 94.22188 90.78333L94.22188 89.34583Q94.22188 87.45521 94.8625 86.54896Q95.51875 85.62708 96.90938 85.62708Q98.28438 85.62708 98.94063 86.51771Q99.59688 87.39271 99.6125 89.23646L99.6125 90.64271ZM98.51875 89.15833Q98.51875 87.78333 98.12813 87.15833Q97.75313 86.51771 96.90938 86.51771Q96.08125 86.51771 95.69063 87.15833Q95.31563 87.78333 95.31563 89.08021L95.31563 90.81458Q95.31563 92.18958 95.70625 92.86146Q96.1125 93.51771 96.925 93.51771Q97.72188 93.51771 98.1125 92.89271Q98.50313 92.26771 98.51875 90.93958L98.51875 89.15833Z" fill-rule="nonzero"/><path stroke="#4285f4" stroke-width="4.0" stroke-linecap="butt" d="M231.5 62.416668L243.5 62.416668" fill-rule="nonzero"/><path fill="#757575" d="M256.0625 58.385414L257.20312 58.385414L257.20312 64.43229Q257.20312 65.65104 256.45312 66.354164Q255.71875 67.041664 254.5 67.041664Q253.23438 67.041664 252.51562 66.385414Q251.8125 65.729164 251.8125 64.55729L252.9375 64.55729Q252.9375 65.291664 253.32812 65.71354Q253.73438 66.11979 254.5 66.11979Q255.20312 66.11979 255.625 65.68229Q256.0625 65.229164 256.0625 64.447914L256.0625 58.385414ZM263.23438 66.916664Q263.14062 66.729164 263.07812 66.24479Q262.32812 67.041664 261.28125 67.041664Q260.34375 67.041664 259.73438 66.510414Q259.14062 65.979164 259.14062 65.15104Q259.14062 64.166664 259.89062 63.61979Q260.64062 63.072914 262.01562 63.072914L263.0625 63.072914L263.0625 62.572914Q263.0625 62.010414 262.71875 61.68229Q262.39062 61.33854 261.71875 61.33854Q261.14062 61.33854 260.75 61.635414Q260.35938 61.916664 260.35938 62.33854L259.26562 62.33854Q259.26562 61.854164 259.59375 61.416664Q259.9375 60.979164 260.51562 60.729164Q261.09375 60.46354 261.78125 60.46354Q262.89062 60.46354 263.5 61.010414Q264.125 61.55729 264.15625 62.510414L264.15625 65.43229Q264.15625 66.30729 264.375 66.822914L264.375 66.916664L263.23438 66.916664ZM261.4375 66.08854Q261.95312 66.08854 262.40625 65.822914Q262.85938 65.55729 263.0625 65.135414L263.0625 63.83854L262.21875 63.83854Q260.21875 63.83854 260.21875 65.010414Q260.21875 65.510414 260.5625 65.80729Q260.90625 66.08854 261.4375 66.08854ZM268.40625 65.447914L269.98438 60.572914L271.09375 60.572914L268.8125 66.916664L267.98438 66.916664L265.6875 60.572914L266.79688 60.572914L268.40625 65.447914ZM276.23438 66.916664Q276.14062 66.729164 276.07812 66.24479Q275.32812 67.041664 274.28125 67.041664Q273.34375 67.041664 272.73438 66.510414Q272.14062 65.979164 272.14062 65.15104Q272.14062 64.166664 272.89062 63.61979Q273.64062 63.072914 275.01562 63.072914L276.0625 63.072914L276.0625 62.572914Q276.0625 62.010414 275.71875 61.68229Q275.39062 61.33854 274.71875 61.33854Q274.14062 61.33854 273.75 61.635414Q273.35938 61.916664 273.35938 62.33854L272.26562 62.33854Q272.26562 61.854164 272.59375 61.416664Q272.9375 60.979164 273.51562 60.729164Q274.09375 60.46354 274.78125 60.46354Q275.89062 60.46354 276.5 61.010414Q277.125 61.55729 277.15625 62.510414L277.15625 65.43229Q277.15625 66.30729 277.375 66.822914L277.375 66.916664L276.23438 66.916664ZM274.4375 66.08854Q274.95312 66.08854 275.40625 65.822914Q275.85938 65.55729 276.0625 65.135414L276.0625 63.83854L275.21875 63.83854Q273.21875 63.83854 273.21875 65.010414Q273.21875 65.510414 273.5625 65.80729Q273.90625 66.08854 274.4375 66.08854ZM287.39062 60.604164Q287.39062 61.24479 287.04688 61.74479Q286.70312 62.24479 286.14062 62.52604Q286.79688 62.80729 287.1875 63.36979Q287.57812 63.916664 287.57812 64.61979Q287.57812 65.71354 286.82812 66.385414Q286.09375 67.041664 284.875 67.041664Q283.64062 67.041664 282.89062 66.385414Q282.15625 65.71354 282.15625 64.61979Q282.15625 63.916664 282.53125 63.36979Q282.90625 62.80729 283.57812 62.52604Q283.01562 62.24479 282.6875 61.74479Q282.35938 61.24479 282.35938 60.604164Q282.35938 59.52604 283.04688 58.90104Q283.73438 58.260414 284.875 58.260414Q286.0 58.260414 286.6875 58.90104Q287.39062 59.52604 287.39062 60.604164ZM286.5 64.58854Q286.5 63.86979 286.04688 63.43229Q285.59375 62.979164 284.85938 62.979164Q284.125 62.979164 283.67188 63.43229Q283.23438 63.86979 283.23438 64.604164Q283.23438 65.322914 283.67188 65.74479Q284.10938 66.15104 284.875 66.15104Q285.625 66.15104 286.0625 65.729164Q286.5 65.30729 286.5 64.58854ZM284.875 59.15104Q284.23438 59.15104 283.82812 59.55729Q283.4375 59.947914 283.4375 60.635414Q283.4375 61.27604 283.82812 61.68229Q284.21875 62.08854 284.85938 62.08854Q285.51562 62.08854 285.90625 61.68229Q286.29688 61.27604 286.29688 60.635414Q286.29688 59.979164 285.89062 59.572914Q285.48438 59.15104 284.875 59.15104Z" fill-rule="nonzero"/><path stroke="#db4437" stroke-width="4.0" stroke-linecap="butt" d="M304.5 62.416668L316.5 62.416668" fill-rule="nonzero"/><path fill="#757575" d="M329.0625 58.385414L330.20312 58.385414L330.20312 64.43229Q330.20312 65.65104 329.45312 66.354164Q328.71875 67.041664 327.5 67.041664Q326.23438 67.041664 325.51562 66.385414Q324.8125 65.729164 324.8125 64.55729L325.9375 64.55729Q325.9375 65.291664 326.32812 65.71354Q326.73438 66.11979 327.5 66.11979Q328.20312 66.11979 328.625 65.68229Q329.0625 65.229164 329.0625 64.447914L329.0625 58.385414ZM336.23438 66.916664Q336.14062 66.729164 336.07812 66.24479Q335.32812 67.041664 334.28125 67.041664Q333.34375 67.041664 332.73438 66.510414Q332.14062 65.979164 332.14062 65.15104Q332.14062 64.166664 332.89062 63.61979Q333.64062 63.072914 335.01562 63.072914L336.0625 63.072914L336.0625 62.572914Q336.0625 62.010414 335.71875 61.68229Q335.39062 61.33854 334.71875 61.33854Q334.14062 61.33854 333.75 61.635414Q333.35938 61.916664 333.35938 62.33854L332.26562 62.33854Q332.26562 61.854164 332.59375 61.416664Q332.9375 60.979164 333.51562 60.729164Q334.09375 60.46354 334.78125 60.46354Q335.89062 60.46354 336.5 61.010414Q337.125 61.55729 337.15625 62.510414L337.15625 65.43229Q337.15625 66.30729 337.375 66.822914L337.375 66.916664L336.23438 66.916664ZM334.4375 66.08854Q334.95312 66.08854 335.40625 65.822914Q335.85938 65.55729 336.0625 65.135414L336.0625 63.83854L335.21875 63.83854Q333.21875 63.83854 333.21875 65.010414Q333.21875 65.510414 333.5625 65.80729Q333.90625 66.08854 334.4375 66.08854ZM341.40625 65.447914L342.98438 60.572914L344.09375 60.572914L341.8125 66.916664L340.98438 66.916664L338.6875 60.572914L339.79688 60.572914L341.40625 65.447914ZM349.23438 66.916664Q349.14062 66.729164 349.07812 66.24479Q348.32812 67.041664 347.28125 67.041664Q346.34375 67.041664 345.73438 66.510414Q345.14062 65.979164 345.14062 65.15104Q345.14062 64.166664 345.89062 63.61979Q346.64062 63.072914 348.01562 63.072914L349.0625 63.072914L349.0625 62.572914Q349.0625 62.010414 348.71875 61.68229Q348.39062 61.33854 347.71875 61.33854Q347.14062 61.33854 346.75 61.635414Q346.35938 61.916664 346.35938 62.33854L345.26562 62.33854Q345.26562 61.854164 345.59375 61.416664Q345.9375 60.979164 346.51562 60.729164Q347.09375 60.46354 347.78125 60.46354Q348.89062 60.46354 349.5 61.010414Q350.125 61.55729 350.15625 62.510414L350.15625 65.43229Q350.15625 66.30729 350.375 66.822914L350.375 66.916664L349.23438 66.916664ZM347.4375 66.08854Q347.95312 66.08854 348.40625 65.822914Q348.85938 65.55729 349.0625 65.135414L349.0625 63.83854L348.21875 63.83854Q346.21875 63.83854 346.21875 65.010414Q346.21875 65.510414 346.5625 65.80729Q346.90625 66.08854 347.4375 66.08854ZM358.76562 66.916664L357.6875 66.916664L357.6875 59.697914L355.5 60.49479L355.5 59.510414L358.60938 58.33854L358.76562 58.33854L358.76562 66.916664ZM365.76562 66.916664L364.6875 66.916664L364.6875 59.697914L362.5 60.49479L362.5 59.510414L365.60938 58.33854L365.76562 58.33854L365.76562 66.916664Z" fill-rule="nonzero"/><path fill="#757575" d="M24.909374 35.065624L28.971874 23.33125L31.01875 23.33125L25.753124 37.55L24.08125 37.55L18.83125 23.33125L20.8625 23.33125L24.909374 35.065624ZM37.39375 31.20625Q34.971874 30.51875 33.878124 29.51875Q32.784374 28.503124 32.784374 27.01875Q32.784374 25.33125 34.128124 24.2375Q35.471874 23.128124 37.6125 23.128124Q39.08125 23.128124 40.221874 23.70625Q41.378124 24.26875 42.003124 25.26875Q42.628124 26.253124 42.628124 27.440624L40.753124 27.440624Q40.753124 26.159374 39.925 25.425Q39.1125 24.675 37.6125 24.675Q36.221874 24.675 35.440624 25.284374Q34.675 25.89375 34.675 26.9875Q34.675 27.846874 35.409374 28.45625Q36.14375 29.05 37.909374 29.55Q39.690624 30.05 40.690624 30.659374Q41.690624 31.253124 42.175 32.05Q42.659374 32.846874 42.659374 33.940624Q42.659374 35.659374 41.315624 36.70625Q39.971874 37.753124 37.70625 37.753124Q36.253124 37.753124 34.971874 37.190624Q33.70625 36.628124 33.01875 35.659374Q32.33125 34.675 32.33125 33.425L34.221874 33.425Q34.221874 34.721874 35.175 35.471874Q36.128124 36.20625 37.70625 36.20625Q39.190624 36.20625 39.9875 35.6125Q40.784374 35.003124 40.784374 33.95625Q40.784374 32.909374 40.05 32.346874Q39.315624 31.76875 37.39375 31.20625ZM47.20625 37.55L45.33125 37.55L45.33125 23.33125L47.20625 23.33125L47.20625 37.55ZM51.6125 36.01875L59.7375 36.01875L59.7375 37.55L49.39375 37.55L49.39375 36.14375L57.190624 24.878124L49.51875 24.878124L49.51875 23.33125L59.425 23.33125L59.425 24.70625L51.6125 36.01875ZM70.2375 30.971874L64.08125 30.971874L64.08125 36.01875L71.2375 36.01875L71.2375 37.55L62.20625 37.55L62.20625 23.33125L71.14375 23.33125L71.14375 24.878124L64.08125 24.878124L64.08125 29.440624L70.2375 29.440624L70.2375 30.971874Z" fill-rule="nonzero"/></svg>